<svg id="Picture" xmlns="http://www.w3.org/2000/svg" xmlns:xlink="http://www.w3.org/1999/xlink" viewBox="0 0 149.25 166.51"><defs><style>.cls-1,.cls-14,.cls-15,.cls-16,.cls-17,.cls-4,.cls-9{fill:none;}.cls-2{clip-path:url(#clip-path);}.cls-3{clip-path:url(#clip-path-2);}.cls-4{stroke:#a7a9ac;stroke-width:0.5px;}.cls-18,.cls-4{stroke-miterlimit:10;}.cls-5{clip-path:url(#clip-path-3);}.cls-6{clip-path:url(#clip-path-4);}.cls-7{fill:#d4e3f5;}.cls-8{fill:#f6f6f6;}.cls-18,.cls-9{stroke:#fff;}.cls-9{stroke-width:0.3px;}.cls-10{fill:#ccc;}.cls-10,.cls-11,.cls-13,.cls-14,.cls-15,.cls-16,.cls-17{opacity:0.3;}.cls-12,.cls-13{fill:#d1d3d4;}.cls-14{stroke:#939598;stroke-width:0.4px;stroke-dasharray:0 1;}.cls-14,.cls-15,.cls-16,.cls-17{stroke-linecap:round;stroke-linejoin:round;}.cls-14,.cls-15{fill-rule:evenodd;}.cls-15,.cls-16{stroke:#bcbec0;stroke-width:0.4px;}.cls-15,.cls-16,.cls-17{stroke-dasharray:0 0.6;}.cls-17{stroke:#d1d3d4;stroke-width:0.2px;}.cls-18{fill:#5c2d91;}</style><clipPath id="clip-path"><rect class="cls-1" x="-92.22" y="-256" width="382.77" height="190.54"/></clipPath><clipPath id="clip-path-2"><rect class="cls-1" x="-92.12" y="-256.42" width="382.67" height="228.42"/></clipPath><clipPath id="clip-path-3"><rect class="cls-1" x="-208.83" y="-16.94" width="382.77" height="190.54"/></clipPath><clipPath id="clip-path-4"><rect class="cls-1" x="-208.73" y="-17.36" width="382.67" height="228.42"/></clipPath></defs><title>ranges4</title><g class="cls-2"><g class="cls-3"><path class="cls-4" d="M-93.08-143.07s22.56,14.65,45.88,46.54C-10.81-46.75,12.38-10.45,50.51-1.82s58.72,3.55,95.42-36.71c53.43-58.62,62.25-100,103.75-108.38S317.42-135,317.42-135"/><path class="cls-1" d="M50.51-1.82c30.31,6.86,49.55,5,74.61-16.23H17.7C27.73-10.14,38.36-4.57,50.51-1.82Z"/></g></g><g class="cls-5"><g class="cls-6"><rect class="cls-7" x="-208.74" y="-18.03" width="382.68" height="239.66"/><polygon class="cls-8" points="73.27 52.1 73.94 52.38 74.36 52.27 74.05 51.45 73.53 51.12 72.69 50.35 72.64 49.8 72.12 49.37 71.49 49.42 70.18 48.98 69.55 47.99 68.77 48.05 68.77 48.38 69.29 49.75 69.76 49.8 70.18 50.19 70.65 50.19 71.12 50.68 72.01 51.66 72.69 51.99 73.27 52.1"/><polygon class="cls-8" points="63.76 42.14 64.28 42.03 64.54 42.19 64.59 42.47 65.01 42.3 64.9 42.96 64.8 43.72 64.12 43.78 63.7 42.96 63.76 42.14"/><polygon class="cls-8" points="63.34 37.98 63.6 37.98 64.28 38.96 64.75 40.44 64.59 40.6 63.44 39.23 63.34 37.98"/><polygon class="cls-8" points="63.65 39.89 64.07 40.6 63.86 40.77 63.44 39.95 63.65 39.89"/><polygon class="cls-8" points="62.29 36.66 62.45 36.44 62.6 36.66 62.66 38.09 62.45 37.98 62.29 36.66"/><polygon class="cls-8" points="61.66 36.11 61.87 36.72 61.93 37.54 61.72 37.65 61.35 36.83 61.66 36.11"/><polygon class="cls-8" points="62.08 33.81 62.03 34.09 62.03 35.9 62.34 35.95 62.66 35.68 62.6 34.42 62.08 33.81"/><polygon class="cls-8" points="60.57 35.29 60.25 34.74 59.84 34.14 59.84 33.81 60.72 33.49 61.19 33.7 61.61 33.92 61.61 34.14 61.14 34.03 61.14 34.31 61.56 34.8 61.35 34.96 60.83 34.42 60.67 34.58 60.88 35.35 60.57 35.29"/><polygon class="cls-8" points="63.08 37.15 62.76 36.44 62.92 36.17 63.44 36.44 63.81 36.77 63.76 36.94 63.34 36.72 63.44 37.05 63.08 37.15"/><polygon class="cls-8" points="64.53 44.09 64.76 43.93 65.15 43.97 65.15 44.17 64.72 44.22 64.53 44.09"/><polygon class="cls-8" points="64.72 44.75 64.92 44.63 65.43 44.63 65.43 44.83 64.92 44.87 64.72 44.75"/><polygon class="cls-8" points="65.47 45.57 65.43 45.28 65.66 45.37 65.9 45.57 65.82 45.74 65.47 45.57"/><polygon class="cls-8" points="66.29 42.53 66.13 42.41 66.25 42.25 66.52 42.33 66.56 42.62 66.29 42.53"/><polygon class="cls-8" points="66.6 43.44 66.64 43.19 66.95 43.35 67.35 43.64 67.07 43.72 66.6 43.44"/><polygon class="cls-8" points="48.26 29.02 47.95 29.11 47.24 29.93 47.2 30.21 47.63 30.17 48.26 29.39 48.26 29.02"/><polygon class="cls-8" points="48.53 28.86 48.57 28.57 49.08 28.49 49.16 28.9 48.77 29.15 48.53 28.86"/><polygon class="cls-8" points="47.48 28.9 47.32 29.02 47.12 28.78 47.28 28.61 47.48 28.9"/><polygon class="cls-8" points="47.2 29.39 47.09 29.68 46.89 29.56 47.01 29.31 47.2 29.39"/><polygon class="cls-8" points="93.07 -1 93.49 -0.74 93.49 -0.55 94.43 -0.09 94.43 1.23 94.74 2.2 95.45 2.94 95.21 3.87 96.7 4.76 97.02 4.56 97.64 4.71 97.8 5.3 99.21 6.04 99.21 6.39 99.05 6.58 98.58 6.58 98.19 6.68 97.8 6.53 97.33 6.88 96.62 6.68 96.47 6.88 96.62 7.42 97.33 7.22 97.8 7.37 98.03 8.09 97.25 8.16 96.31 8.46 95.37 8.36 94.74 8.51 94.43 8.01 93.41 7.76 93.25 7.37 92.71 7.37 92.55 7.91 91.84 8.31 90.59 8.31 89.41 8.85 88.71 8.9 85.81 9.05 85.1 8.55 85.1 7.76 84.71 7.52 83.22 7.47 82.04 7.32 80.95 6.58 80.95 6.14 81.89 5.75 84.32 5.5 85.73 5.6 86.98 5.5 87.14 5.3 85.89 4.96 85.42 4.91 84.32 4.66 82.83 5.06 81.73 5.01 80.71 4.71 80.01 3.87 81.03 3.63 82.2 3.53 82.75 3.04 82.36 2.89 80.95 3.04 80.56 3.23 80.24 3.13 80.32 2.74 79.54 2.69 79.46 1.8 80.32 1.56 80.24 1.21 79.62 0.97 80.08 0.23 80.95 -0.02 81.42 -0.12 82.75 -0.96 83.69 -1.25 84.32 -1.05 84.63 -0.51 84 0.03 84.16 0.47 84.63 0.18 84.94 0.33 85.34 0.18 85.26 -0.27 85.73 -0.46 87.45 0.13 87.53 0.67 86.98 1.01 86.98 1.21 87.69 1.21 87.92 0.87 88.32 0.57 88.86 0.82 89.02 0.57 88.79 0.03 88.63 -0.36 89.33 -0.36 90.36 0.52 90.59 1.31 90.82 2.44 91.3 2.69 92.08 1.9 91.69 1.46 91.37 0.62 91.53 0.08 91.3 -0.61 91.3 -1.1 91.61 -1.15 92 -0.96 92.47 -0.86 93.07 -1"/><polygon class="cls-8" points="93.49 8.46 93.8 8.6 93.8 8.85 93.25 9 92.78 9.39 91.53 9.54 90.82 9.24 91.3 8.75 92.39 8.7 93.49 8.46"/><polygon class="cls-8" points="82.91 -1.55 82.44 -1.45 82.12 -1.2 80.32 -0.32 79.85 -0.02 78.83 0.57 78.67 1.21 78.36 1.36 78.13 1.16 77.5 1.46 77.5 2.64 76.71 3.13 76.4 2.94 75.54 3.58 74.91 3.92 74.28 3.87 74.13 2.89 72.25 2 71.7 1.95 71.78 1.11 72.72 0.62 72.64 0.33 72.33 0.08 72.33 -0.36 72.72 -0.32 73.19 -0.61 72.64 -0.86 72.64 -1.3 73.66 -2.14 72.87 -3.96 75.3 -4.16 75.93 -4.41 76.87 -4.36 78.05 -3.47 78.28 -3.17 78.6 -3.47 78.91 -3.47 78.99 -2.98 79.3 -3.12 79.38 -3.47 80.71 -3.57 82.83 -1.99 82.91 -1.55"/><polygon class="cls-8" points="102.82 -2.38 102.35 -2.24 101.88 -2.09 101.17 -2.14 100.62 -2.44 99.92 -2.24 99.6 -2.48 99.21 -2.38 99.29 -1.89 99.68 -1.65 99.13 -1.55 99.13 -1.25 99.45 -0.96 100.07 -0.91 100.15 -0.76 99.84 -0.66 100.23 0.13 99.6 0.33 99.37 0.42 98.27 -0.36 97.56 -0.32 97.41 0.28 97.64 0.77 98.51 1.21 98.66 1.46 99.53 1.61 99.84 2 100.54 2.2 101.17 3.48 102.35 3.28 102.35 2.94 101.96 2.79 101.96 2.44 102.66 2.79 103.92 2.49 104.15 2 103.92 1.31 104.39 0.97 104.07 0.57 103.99 0.42 103.29 0.37 103.29 -0.12 102.97 -0.27 102.03 -0.22 102.27 -0.61 102.97 -1.45 103.05 -1.65 103.44 -1.84 103.68 -2.38 102.82 -2.38"/><polygon class="cls-8" points="102.03 6.88 102.5 6.58 102.9 6.63 103.52 6.98 103.76 7.27 104.15 7.42 104.23 7.62 105.25 8.41 104.78 8.65 104.07 9 103.6 9 102.74 8.6 101.56 8.41 100.86 8.36 100.62 7.96 101.96 7.42 102.03 6.88"/><polygon class="cls-8" points="99.45 8.51 99.6 8.31 99.92 8.21 99.92 8.51 99.6 8.65 99.45 8.51"/><polygon class="cls-8" points="97.72 8.85 97.72 8.65 98.11 8.55 98.5 8.55 98.5 8.75 98.03 9 97.72 8.85"/><polygon class="cls-8" points="94.67 9.19 94.59 9.05 95.21 9 95.45 9.19 95.14 9.24 94.67 9.19"/><polygon class="cls-8" points="105.64 1.9 105.95 1.85 106.58 1.9 107.36 0.82 106.58 0.08 107.05 -0.02 107.52 0.08 108.3 0.08 108.85 0.23 110.81 -2.24 110.73 -2.83 109.25 -2.98 108.7 -2.88 107.91 -3.32 106.89 -3.12 106.27 -3.22 105.25 -2.78 105.88 -2.44 105.88 -2.19 105.4 -2.33 105.09 -2.19 105.17 -0.32 105.01 -0.07 105.48 0.67 105.64 1.9"/><polygon class="cls-8" points="116.69 -2.33 115.91 -2.38 115.52 -2.48 114.58 -2.48 113.24 -1.65 113.01 -1.55 112.07 -0.66 112.07 0.18 111.44 0.62 111.28 0.92 111.67 1.31 111.36 1.66 111.52 2.15 111.2 2.64 111.67 3.23 113.09 3.48 114.11 3.73 114.26 4.07 113.63 3.92 113.09 3.92 112.38 3.73 111.83 3.82 111.99 4.37 112.46 4.66 113.24 5.15 113.71 5.65 114.34 5.65 114.97 5.15 115.36 5.25 115.44 5.79 116.06 5.99 116.85 5.84 117.55 5.89 118.26 6.19 118.73 6.24 119.28 6.34 119.91 6.53 119.91 6.24 119.43 5.94 119.2 5.7 119.43 5.55 119.91 5.75 120.3 6.09 121 6.39 121.24 6.14 121 5.94 121.63 5.79 122.49 6.19 123.43 6.14 123.67 5.7 122.73 5.15 122.73 4.96 123.35 4.76 123.83 5.15 124.22 5.2 124.84 5.7 124.77 6.34 125.24 6.58 125.55 7.13 126.8 7.57 126.88 7.77 125.55 8.21 125.63 8.6 126.17 8.65 126.65 8.46 127.43 8.06 127.9 8.06 127.59 8.41 128.14 8.95 128.76 8.9 129.08 9.44 129.78 9.88 129.94 10.23 130.02 10.62 130.33 10.87 130.33 11.86 129.78 11.91 129.39 12.52 127.9 13.75 128.06 14.57 128.84 15.23 128.84 15.97 128.29 15.72 127.35 16.29 126.02 16.38 125.55 16.13 125.08 15.8 124.69 16.21 124.69 16.7 123.98 17.28 123.9 18.27 124.84 19 125.94 19.09 126.57 18.1 126.96 18.02 127.75 18.92 127.98 18.59 127.9 18.02 128.37 18.1 128.53 18.43 129.39 18.43 129.55 19.5 130.41 20.32 131.11 20.4 131.27 20.98 130.8 21.06 130.96 21.71 131.43 21.88 132.45 22.87 133 22.7 133.47 22.87 133.39 23.77 134.33 24.43 134.96 24.43 136.68 25.08 137.31 24.84 136.91 23.93 135.74 23.11 135.11 22.21 133.94 20.65 134.09 20.07 134.41 19.99 135.03 20.81 135.43 20.73 135.9 21.39 136.52 21.22 137.31 22.21 138.01 23.36 138.48 23.28 138.48 22.54 138.79 21.96 138.25 21.47 138.4 21.14 139.11 21.22 139.11 20.57 138.56 19.83 138.56 19.42 138.25 19.17 138.25 18.76 137.39 17.61 136.84 17.45 136.05 16.38 135.82 15.88 135.35 15.56 134.56 14.57 134.8 14 135.5 14.65 135.97 14.32 135.74 13.91 135.35 13.01 136.29 12.52 137.07 13.42 137.31 13.91 138.25 13.91 138.33 14.24 137.85 15.14 138.64 16.21 139.03 16.54 139.5 16.71 140.05 17.36 140.36 16.62 140.05 15.64 140.05 14.98 140.6 15.56 141.46 14.98 141.23 13.34 142.17 13.26 142.32 12.15 141.85 12 141.93 11.71 141.38 11.46 140.29 12.05 140.21 11.81 140.52 11.56 140.21 11.26 139.03 11.41 139.19 10.77 138.72 10.48 138.25 10.38 138.25 9.98 137.39 10.03 136.76 10.33 136.13 9.44 135.11 8.85 133.7 8.51 133.86 8.21 135.19 8.46 135.27 8.06 134.8 7.82 136.52 7.72 136.29 7.37 134.88 6.98 135.35 6.78 135.82 6.78 136.05 6.39 135.03 5.65 134.56 6.14 133.86 6.34 133.86 6.04 132.92 5.89 133.86 5.65 134.56 5.01 133.39 4.51 132.53 4.56 131.9 5.3 131.43 5.25 131.59 4.86 131.98 4.51 131.82 4.32 130.96 4.66 130.65 4.32 131.9 3.92 131.66 2.99 131.04 2.59 130.09 2.59 130.02 3.13 129.55 3.38 129.23 3.18 129 3.38 128.69 3.08 129 2.64 128.53 2.54 128.14 3.08 127.67 2.99 127.75 2.44 128.53 1.75 128.14 1.61 127.51 2.05 127.12 1.61 127.59 0.87 126.57 0.42 126.02 0.47 125.55 0.33 124.22 0.38 123.75 0.77 124.61 1.01 124.53 1.26 124.14 1.31 123.98 2 123.43 2 123.04 1.46 122.96 1.06 122.26 1.06 121.63 1.31 121.55 1.71 121.16 1.75 121.32 0.67 121.71 0.33 121.55 -0.12 121.4 -0.41 121.32 -1.15 120.77 -1.65 120.77 -2.04 120.38 -2.29 119.75 -2.29 118.02 -1.75 118.02 -1.3 117.63 -1.45 117.06 -1.21 117.48 -0.91 116.46 -0.61 116.69 0.72 117.71 1.11 117.55 1.41 116.77 1.11 116.22 1.41 116.38 2.15 116.97 2.86 116.85 3.63 116.3 3.58 116.3 2.59 115.36 2.05 115.28 0.28 115.2 -0.02 116.3 -1.2 116.46 -1.5 117.06 -2.13 116.69 -2.33"/><polygon class="cls-8" points="121.47 -1.99 121.71 -1.35 122.02 -1.15 122.26 0.13 122.73 0.33 123.2 0.18 123.35 -0.12 125.08 -0.22 126.57 0.13 126.8 -0.22 125.94 -0.56 126.02 -1.1 125.55 -1.5 125.08 -1.55 123.98 -2.14 122.49 -1.99 122.26 -2.14 121.47 -1.99"/><polygon class="cls-8" points="124.22 6.68 123.35 7.03 123.35 7.17 123.67 7.17 124.61 6.73 124.22 6.68"/><polygon class="cls-8" points="122.81 6.63 122.81 6.88 122.1 7.13 121.71 6.98 121.94 6.78 122.81 6.63"/><polygon class="cls-8" points="125.16 7.87 125 7.52 125.08 7.27 125.39 7.32 125.63 7.47 125.16 7.87"/><polygon class="cls-8" points="123.12 7.62 123.59 7.42 123.9 7.52 123.98 7.96 123.2 8.41 122.41 8.36 122.41 8.21 123.04 7.96 123.12 7.62"/><polygon class="cls-8" points="123.2 9.2 123.59 9.34 123.59 8.9 123.2 8.85 123.2 9.2"/><polygon class="cls-8" points="126.1 9.49 125.16 10.28 125.24 11.21 125.55 11.51 126.49 11.36 127.51 10.82 127.43 10.48 127.27 10.28 127.27 9.64 126.1 9.49"/><polygon class="cls-8" points="127.43 8.75 127.35 9.2 127.04 9.1 127.04 8.85 127.43 8.75"/><polygon class="cls-8" points="128.45 10.33 128.06 10.13 128.06 9.93 128.69 9.93 129.08 10.33 128.45 10.33"/><polygon class="cls-8" points="115.05 9.93 115.2 10.08 114.89 10.38 114.58 10.23 114.65 10.03 115.05 9.93"/><polygon class="cls-8" points="117.63 14 117.94 14.32 118.26 14.49 118.34 14.82 117.94 14.82 117.48 14.24 117.63 14"/><polygon class="cls-8" points="116.77 14.41 116.93 14.16 117.16 14.41 117.32 15.23 116.93 15.23 116.77 14.41"/><polygon class="cls-8" points="115.67 15.23 115.91 14.82 116.3 14.9 116.46 15.8 117 16.46 117.32 16.21 118.34 16.62 118.81 17.2 120.14 17.77 120.3 18.68 120.06 19.58 121.47 19.83 121.63 20.07 121.47 20.81 120.14 20.73 119.51 20.4 119.36 19.91 119.04 19.5 118.57 19.66 118.02 20.48 117.55 20.57 116.77 21.63 116.14 21.96 115.99 20.57 114.65 20.4 114.5 20.07 115.52 17.94 115.59 15.8 115.67 15.23"/><polygon class="cls-8" points="120.06 22.13 118.97 22.21 118.34 22.78 118.26 23.77 118.97 23.69 119.98 22.78 120.06 22.13"/><polygon class="cls-8" points="122.96 23.69 122.33 23.77 122.1 24.1 122.02 25.16 122.65 25.66 122.73 25 123.12 24.51 122.96 23.69"/><polygon class="cls-8" points="123.83 21.22 124.45 21.22 124.76 21.55 124.45 22.04 123.98 21.8 123.83 21.22"/><polygon class="cls-8" points="125 20.98 124.92 20.73 125.16 20.57 125.78 21.06 125.78 21.39 125.31 21.3 125 20.98"/><polygon class="cls-8" points="124.92 19.91 124.69 20.07 124.45 19.74 124.69 19.58 124.92 19.91"/><rect class="cls-8" x="114.34" y="5.84" width="0.78" height="0.15"/><polygon class="cls-8" points="134.64 28.78 134.64 28.45 135.11 28.12 135.27 28.37 135.11 28.7 134.64 28.78"/><polygon class="cls-8" points="138.01 25.82 138.25 25.41 138.56 25.66 138.64 26.23 138.4 26.31 138.01 25.82"/><polygon class="cls-8" points="122.86 37.21 122.75 37.76 122.33 38.14 122.55 38.47 123.01 38.09 123.22 37.43 123.17 37.05 122.86 37.21"/><polygon class="cls-8" points="120.24 43.95 120.61 43.73 121.03 43.78 121.39 44.16 121.45 44.6 120.92 44.66 120.66 44.27 120.24 44.22 120.24 43.95"/><polygon class="cls-8" points="162.08 29.68 161.61 29.27 160.9 29.6 160.66 29.11 160.74 28.45 159.65 27.88 159.25 27.05 157.69 27.22 157.37 27.79 157.06 27.63 156.98 26.73 156.35 26.32 156.28 25.9 155.73 25.41 155.41 24.59 155.34 24.02 154.47 23.52 154.32 23.19 154.63 22.78 154.47 22.54 154.47 22.04 153.93 21.39 153.85 21.14 153.3 20.65 153.3 19.66 154.16 19.58 154.16 19.01 154.47 18.35 154.86 18.59 155.02 18.1 154.08 17.45 153.61 17.86 153.06 18.92 152.59 18.76 152.75 17.69 152.51 16.54 152.67 16.13 151.57 15.31 151.73 15.06 152.36 15.06 152.12 14.49 151.5 14.41 151.02 13.5 151.26 12.76 151.73 12.76 152.12 12.1 151.42 12 150.87 12.2 150.71 11.91 151.02 11.07 152.44 10.53 153.14 10.67 153.93 11.02 154.32 10.87 154.08 10.38 152.75 10.33 152.2 10.33 151.26 10.77 150.95 10.72 150.87 10.33 151.97 9.88 153.06 9.88 154.16 10.08 154.4 9.69 153.85 9.64 153.53 9.44 152.59 9.64 152.04 9.54 152.12 9.15 153.06 8.95 154.08 8.9 154.08 8.6 153.61 8.41 153.85 7.57 154.63 7.27 154.24 6.83 154.63 6.53 154.55 6.09 153.61 6.24 152.2 6.04 151.34 5.45 150.4 5.25 149.85 4.61 150.16 4.46 151.18 4.61 152.04 4.86 152.59 4.86 153.93 5.5 154.32 5.3 153.53 4.91 153.61 4.61 153.22 4.17 153.69 3.77 153.06 3.68 152.04 3.13 152.44 2.79 151.5 2.2 151.34 1.85 150.79 1.8 150.79 2.35 150.4 2.4 150.32 3.13 149.38 2.99 148.59 2.54 149.53 2.25 149.07 1.85 149.3 1.41 148.99 0.82 149.14 0.67 149.93 0.82 149.77 -0.31 148.83 -0.46 149.14 -1.2 148.28 -1.99 148.52 -2.53 147.97 -2.88 147.73 -3.81 148.12 -4.01 147.66 -4.41 147.1 -4.6 145.77 -6.21 145.22 -6.32 145.38 -6.96 144.44 -7.28 143.89 -7.24 143.58 -7.6 142.95 -7.49 142.48 -7.74 142.56 -7.88 141.46 -8.06 140.84 -7.85 140.6 -8.24 140.21 -8.28 139.97 -7.92 139.34 -7.92 139.34 -8.28 138.96 -8.24 138.8 -7.81 138.09 -7.63 137.78 -7.74 137.62 -8.13 137.15 -8.06 136.84 -7.81 136.44 -8.1 135.9 -8.1 135.97 -7.78 136.52 -7.67 136.52 -7.46 135.82 -7.42 135.43 -7.6 134.01 -7.78 133.15 -8.35 134.25 -8.74 135.03 -8.7 134.96 -9.06 133.08 -9.13 133.23 -9.7 132.76 -9.7 132.53 -9.41 131.82 -9.38 131.27 -9.91 132.37 -10.27 133.31 -10.23 134.01 -10.02 135.03 -10.05 135.27 -10.13 136.29 -9.84 136.76 -9.91 136.68 -10.13 135.35 -10.38 134.17 -10.27 134.25 -10.45 135.5 -10.66 135.97 -10.66 136.52 -10.52 137.31 -10.95 136.91 -11.23 136.05 -11.34 135.58 -11.09 134.88 -11.02 134.41 -11.16 133.86 -10.8 132.68 -11.05 132.68 -11.3 132.29 -11.37 132.13 -11.59 131.19 -11.62 131.19 -11.73 130.41 -11.8 129.47 -12.37 129.55 -12.55 129.78 -12.69 129.55 -12.83 129.63 -13.05 130.25 -13.33 130.65 -13.58 131.35 -13.62 131.82 -13.51 132.92 -14.08 133.78 -14.08 134.09 -14.26 133.62 -14.47 134.41 -14.54 134.88 -14.86 136.52 -14.93 137 -14.79 138.72 -16.04 138.09 -16.68 139.19 -16.89 138.72 -17.14 139.03 -17.35 139.35 -17.53 138.96 -17.82 138.33 -17.53 137.93 -17.57 137.46 -17.32 135.9 -17.5 135.9 -17.78 135.58 -17.96 135.58 -18.53 136.6 -18.81 137.23 -19.2 137.78 -19.28 137.78 -19.67 139.43 -20.74 139.74 -20.77 139.97 -20.06 140.37 -20.17 140.29 -21.02 140.99 -20.88 141.31 -20.66 142.4 -20.98 142.4 -21.45 142.09 -21.7 142.64 -22.12 142.01 -22.37 141.93 -22.73 141.7 -22.98 141.85 -23.16 142.56 -23.3 144.05 -23.34 144.52 -23.09 144.52 -22.73 146.32 -21.98 146.24 -22.45 145.15 -23.09 144.91 -21.4 144.05 -21.82 144.21 -21.97 146.01 -22.36 146.87 -22.36 147.73 -22.61 148.68 -22.54 148.52 -22.93 149.61 -23.14 150.01 -22.93 150.32 -22.18 150.16 -22.41 150.4 -22.27 150.71 -22.37 151.42 -21.4 151.1 -21.54 151.42 -21.72 152.28 -21.54 154.71 -22.41 155.02 -22.62 153.3 -21.43 154.87 -21.43 154.4 -21.75 153.46 -22.32 153.53 -23.18 153.22 -23.46 153.46 -23.68 154.79 -23.71 155.49 -23.32 155.57 -23 156.67 -22.79 156.75 -22.46 157.61 -22.39 158.39 -22 159.8 -22.98 160.59 -22.98 160.67 -23.16 159.88 -21.5 160.12 -21.72 159.88 -22.54 160.2 -22.75 161.22 -22.68 162.08 -22.61 162.47 -22.75 160.75 -23.11 161.14 -23.29 159.41 -24.42 158.71 -24.64 159.34 -24.78 160.9 -24.67 162.55 -24.71 162.86 -24.57 162.78 -23.96 163.02 -23.71 163.49 -23.85 163.25 -24.39 163.57 -24.57 164.12 -24.32 164.66 -23.78 164.66 -23.5 165.29 -23.21 165.29 -23.57 164.74 -24.42 164.04 -24.74 162 -25.17 160.12 -24.92 160.04 -25.24 160.9 -25.28 160.75 -25.49 160.12 -25.56 159.02 -26.02 159.41 -26.2 160.59 -26.2 161.29 -26.02 161.92 -26.06 161.76 -26.27 160.75 -26.45 160.98 -26.63 162 -26.74 163.1 -26.49 163.18 -26.02 163.88 -25.95 164.51 -25.46 165.53 -25.49 166.08 -25.24 166.47 -24.74 166.94 -24.74 167.01 -25.03 166.23 -25.46 166.63 -25.67 167.64 -25.67 168.03 -25.88 166.78 -25.88 166.78 -26.13 167.41 -26.2 168.35 -26.27 168.35 -26.45 167.02 -26.49 166.31 -26.7 166.7 -27.02 166.39 -27.49 166.63 -27.59 167.1 -27.45 167.41 -27.56 167.17 -27.8 167.72 -27.8 168.59 -27.34 169.05 -27.52 168.35 -28.09 168.9 -28.23 169.37 -28.05 170 -28.34 170.39 -28.3 170.94 -28.13 171.33 -28.16 171.64 -28.38 172.9 -28.48 173.29 -28.27 173.91 -28.38 174.62 -28.34 175.64 -28.27 176.27 -28.27 176.74 -28.09 177.52 -28.13 177.83 -27.95 177.21 -27.73 177.6 -27.52 178.23 -27.56 178.62 -27.88 181.13 -27.34 181.52 -26.88 180.19 -26.52 178.38 -26.35 176.58 -26.49 174.93 -26.27 173.84 -25.95 173.05 -26.13 172.27 -26.1 172.66 -25.88 171.33 -25.53 169.92 -25.24 170.23 -25.1 170 -24.82 170.47 -24.82 171.01 -25.17 171.56 -25.14 171.64 -24.71 172.11 -24.89 172.19 -25.39 174.07 -25.42 174.23 -25.74 175.72 -26.17 176.89 -26.17 177.99 -25.95 180.11 -26.02 180.42 -26.24 181.83 -26.42 182.38 -25.95 182.15 -25.39 181.68 -25.1 181.75 -24.71 183.09 -25.28 183.56 -25.28 183.48 -24.89 184.34 -25.1 185.73 -24.79 186.46 -24.17 186.38 -23.75 185.73 -23.64 185.59 -23.18 184.34 -22.89 183.56 -23 182.54 -22.46 180.03 -22.39 178.85 -22.46 176.5 -22.29 175.95 -22.43 174.62 -22.43 175.4 -22.25 175.33 -22.07 173.44 -21.54 172.82 -23.05 173.13 -22.52 173.91 -22.66 173.91 -22.94 176.11 -21.5 176.58 -21.4 178.54 -21.93 179.01 -21.82 181.59 -21.75 181.91 -21.65 181.91 -23.19 180.66 -22.84 180.11 -22.48 179.24 -22.09 179.64 -22.09 179.87 -21.88 180.66 -22.09 181.28 -22.34 183.16 -22.91 183.24 -21.72 183.48 -21.89 185.36 -21.93 185.51 -21.75 185.59 -22.02 184.81 -21.55 184.42 -21.13 184.42 -20.52 183.79 -20.06 183.87 -19.77 183.4 -19.52 183.4 -19.2 183.71 -19.1 184.26 -19.35 184.26 -19.95 185.51 -20.59 186.06 -21.52 187.32 -22.2 187.4 -22.45 188.1 -22.52 188.1 -22.2 188.65 -22.23 189.28 -22.12 190.14 -22.2 190.3 -22.77 190.77 -22.94 190.53 -21.36 191 -21.43 191.47 -23.3 192.26 -21.72 194.45 -21.5 196.72 -22.45 196.8 -22.27 194.92 -20.88 193.82 -20.98 193.51 -20.74 194.06 -20.34 193.75 -20.13 192.88 -20.09 192.65 -19.74 192.1 -19.6 191.24 -19.63 190.14 -19.88 189.91 -19.6 189.44 -19.7 188.02 -19.67 187.55 -19.42 187.16 -19.38 187.16 -18.99 188.1 -19.03 188.18 -19.35 188.89 -19.42 189.98 -18.92 190.61 -18.99 191.24 -19.35 192.65 -18.89 191.47 -18.21 190.85 -18.14 189.83 -18.32 188.41 -18.32 187.87 -17.78 187.87 -17.03 188.41 -17 188.65 -17.39 188.81 -17.57 188.49 -17.82 188.89 -18.07 189.51 -17.96 189.67 -17.71 190.38 -17.96 190.85 -17.71 190.3 -16.82 188.81 -16.82 188.26 -15.5 188.96 -15.5 188.89 -15.22 188.18 -14.43 187.4 -14.43 186.61 -13.65 187 -13.62 185.99 -11.91 186.14 -11.51 186.77 -11.51 187 -12.01 187.47 -12.12 188.96 -11.59 189.04 -11.19 188.18 -11.37 187.71 -11.55 187.55 -11.37 187.94 -10.95 189.2 -10.38 189.35 -10.66 190.22 -10.52 190.3 -10.16 189.98 -9.56 189.04 -9.52 187.4 -9.8 186.85 -9.77 187.24 -9.45 186.3 -9.41 185.9 -9.38 185.83 -9.17 186.14 -8.7 186.22 -8.31 186.69 -8.17 187.4 -8.31 188.34 -8.2 188.34 -7.81 187.47 -7.74 185.99 -7.74 186.53 -7.6 188.1 -7.49 189.12 -7.03 189.28 -6.5 188.49 -5.98 187.79 -6.42 187.08 -6.57 186.61 -6.85 186.14 -6.74 187.47 -6.13 187.4 -5.93 186.32 -5.88 185.85 -5.64 186.16 -5.39 187.16 -5.49 187.47 -5.24 187.08 -4.8 187.16 -4.5 188.34 -4.36 188.73 -4.5 189.04 -4.26 188.73 -3.62 188.26 -3.52 187.55 -4.26 186.3 -4.36 186.09 -4.26 185.78 -3.81 186.17 -3.07 186.46 -2.04 186.69 -2.19 186.53 -2.63 187.79 -2.58 187.87 -1.74 186.77 -1.55 185.51 -1.2 184.26 -1.84 183.87 -1.99 185.12 -1.94 184.1 -2.38 183.24 -2.33 182.3 -2.83 181.91 -2.73 182.93 -1.99 182.3 -1.35 181.75 -1.2 180.58 -1.55 180.34 -1.35 180.81 -1 179.79 -0.86 180.19 -0.41 180.81 -0.66 181.12 -0.51 181.67 -0.86 182.38 -0.61 182.14 -0.22 180.81 -0.12 181.2 0.38 182.38 0.03 182.85 0.57 181.83 0.77 182.38 1.21 183.48 0.97 184.34 1.56 185.12 1.8 185.73 2.34 186.03 3.03 186.3 2.84 186.77 3.18 186.61 4.91 186.22 4.91 185.75 4.51 185.44 4.71 185.36 5.06 184.1 4.76 183.24 3.53 183.24 3.08 181.67 2.59 180.42 2.49 179.79 1.71 178.93 1.51 178.46 1.75 179.32 2.15 179.32 2.64 180.26 2.89 181.91 3.04 181.83 3.63 180.5 3.97 178.85 3.97 179.16 4.32 178.69 4.81 178.07 4.86 178.15 5.06 179.09 5.25 179.95 5.21 180.34 5.01 180.97 5.01 180.89 5.5 179.79 5.55 178.93 5.65 179.16 5.94 180.19 5.94 180.97 5.75 181.52 5.75 181.83 5.21 182.53 5.15 182.77 5.6 184.73 5.6 184.97 5.75 185.44 5.55 185.69 5.71 185.61 5.96 184.03 6.83 183.55 6.83 183.24 7.42 182.85 7.32 182.38 7.92 181.99 7.92 181.44 8.51 180.5 8.51 179.71 8.95 179.24 8.75 178.15 9.34 177.68 9.34 177.28 9.15 176.81 9.44 176.34 9.29 175.95 9.59 175.48 9.54 174.54 8.95 173.91 8.9 174.23 9.24 174.85 9.54 174.7 10.28 173.6 10.38 173.13 11.12 172.66 12 171.8 13.17 170.86 13.09 170.78 13.91 169.92 14.41 169.44 14.08 168.82 14.41 168.58 14 168.74 13.09 168.11 12.93 167.96 13.34 167.8 14.98 165.68 15.39 165.6 15.64 165.92 16.13 165.92 16.54 164.9 16.62 164.82 17.45 165.21 17.94 165.06 18.51 164.19 18.51 164.35 19.17 165.21 19.34 165.29 20.4 164.35 20.24 164.74 20.98 164.66 21.39 164.27 21.47 164.04 22.45 163.57 22.37 163.18 22.87 163.49 23.28 163.18 24.18 163.72 25.33 163.41 26.15 162.94 26.4 163.02 26.89 162.63 27.46 162.7 27.96 161.92 28.04 162.47 28.7 162.08 29.68"/><polygon class="cls-8" points="149.14 0.03 149.22 0.28 148.83 0.42 148.75 0.03 149.14 0.03"/><polygon class="cls-8" points="117.84 89.33 118.83 88.79 119.51 88.68 120.19 88.79 121.81 88.84 122.49 89.22 122.7 89.66 123.54 89.66 125.31 90.7 125.68 91.08 126.1 91.14 126.78 91.69 127.82 91.85 128.08 92.29 126.57 92.51 126.1 92.45 124.79 92.78 124.37 92.56 124.42 92.18 124.84 91.74 124.69 91.47 123.9 91.36 123.12 90.65 122.13 90.48 121.71 89.99 120.92 89.99 120.03 89.44 120.03 89.17 119.3 89.22 118.36 89.83 117.73 89.72 117.84 89.33"/><polygon class="cls-8" points="119.25 89.77 119.46 89.66 119.51 89.88 119.2 89.94 119.25 89.77"/><polygon class="cls-8" points="123.9 94.64 124.48 94.37 125.94 95.03 125.89 95.36 124.58 95.3 124.11 95.03 123.9 94.64"/><polygon class="cls-8" points="124.41 84.21 124.84 84.91 124.76 85.57 125 85.61 125.04 84.62 124.72 84.17 124.41 84.21"/><polygon class="cls-8" points="125.63 85.98 126.06 86.47 126.06 87.13 126.33 87.17 126.22 86.35 125.78 85.9 125.63 85.98"/><polygon class="cls-8" points="126.57 87.05 126.84 87.79 127.16 87.83 126.84 87.13 126.57 87.05"/><polygon class="cls-8" points="127.08 88.36 127.35 89.43 127.55 89.47 127.39 88.73 127.27 88.36 127.08 88.36"/><polygon class="cls-8" points="128.06 89.39 128.41 89.63 128.41 89.88 128.09 90.17 128.21 90.42 128.6 89.84 128.53 89.55 128.25 89.31 128.06 89.39"/><polygon class="cls-8" points="128.8 91.44 129.23 91.15 129.51 91.32 129.31 91.56 128.8 91.44"/><polygon class="cls-8" points="129.51 89.76 129.74 89.8 129.7 90.05 129.51 89.96 129.51 89.76"/><polygon class="cls-8" points="130.84 90.5 131.27 90.62 131.11 90.83 130.8 90.7 130.84 90.5"/><polygon class="cls-8" points="124.18 86.56 123.9 86.88 124.02 87.46 124.53 87.33 124.41 86.92 124.18 86.56"/><polygon class="cls-8" points="124.06 84.38 124.02 84.62 123.47 84.62 123.51 84.34 124.06 84.38"/><polygon class="cls-8" points="124.33 87.91 124.61 87.7 124.61 88.07 124.33 87.91"/><polygon class="cls-8" points="130.92 93.99 130.92 92.88 130.09 92.75 129.66 92.59 129.04 92.88 129.16 93.21 129.66 93.29 129.66 93.74 130.09 93.95 129.94 94.28 129 94.11 128.14 94.19 128.09 94.52 128.8 94.81 129.51 94.89 130.72 94.81 130.92 93.99"/><polygon class="cls-8" points="130.92 93.99 130.72 94.81 130.8 95.18 131.11 95.3 131.78 94.81 131.94 94.48 132.84 94.56 133.58 94.56 134.05 94.85 134.44 94.52 134.37 94.07 133.66 93.45 133.07 93.41 132.13 92.75 131.11 92.63 130.92 92.88 130.92 93.99"/><polygon class="cls-8" points="135.93 94.56 136.13 94.36 137.31 94.44 137.42 94.64 137.27 94.97 135.93 94.97 135.93 94.56"/><polygon class="cls-8" points="138.36 95.1 138.56 95.01 138.79 95.22 138.56 95.34 138.36 95.1"/><polygon class="cls-8" points="141.85 103.56 141.89 104.17 142.6 104.21 142.67 103.6 142.48 103.56 142.67 103.31 141.85 103.56"/><polygon class="cls-8" points="142.87 103.02 143.26 102.9 143.3 103.19 142.99 103.27 142.87 103.02"/><polygon class="cls-8" points="141.81 96.94 141.85 97.31 142.09 97.52 142.16 97.23 142.44 97.23 142.44 96.86 142.09 97.03 141.81 96.94"/><polygon class="cls-8" points="142.36 98.92 142.75 99.37 142.91 99.28 142.83 98.87 142.52 98.75 142.36 98.92"/><polygon class="cls-8" points="141.66 95.96 141.81 95.84 142.01 96 141.81 96.2 141.69 96.12 141.66 95.96"/><polygon class="cls-8" points="142.16 98.01 142.36 97.89 142.64 98.14 142.32 98.3 142.16 98.01"/><polygon class="cls-8" points="142.32 100.64 142.56 100.6 142.64 100.8 142.32 101.01 142.32 100.64"/><polygon class="cls-8" points="141.81 101.83 141.97 101.58 142.28 101.75 142.09 102.04 141.81 101.83"/><polygon class="cls-8" points="133.62 101.87 133.93 101.71 134.14 102.04 133.93 102.09 133.62 101.87"/><polygon class="cls-8" points="109.69 115.94 109.84 115.72 110.37 116.05 110.47 116.71 109.74 117.15 109.9 116.38 109.69 115.94"/><polygon class="cls-8" points="110.78 116.49 111.15 116.27 111.36 116.54 110.94 116.65 110.78 116.49"/><polygon class="cls-8" points="148.84 46.79 147.64 47.06 146.96 48.32 146.23 49.69 145.97 50.89 145.55 51.28 145.5 51.77 144.5 52.26 144.61 52.59 145.13 52.54 144.45 53.25 145.08 53.91 146.54 53.74 147.22 53.96 148.06 53.63 148.37 54.07 149.1 53.69 149.21 54.56 149.68 54.62 150.36 53.85 150.51 54.51 150.3 55 150.82 55.11 151.03 55.55 151.76 55.55 151.92 53.52 151.14 53.08 151.66 52.92 151.82 52.1 150.56 52.37 150.77 50.89 149.83 50.67 149 51 149 50.57 148.37 50.46 148.47 49.74 147.95 49.64 147.38 50.35 147.27 49.91 148.84 46.79"/><polygon class="cls-8" points="142.36 56.92 142.15 56.26 142.62 55.6 142.94 54.78 143.35 54.89 143.25 55.66 142.73 56.48 142.36 56.92"/><polygon class="cls-8" points="142.88 57.19 142.99 56.86 143.3 56.26 143.88 56.26 143.88 56.7 143.3 57.19 142.88 57.19"/><polygon class="cls-8" points="141.37 55.77 139.75 55.88 139.49 55.44 139.44 54.89 139.02 54.84 139.02 55.66 140.11 56.37 141.11 56.42 141.37 55.77"/><polygon class="cls-8" points="141.63 54.45 141.78 53.91 142.1 53.63 142.41 53.63 142.36 53.91 141.99 54.02 141.84 54.45 141.63 54.45"/><polygon class="cls-8" points="139.44 50.13 139.91 49.69 140.37 49.8 142.1 51.11 141.78 51.39 140.69 51.33 139.8 50.78 139.44 50.13"/><polygon class="cls-8" points="140.73 142.28 141.04 141.29 141.25 139.81 141.51 139.16 142.77 138.61 145.28 138.56 146.11 139.27 146.27 142.06 147.1 142.5 148.57 143.15 148.62 144.3 149.25 144.03 149.92 144.3 149.98 145.29 149.72 145.78 149.61 146.55 149.35 147.64 148.62 148.3 147.16 148.52 145.95 148.47 145.49 148.3 146.63 146.49 146.69 146 145.95 145.34 144.33 144.91 143.45 144.19 142.61 144.3 141.98 143.43 141.3 142.61 140.73 142.28"/><polygon class="cls-8" points="140.73 142.28 141.04 141.29 141.25 139.81 141.51 139.16 142.77 138.61 145.28 138.56 146.11 139.27 146.16 137.73 145.69 137.02 145.8 136.09 145.33 135.82 145.28 134.89 142.87 134.5 142.77 131.71 141.67 131.49 139.42 130.12 138.64 130.01 138.06 129.69 137.96 127.77 137.07 127.17 135.81 127.58 135.24 128.65 133.2 128.97 134.25 130.4 134.3 130.83 133.72 131.11 133.99 132.81 133.26 133.08 133.67 135.16 133.1 136.64 133.57 136.91 134.04 138.28 134.2 139.98 134.93 142.61 135.29 142.88 136.29 141.78 136.81 141.84 137.8 142.33 138.22 143.04 138.79 143.04 138.95 142.72 138.95 142.28 139.32 142.11 139.94 142.33 140.73 142.28"/><polygon class="cls-8" points="54.85 7.08 53.59 6.58 53.12 6.43 52.89 6.24 51.87 6.19 50.46 6.43 49.2 5.99 48.42 5.94 48.1 6.04 46.77 5.79 45.99 5.35 44.97 5.3 43.79 5.45 43.01 5.6 42.46 5.45 42.93 5.15 41.83 4.91 42.15 4.51 41.13 4.51 40.34 4.76 39.48 4.27 38.93 4.32 38.78 4.66 38.38 4.66 37.84 4.37 38.62 3.97 38.15 3.92 37.52 3.67 36.11 4.61 34.94 4.66 34.7 4.56 33.6 5.15 32.51 5.75 32.11 5.75 31.02 6.14 30.47 6.78 30.07 8.06 29.06 8.65 26.78 8.7 26.7 9.44 26.23 9.54 26.78 9.83 27.33 10.03 28.35 10.48 29.37 11.21 29.45 11.9 29.92 12 30.39 12.05 31.41 12.05 31.72 12 32.11 12.15 31.96 12.4 31.64 12.76 32.35 13.26 32.98 12.93 33.92 12.84 34.23 13.26 33.92 13.5 32.82 13.67 32.58 14.4 32.11 14.4 31.64 14.81 30.39 14.4 29.29 14.57 29.37 14.07 29.45 13.5 28.43 13.58 27.49 13.83 27.18 14.32 26.39 14.4 26.16 15.06 25.76 15.23 25.06 15.96 25.69 16.54 26.08 16.54 26.78 16.62 27.1 16.95 26.78 17.11 26.08 17.11 27.1 18.68 28.19 18.68 28.98 18.43 29.61 18.76 30.62 18.84 31.02 18.27 31.64 18.1 32.03 17.69 32.98 18.02 32.98 18.68 32.35 18.68 32.27 18.92 32.98 19.74 33.05 20.65 32.03 21.96 31.41 21.71 30.7 22.04 29.68 22.54 29.21 22.04 28.43 23.11 28.27 24.01 27.88 24.26 27.33 25.66 27.1 25.9 27.25 26.64 27.72 27.38 28.04 27.3 28.27 27.63 28.04 28.53 27.57 28.61 29.29 30.25 30.07 30.17 30.94 29.93 30.99 29.43 31.3 29.32 31.3 30.09 31.51 30.86 31.72 32.06 31.51 32.94 32.14 32.72 33.29 32.06 33.71 32.39 34.12 32.5 34.54 33.16 34.86 33.27 35.17 32.28 35.69 32.61 36.01 32.72 36.53 32.61 37.05 32.17 37.16 32.61 36.53 34.25 36.53 35.35 35.69 35.68 34.96 36.66 33.92 37.43 33.45 37.98 33.29 38.63 32.98 38.8 32.51 38.55 31.8 38.72 30.94 39.45 30.47 40.19 29.92 40.65 29.45 40.56 28.78 40.93 28.55 41.55 28.59 41.88 29.41 41.63 30.04 41.05 30.23 40.69 30.55 40.69 31.57 40.11 31.8 39.37 32.11 39.45 32.35 39.7 32.9 39.7 33.99 39.04 34.62 38.63 35.33 38.39 35.41 38.06 37.13 36.66 37.6 36.25 37.6 35.68 38.62 34.94 39.33 34.36 40.19 33.87 40.34 32.97 40.89 32.8 40.81 31.82 40.27 31.82 40.19 31.41 40.74 30.58 41.44 30.58 41.99 29.93 41.83 29.19 43.87 26.48 44.65 26.56 45.05 26.07 45.44 26.07 45.2 27.3 44.5 27.22 43.4 28.04 43.48 28.53 42.85 30.17 42.93 30.5 43.16 30.42 43.4 30.58 43.16 30.83 42.85 30.99 42.7 31.32 43.63 31.32 44.81 30.58 45.36 29.76 46.54 29.76 46.85 28.78 46.69 28.28 46.85 28.04 46.46 27.87 47.24 26.97 47.55 27.05 47.4 27.55 47.87 27.55 48.57 27.3 48.81 27.87 49.91 28.61 50.53 28.45 50.77 28.7 50.93 29.6 52.34 29.6 52.96 29.68 53.36 29.84 54.45 29.84 54.69 30.09 55.78 30.34 56.41 29.93 56.49 30.99 57.9 31.57 58.22 32.47 58.92 33.29 60.25 33.21 59.86 32.72 59.94 32.47 60.33 32.47 60.8 33.05 61.04 33.05 61.27 32.06 61.59 32.88 62.06 33.05 62.53 33.38 63.15 34.94 63.31 36 63.86 36.58 64.25 36.83 64.33 37.81 64.72 38.47 64.8 39.04 65.03 39.13 65.19 39.54 65.9 39.7 66.05 40.6 66.29 40.6 66.76 40.69 67.05 40.28 66.94 39.4 67.15 38.3 65.69 37.32 64.85 36.44 63.49 33.16 62.76 32.61 61.93 31.08 61.09 30.42 60.25 30.64 59.42 31.62 58.9 31.62 57.22 29 56.7 28.34 56.28 28.67 56.07 29.43 54.85 28.56 54.85 7.08"/><path class="cls-8" d="M75.54,51.77H106L107,52.43l1.25,0.25,1,0.49,1.33-.08,0.86,0.25,2.12-.16L117,55.06l0.78,1.64,2,2.22,0.08,1.48-0.6,1.89,0.36,1.07,3.14-1.56,0.39-1,2.9-1.07,1.41-1.23,0.63-.57h1l0.63,0.16,2-.41,1.49-3,0.63-.33L135.19,55v1.48l0.71,1.15L136,58.75l0.43-.25,0.37-.55,0.68-.17,0.68-.44,0.58-.38,0.16,0.16-0.1.38,0.26,0.11,0.21-.11,0.1,0.22-0.42.44h-0.47l-0.73.88-0.37.11-0.26,1,0.47,0.44,0.63-.06,0.47-.44,0.16-.33,0.94-1.1L140.1,59l0.31,0.06,0.26-.27,0.57-.11,0.52-.06,0.63-.6v-0.6l-0.42.05L141.83,57l-0.58.27-0.78-.05-0.52-.38-0.31-.38-1.15-.88-0.16-1.1,0.26-.33V53.64l-0.73.16-0.47-.33-0.68-.22L136.65,53l0.47-.33,0.78,0.16,0.47,0.27,1-.88-0.21-.49L139,51.61l-0.84-.71-1.25.11-0.52.6-1.1.33-0.73.82-0.21.06-1.15,1.26-0.05.44-0.52.22-0.57.71-0.26-.11,0.21-1.1,0.89-.71,0.21-.38,0.73-.71,0.63-1.15,1.46-.27,0.05-.55,0.47-.33,0.68-.82,0.73,0.06L138,49.53l1.67-.17,0.89-.22,0.57,0.33,1-.16,0.68,0.16h1.15L144.7,49l0.73-1.42,0.78-.44,1.31-.27,0.89-.77,0.21-.05,0.21-.49-0.42-.88,0.37-.6L148.52,43l-0.94-.38-0.73.49-0.05-.33L147,42l-0.63-.06-1,.6-0.1.27H145l-0.89.77-0.52-.06-0.16-.71,0.47,0.11,0.73-.44,1.26-.77,1.1-.38,0.1-.44-0.89-.22-0.47-.38-0.84-.33-0.47.16-0.63-.44-0.05-.49-0.52-.93L142.72,38l-0.05-.22L142,37.54l-0.05-1,0.52-.33-0.11-.49-0.47-.16-0.21-1.26L141,33.65l0.1-.71-0.57-.33V31.52H140.1l-0.26-1.31-0.52-.49-0.21-1-0.37-.16-0.37.66v0.49L138,30l0.1,0.93-0.52,1.31-0.31.33-0.05-.33-0.31-.06-0.42.11v0.6l-0.52.33-0.37.44L135,33.27V32.72l-1-1-0.57.55-0.63.16-0.05-.22,0.73-.49,0.21-.38-0.31-.22H133s-0.26-.38-0.1-0.33a0.79,0.79,0,0,0,.47-0.27l-0.05-.55-0.42-.44,0.42-.44-0.05-1,0.37-.33v-0.6L133.26,27l-0.31.16-0.26-.33-1.31-.05-0.31-.55,0.1-.6-0.47-.16-0.31-.82-0.57-.22L129.55,24,129,23.63l-1,.11-0.26.49-0.52-.06-0.94-.05-0.84-.55-0.26-.27h-0.68l-0.37.27V25l0.63,0.77-0.05.82-0.42.33L124,27l0.16,0.44L124.53,28l0.16,0.88,0.26,0.55-0.21.82-0.58.71-0.05.44-0.42.6,0.05,0.66,0.89,0.88,0.83,0.82,0.47,2.08-0.31,1.92-0.68.6-0.21.38-0.58.6-0.58.27-0.1.44-0.68.06-0.21.44,0.52,0.66,0.16,1v1.31l0.26,0.66,0.31,0.49,0,0.52-0.47.74-0.16.66-0.47-.49-0.31.74-0.31-.16-0.55.08,0.08-.49-0.63-1-0.55-.16V45.29l-0.71-.66V44.22l0.23-.33,0.08-1.56-0.23-.74,0.08-1.64-0.55-.41-0.94.17-0.94-.08L117,39.29l-0.86-.08-0.63-.74-1.1-.16-0.63-.41-0.16-.82L113.4,37h-0.31l-0.63-.49-1.26-.82h-0.47l-0.31-.16h-0.86l-1,.41-0.08-.25,0.23-.9L108.23,34l-0.31-1.64-0.55-.17-0.71-.08L106,31.24V30l0.08-.25,0.08-1.89,0.55-.9L107,25.66l0.47-.49,0.08-.66,0.47-.08,0.31-.74,0.63-.33-0.23-.9,0.31-.33,0.24,0.25h0.39l0.94-.33V21.55L110.19,21l-0.63-.49,0.47-.16,0.39,0.16,0.71-.08,0.55-.82L112.07,20l0.78-.08,0.55-.82,0.63-.66,0.08-.49,0.23-.9-0.23-.49-0.31-.25-1.1-.08-1.1-1.07-0.47-.33,0.31-.25,0.94,0.33,0.86,0.82,1,0.17,0.63-.74,0.94-.74,0.08-.82-0.55-.08L115,13.17l0.08-.41,0.86-.08,0.31,0.57,0.47,0.25,0.47,0.08,0.71-.33-0.08-.41-0.7-.55-0.23-.2,0.31-.2,0.47,0.1L118,12.25l0.39,0.51L119,12.85l0.47-.33,0.86-.37,0.08-.39,0.63-.84-0.63-.74L120,10l-0.31-.59,0.31-.1,0.63,0,0.16-.49-0.47-.35L120.69,8l-0.08-.39h-0.55l-0.39-.2-0.16-.3,0.31-.15-0.31-.2h-1l-0.55-.1-0.47-.25-0.78.1-0.16.15-0.08,1.18L116.77,8l-0.08.3-0.55.34-0.08.54-0.31.74-0.47.64-0.24.4-0.55.15-0.08.44h-0.24l-1-.94,0.08-1.08,0.63,0L113.79,9l-0.31-.44-1-.59-0.24-.25-0.63.35V8.6l-0.16.64L111,9.39l-0.31-.2v-1L110,7.67l0.16-.2h0.63l-0.08-.2L110,6.83l-0.78.2-0.86-.44,0.31-.44-0.08-.25,0.24,0,0.63,0V5.45l-1.33-1-0.08-1-0.23-.2-0.16-.54-0.47-.15-0.55,0-0.31-.29-0.47-.05-0.24.35h-0.39l-0.31.35L105.33,3l-0.39.25-0.31,0-0.23.1L104,4.51l0.39,0.3h0.31V5.06l-0.47,0L104,5.84l0.47,0.39,0.63,0.35,0.55,0,0.39,0L106.11,7l0.63,0.1L107.21,7l0.08,0.3-0.78.29-0.39.84,0.39,0.2,0.39-.2,0.23-.2,0.24,0.35L107.21,9l-0.47.35-0.47.35h-0.55l-0.63.29-0.08.3,0.63,0.59-0.24.34-0.94-.2-0.16-.64,0.31-.25V9.74l-0.47-.1-0.78-.35-0.55-.2-0.31.15-0.71,0-0.31,1.18-0.55,0-0.63-.2-1.26.25-0.55-.15-0.44.2-1-.2-0.39-.44h-1l-0.47,0-0.86-.59L94.19,9,94,9l-0.39.1-0.08.25-0.86.59-1,0-0.16.59,0.39,0.74,0.47,0.35-0.39.3v0.56l-0.7-.37-0.31-.35,0.39-.39-0.63-.49-0.24,0L90,10.48l-0.55-.2L89,10.13l-1.49.44-0.86,0-1.8,0-0.55-.15-1.1,0-0.16-.3,0.24-.25,0.47-.15,0.16-.2,0.86-.2L83.14,8.11l-0.7,0-0.16.15H81.65l-0.7-.15H80.4l-1-.49-1.1-.25H77.81l-1.8-1-1.17.1V7l-0.71.49-0.86,0-0.08-.15,0.39-.39L73,6.68l0.16-.25,0.24-.1-0.16-.44-0.86.25L72.4,6.93H72.17l-0.08.59-0.71-.15-0.86-.69V6L69.11,5V5.4l0.31,0.25-0.08.15H69V6.24l-0.78.39,0.08-.3-0.55.15-1.1.34-0.7.59-0.24-.1L64.41,8l-0.31.44-0.71.15-0.08-.39L63.7,8l-0.08-.15,0.71-.2,0.08-.35,0.94-.39H65.9l1.49-.69V5.94L66.84,6l-0.24-.1L66,6.34H65.59L65,6.73H64.41l-0.86.39-0.08.25H62.68l0.16-.25L62.06,7l-0.63.59H61l-0.55.35,0.16,0.34L61.43,8.5V8.75l-0.31,0-1-.15-0.71-.35-0.86-.1-0.94-.44-0.86-.59H55.47l-0.31-.1h-0.3V28.56l1.22,0.88,0.21-.77,0.42-.33L57.22,29l1.67,2.63h0.52l0.84-1,0.84-.22,0.84,0.66,0.84,1.53,0.73,0.55,1.36,3.28,0.84,0.88,1.46,1-0.21,1.1L67,40.28l-0.29.41-0.08.74,0.16,1,0.23,0.66,0.47,0.33,0.23-.33L68.09,43l0.08,0.82-0.31.25v0.57l0.55,0.16L69,44.63l0.16,0.57,0.24,0.49-0.08.9,0.16,0.9L70,47.83l1,0.25,0.39,0.66h0.78L72.64,49,73,49.72l0.63,0.16,0.23,0.66h0.39l0.63,0.9,0.55,0.33h0.08Z"/><polygon class="cls-8" points="81.42 76.74 82 76.53 83.92 76.45 85.61 77.27 87.14 78.26 87.77 78.38 90.12 78.42 91.14 78.14 91.37 77.44 92.39 77.48 93.49 77.72 94.51 78.75 94.9 78.75 95.29 79.16 95.37 80.19 96.23 81.05 96.98 81.34 97.21 81.17 97.09 80.6 97.8 80.03 99.45 80.89 100.9 83.31 101.05 84.05 102.31 85.08 103.36 85.28 103.36 84.79 103.29 83.97 103.6 83.47 103.76 82.98 104.85 81.58 105.95 81.26 106.5 80.85 107.28 80.35 107.91 80.35 109.01 80.6 109.56 80.44 110.58 81.26 111.13 81.09 111.91 81.5 112.41 81.5 112.46 81.12 111.99 80.57 112.04 79.97 112.82 79.86 113.87 79.53 114.13 79.75 115.17 79.53 115.86 79.59 116.48 79.92 116.74 80.41 117.21 80.52 117.42 80.14 117.94 80.03 118.57 80.35 119.09 81.17 119.51 81.67 119.51 82.05 119.36 82.27 119.41 83.36 119.77 83.86 119.88 84.73 120.56 85.5 120.92 86.49 121.29 86.54 121.92 86.27 122.13 84.52 121.65 82.55 121.13 80.79 120.72 79.86 120.72 78.6 121.39 77.4 121.5 76.85 121.97 76.8 123.59 75.15 124.43 74.99 124.95 74.22 125.42 73.84 125.63 73.13 126.31 72.69 126.41 72.31 125.99 71.81 126.25 71.43 126.2 70.94 125.84 70.28 125.84 68.69 125.42 67.76 125.73 67 126.36 66.94 126.2 67.82 126.36 69.02 126.57 69.79 126.83 69.95 127.3 68.97 127.4 67.92 127.04 67.32 127.25 67.1 127.67 67.49 128.24 66.94 128.4 66.28 128.92 65.57 128.81 65.02 128.6 64.86 129.08 64.64 129.28 64.04 129.7 63.98 130.17 64.26 130.75 64.09 131.32 63.66 131.69 64.09 132.26 63.93 132.68 63.49 132.11 63.27 132.11 62.78 131.74 62.4 132.26 61.57 132.37 61.14 132.79 60.53 132.84 60.1 133.78 60.1 133.99 59.82 134.14 59.33 134.3 59.22 134.51 59.44 134.98 59.38 136.01 58.76 135.9 57.61 135.19 56.45 135.19 54.98 133.86 54.4 133.23 54.73 131.74 57.69 129.78 58.1 129.16 57.93 128.14 57.93 127.51 58.51 126.1 59.74 123.2 60.81 122.81 61.79 119.67 63.35 119.31 62.29 119.91 60.4 119.83 58.92 117.79 56.7 117 55.06 113.56 53.17 111.44 53.33 110.58 53.09 109.25 53.17 108.23 52.68 106.97 52.43 106.03 51.77 75.54 51.77 75.46 51.77 75.56 52.81 75.85 53.58 75.69 54.32 75.3 54.32 75.46 53.01 74.28 53.09 73.58 52.84 73.03 52.84 72.87 53.25 73.66 54.73 73.81 56.04 73.58 57.44 73.66 59.58 73.11 61.22 73.27 62.2 73.66 63.76 73.58 64.83 73.42 65.65 73.81 66.31 73.89 67.21 74.68 67.87 74.91 68.86 75.62 68.97 75.83 69.19 75.62 69.73 75.77 70.44 76.14 70.83 76.19 71.48 76.61 72.03 77.34 72.91 77.55 74 78.13 74 78.75 74.22 79.22 74.82 79.54 74.88 79.9 74.88 80.74 75.37 81.1 76.3 81.42 76.74"/><path class="cls-8" d="M112.26,95.1l0.46-.69,1,0.2,0.31-.45,0-.29,0-1.19,0.47-1,0.39-.57-0.39-.49-0.55.08-0.31-.16h-0.94l-0.78.57-0.55-.16-0.47.74-0.08,1.23-0.78.9-0.08.41-2,.41-0.55-.08-0.63.16-0.86-.49h-0.31L105.25,94l-0.55-.25-0.16-.49-0.47-.66-0.47-.9-0.55-1-0.39-1.23V88.32l0.08-1.48,0.63-1.07V85.28l-1.06-.2-1.25-1-0.16-.74-1.45-2.42L97.8,80l-0.71.57,0.12,0.58L97,81.34l-0.74-.29-0.86-.86-0.08-1-0.39-.41H94.51l-1-1-1.1-.25-1,0-0.24.7-1,.29-2.35,0-0.63-.12-1.53-1-1.69-.82L82,76.53l-0.59.21,0.1,0.49,0.21,0.93,1.15,1.21L83,80l0.42,0.6,0.31,0.11,0.89,1,0.05,0.49,0.05,0.93H84c-0.21,0-.05.22-0.05,0.22l1,0.77,0.68,0.27,0.78,0.55,0.42,0.55,0.21,1.15,0.57,0.77,0.47,0.17L89,88.4l0.1,0.82,0.58-.17V88.51L89.46,88,89,87.42l-0.42-.27-0.21-.71-0.37-.55-0.16-.44-0.31-1-1.15-1.37-0.1-.38-0.47-.49V81.78L84.24,80l-0.16-.33-0.21-2,0.21-.11,0.37,0.38,0.47-.11,0.21-.06,0.16,0.49,0.36,0.06,0.21,0.6-0.16.55L86.17,80l0.21,0.77L86.9,81.5l0.31,0.22,0.57,0.82,0.78,0.22,0.05,0.55,0.73,0.93,0.42-.05,0.42,0.55L89.93,85l-0.05.55,0.63,0.33L91.08,86l0.31,0.38L91.55,87l0.52,0.55,0.26,0.06,0.42,0.77,1.1,1.1L94,89.94l0.47,0.88-0.11,1L94,92.29l0.26,0.27,0.05,0.38L95,93.33l0.52,0.16,0.47,0.33,0.26,0.6,0.63,0.11,0.63,0.38L98.14,95l0.52,0.38,0.58,0.38,0.37,0.38,0.52,0.11,0.26,0.27,0.84,0.06,0.68,0.49,0.31-.06,0.57,0.33,0.57,0.11,0.31,0.27,1.15-.16,1.2-.71h0.31l0.26,0.33,0.78,0.16,0.1,0.49,1.1,1L109,97.35l1.53,0,0.51-.25,0-.41-0.9-.78,0.43-.33V94.77l1.14,0Z"/><polygon class="cls-8" points="112.61 97.27 112.1 96.9 112.26 95.1 112.72 94.41 113.71 94.6 113.4 94.89 113.32 95.67 112.61 97.27"/><polygon class="cls-8" points="147.08 113.45 147.1 112.38 146.16 111.89 146.11 110.96 146.79 110.25 146.87 109.26 147.5 109.02 149.85 109.1 150.4 109.34 150.4 109.76 150.13 109.97 149.82 111.02 150.29 112.33 149.87 113.26 148.78 113.31 148.57 113.1 148.25 113.04 148.04 113.48 147.08 113.45"/><path class="cls-8" d="M133.1,184.49l-0.16.37-0.31.23h-0.58l-0.52.33,0.21,0.51-0.31.47V187l-1,0-0.52-.42v-0.28l0.89,0L131,186l-0.05-.61-0.63-.37-0.78,0-0.52.61-0.31,0-0.1-1,0.47-.14,0.47-.14-0.1-.42-0.31,0-0.26.28-0.47-.23v-0.88l-0.42-.47,0.37-.23-0.21-.51-0.52-.14,0.21-.47-0.16-1,0.05-.88,0.1-.61-0.21-.56a0.18,0.18,0,0,1,.21-0.14,1.47,1.47,0,0,1,.42.37l0.37-.14-0.05-.56-0.26-.37-0.37.28-0.31.09-0.21-.19,0.16-.28,0.36-.51-0.05-.33-0.57-.14-0.21-.19-0.63.09v-0.19l0.58-.51,0.1-.61,0.73,0.19v0.61l0.1,0.37,0.31-.09,0.31-.61-0.05-.65,0.26-.28,0.37-.14v-0.65l0.42-.33-0.05-.36-0.42-.22-0.16-.66,0.52-.93-0.1-1.2,0.31-.38-0.16-.66,0.1-.44-0.31-.11-0.52.33L128,168l0.31-.82,0.16-1.21,0.37-.49,0.05-1.26-0.37-1.2v-1.31l0.42-.22,0.1-.93,0.42-.66,0.36-.77,0.24-1,0.39-1.15,0.55-.9v-1.89l-0.31-1.81,0.47-.41-0.08-1.15-0.16-.41,0.86-3.12,0.23-1.23-0.16-2.79,0.39-.33,0.24-3.12-0.31-.33,0.08-1.89,0.81-1,0.47,0.27,0.47,1.37,0.16,1.7,0.73,2.63,0.37,0.27,0.31,0.93-0.26.77-0.57.22-0.52.44,0.1,2.41,0.1,0.49-1,1.1-0.83,2-0.16.71L132.1,154l0.58,2.3-0.1,1.75-0.73,1,0.1,1.15-0.63,1.53,0.16,2.19-0.47,1-0.63,2,0.16,2.57-0.31.44,0.1,1.31,0.52,1.7-0.58.45,0.16,0.56,0.21,0,0.21,2.19-0.47.47,0.05,0.47-0.68.37,0.1,1.3-1.15,1.12-0.26.84,0.42,1.21h0.58l0.31,0.23,0.16,1.3,0.63,0.51,2.4,0Z"/><polygon class="cls-8" points="121.03 120.43 120.56 120.76 120.72 121.53 120.56 121.97 120.87 122.29 120.87 122.51 120.53 122.73 121.08 123.39 121.71 123.47 122.49 125.11 123.2 125.93 123.67 127.74 124.29 128.97 124.37 129.47 124.92 130.04 125 130.53 125.7 131.35 125.63 131.93 125.86 133 126.64 133.33 126.88 133.66 127.98 134.56 128.76 134.56 129.86 135.87 130.64 135.95 132.29 137.6 133.1 136.64 133.67 135.16 133.26 133.08 133.99 132.81 133.72 131.11 134.3 130.83 134.25 130.4 133.2 128.97 132.21 128.65 132.11 127.28 131.84 127 129.81 127.17 129.18 126.45 129.07 125.8 128.45 124.32 129.02 123.33 128.87 122.4 130.54 121.42 131.98 121.01 132.73 120.82 132.79 120.1 132.11 120.1 132.37 118.95 131.38 118.46 129.07 118.63 127.3 116.05 126.25 115.94 125.94 116.22 126.93 116.82 126.78 117.48 125.78 118.52 124.48 119.12 123.06 120.71 123.17 121.42 122.65 121.47 122.13 120.92 121.19 120.92 121.03 120.43"/><polygon class="cls-8" points="125.94 116.22 126.93 116.82 126.78 117.48 125.78 118.52 124.48 119.12 123.06 120.71 123.17 121.42 122.65 121.47 122.13 120.92 121.19 120.92 121.03 120.43 121.08 120.1 121.65 119.94 122.23 119.83 122.33 119.23 122.18 118.73 121.92 119.01 121.44 118.95 121.08 118.46 121.08 116.87 121.6 116.44 121.6 115.07 122.07 114.79 122.54 114.63 122.96 114.63 123.8 115.23 123.75 115.78 124.16 116.05 124.53 115.89 125.36 115.89 125.94 116.22"/><polygon class="cls-8" points="111.1 99.84 109.11 99.46 108.59 98.92 109.01 97.35 110.54 97.31 111.05 97.07 111.01 96.66 110.11 95.88 110.54 95.55 110.54 94.77 111.67 94.81 112.26 95.1 112.1 96.9 112.61 97.27 113.56 97.68 113.44 97.68 113.2 98.17 111.64 99.28 111.1 99.84"/><polygon class="cls-8" points="113.97 100.67 113.98 100.8 114.42 101.01 114.77 100.72 114.69 100.06 115.67 99.53 116.18 99.53 116.89 98.75 117.83 98.67 118.65 98.5 118.26 98.26 117.47 97.44 115.59 97.52 113.56 97.68 113.44 97.68 113.2 98.17 111.64 99.28 112.98 99.66 113.61 100.45 113.97 100.67"/><polygon class="cls-8" points="118.65 98.5 117.83 98.67 116.89 98.75 116.18 99.53 115.67 99.53 114.69 100.06 114.77 100.72 114.42 101.01 113.98 100.8 113.92 101.1 114.55 101.49 115.28 102.31 115.91 103.24 117 103.31 117.83 103.39 118.34 103.6 118.42 102.77 118.26 101.79 118.34 100.8 118.65 99.57 118.65 98.5"/><polygon class="cls-8" points="111.64 99.28 112.98 99.66 113.61 100.45 113.61 100.45 113.29 100.67 112.82 100.83 111.1 99.84 111.64 99.28"/><polygon class="cls-8" points="115.91 103.24 117 103.31 117.83 103.39 118.34 103.6 119.59 104.66 119.59 105.07 119.2 105.61 119.28 106.14 118.83 106.25 118 105.43 117.58 104.66 117.06 104.33 116.74 104.5 115.96 104.01 115.91 103.24"/><polygon class="cls-8" points="125.39 106.72 125 107.33 124.37 107.4 123.9 106.96 123.64 106.09 123.01 105.76 122.44 105.98 121.97 106.14 121.81 106.53 122.02 107.07 121.24 107.68 120.87 107.29 120.24 107.02 120.19 106.63 119.28 106.14 119.2 105.61 119.59 105.07 120.45 105.81 120.92 105.89 121.86 105.4 122.49 105.16 123.35 105.24 124.14 105.81 124.76 106.47 125.39 106.72"/><polygon class="cls-8" points="132.79 120.1 132.11 120.1 132.37 118.95 131.38 118.46 129.07 118.63 127.3 116.05 126.25 115.94 125.94 116.22 125.36 115.89 124.53 115.89 124.16 116.05 123.75 115.78 123.8 115.23 122.96 114.63 123.01 113.59 123.53 112.82 124.11 112.71 124.42 112.38 124.42 112 124.89 111.4 124.74 110.63 124.58 109.54 124.58 108.22 124.37 107.4 125 107.33 125.39 106.72 125.7 106.39 125.55 105.81 126.25 105.16 126.25 104.58 126.8 104.34 126.88 103.6 127.27 103.1 127.82 103.35 128.14 103.02 130.17 102.28 130.33 101.71 131.03 101.71 131.5 101.87 131.44 102.23 130.69 102.36 129.6 103.62 129.02 105.27 129.44 105.65 130.02 106.42 129.81 106.96 130.33 107.73 132.84 108.17 133.26 108.61 134.67 108.77 135.19 109.26 135.08 110.41 134.88 110.96 135.4 112 135.14 112.71 135.66 112.99 136.03 113.64 135.97 114.68 135.29 114.41 134.62 113.75 132.79 113.97 132.68 114.35 133.52 115.07 133.2 115.56 132.73 115.5 132.89 116.76 133.31 117.15 132.79 120.1"/><polygon class="cls-8" points="135.97 114.68 136.03 113.64 135.66 112.99 135.14 112.71 135.4 112 134.88 110.96 135.08 110.41 135.19 109.26 134.67 108.77 133.26 108.61 132.84 108.17 130.33 107.73 129.81 106.96 130.02 106.42 129.44 105.65 129.02 105.27 129.6 103.62 130.69 102.36 131.44 102.23 130.72 102.77 130.56 103.35 130.72 103.76 130.41 104.58 130.72 105.48 131.43 105.24 131.43 104.42 131.11 103.68 131.35 103.1 132.6 102.77 132.44 101.95 132.84 102.04 133.15 102.45 133.62 102.45 134.41 102.86 134.41 103.51 136.99 103.76 137.46 104.09 138.17 104.25 138.72 104.09 139.42 103.51 139.89 103.43 140.6 103.6 141.22 104.58 142.01 104.5 142.87 105.08 143.26 105.65 143.89 106.14 143.81 106.96 143.13 107.24 143.08 107.79 143.39 107.95 143.34 108.28 142.61 108.44 142.61 109.05 142.61 109.7 142.82 109.92 142.56 111.02 140.83 111.67 139.58 110.91 138.85 110.96 138.74 111.56 139.11 111.78 139.06 113.2 139.84 113.1 140.05 113.37 139.94 113.86 137.85 114.9 137.02 115.18 135.97 114.68"/><polygon class="cls-8" points="143.89 106.14 143.81 106.96 143.13 107.24 143.08 107.79 143.39 107.95 143.34 108.28 142.61 108.44 142.61 109.05 142.61 109.7 142.82 109.92 143.24 110.03 144.07 110.74 144.13 111.62 143.87 112.49 143.87 113.7 144.54 114.36 145.38 114.57 146.01 114.52 146.32 114.03 146.95 113.81 147.08 113.45 147.1 112.38 146.16 111.89 146.11 110.96 146.79 110.25 146.87 109.26 146.63 108.61 146.4 108.03 145.77 107.95 145.38 107.05 144.68 106.55 143.89 106.14"/><polygon class="cls-8" points="142.82 109.92 143.24 110.03 144.07 110.74 144.13 111.62 143.87 112.49 143.87 113.7 144.54 114.36 145.38 114.57 146.01 114.52 146.32 114.03 146.95 113.81 147.08 113.45 148.04 113.48 148.25 113.04 148.57 113.1 148.78 113.31 149.87 113.26 150.4 113.42 151.75 113.64 152.28 112.93 152.8 111.78 153.06 110.82 153.3 110.99 153.69 111.89 154.08 113.04 154.63 113.53 155.18 114.03 155.02 114.93 154.55 115.18 154.16 115.5 154.55 115.75 155.18 115.67 155.57 116.08 155.96 116.16 156.59 116.41 156.2 117.23 155.25 117.72 155.25 118.05 155.8 118.05 156.82 117.15 157.06 116.66 158.16 116.74 159.33 117.39 160.38 117.37 161 118.02 160.48 118.9 160.79 119.34 161.42 118.79 162.05 118.68 163.93 119.12 165.19 119.01 166.12 119.67 167.27 119.99 168.95 121.31 171.35 121.97 171.66 122.95 171.66 125.91 171.04 126.78 170.72 127.44 170.41 127.99 169.57 128.32 169.26 128.54 168.95 129.52 168.53 130.29 167.38 130.95 167.17 131.27 166.96 133.13 167.27 134.01 166.96 135 167.17 136.31 166.33 136.75 166.12 138.06 166.02 138.83 165.71 139.16 165.6 139.92 164.98 140.88 164.86 142.2 164.07 142.44 163.92 143.02 163.21 143.26 162.7 143.1 162.23 143.39 161.49 143.47 160.74 143.47 160.23 144.13 159.76 144.33 158.98 144.21 158.08 144.99 158.04 145.32 157.73 145.44 157.22 146.01 156.63 146.26 156.43 147.74 156.63 148.4 156.47 149.67 155.61 150.74 155.1 150.86 154.78 151.52 154.58 152.3 153.73 153.94 152.98 154.76 152.9 154.43 153.58 153.78 153.69 153.28 154.11 152.46 153.84 152.3 153.01 153.23 152.75 153.78 152.28 154.49 152.59 154.98 152.59 155.36 151.44 156.57 151.34 155.97 150.6 155.31 150.24 154.71 149.51 154.38 149.25 153.72 148.83 153.5 147.42 153.34 147.1 152.63 146.53 152.3 147.26 151.48 147.42 151.15 148.36 150.16 149.09 149.5 150.45 148.25 150.66 147.92 150.08 146.6 149.61 146.55 149.72 145.78 149.98 145.29 149.92 144.3 149.25 144.03 148.62 144.3 148.57 143.15 147.1 142.5 146.27 142.06 146.11 139.27 146.16 137.73 145.69 137.02 145.8 136.09 145.33 135.82 145.28 134.89 142.87 134.5 142.77 131.71 141.67 131.49 139.42 130.12 138.64 130.01 138.06 129.69 137.96 127.77 137.07 127.17 135.81 127.58 135.24 128.65 133.2 128.97 132.21 128.65 132.11 127.28 131.84 127 129.81 127.17 129.18 126.45 129.07 125.8 128.45 124.32 129.02 123.33 128.87 122.4 130.54 121.42 131.98 121.01 132.73 120.82 132.79 120.1 133.31 117.15 132.89 116.76 132.73 115.5 133.2 115.56 133.52 115.07 132.68 114.35 132.79 113.97 134.62 113.75 135.29 114.41 135.97 114.68 137.02 115.18 137.85 114.9 139.94 113.86 140.05 113.37 139.84 113.1 139.06 113.2 139.11 111.78 138.74 111.56 138.85 110.96 139.58 110.91 140.83 111.67 142.56 111.02 142.82 109.92"/><polygon class="cls-8" points="133.1 184.49 133.99 184.63 134.04 184.35 133.78 183.97 133.52 183.56 133.41 183.14 133.67 182.58 133.57 181.97 134.04 181.51 134.14 180.95 134.61 181.09 135.08 180.81 135.08 180.34 135.08 179.65 135.61 179.41 135.92 178.99 136.13 178.72 136.65 178.2 137.07 177.97 137.28 177.74 137.12 176.67 136.13 176.62 135.66 176.39 135.19 175.41 135.24 174.94 135.61 174.43 135.97 174.34 136.23 173.97 137.33 173.88 137.64 173.69 137.64 173.16 137.8 172.61 137.64 171.73 138.69 170.91 138.32 170.59 138.53 170.26 139.06 170.37 139.42 170.31 139.37 169.44 139 169.38 138.53 169.71 138.12 169.32 137.91 167.41 138.22 167.14 138.53 167.14 139.74 167.79 140.57 167.74 141.04 167.41 141.04 165.66 141.56 165.11 141.67 164.56 143.08 164.56 143.97 164.12 145.01 164.01 145.8 163.36 146.16 163.3 146.9 162.15 147.42 161.28 146.74 160.68 146.69 160.29 147.1 159.58 146.48 158.65 146.06 158.59 145.54 158.05 145.48 157.72 145.43 156.73 145.85 156.24 146 153.78 146.06 153.17 146.53 152.3 147.26 151.48 147.42 151.15 148.36 150.16 149.09 149.5 150.45 148.25 150.66 147.92 150.08 146.6 149.61 146.55 149.35 147.64 148.62 148.3 147.16 148.52 145.95 148.47 145.49 148.3 146.63 146.49 146.69 146 145.95 145.34 144.33 144.91 143.45 144.19 142.61 144.3 141.98 143.43 141.3 142.61 140.73 142.28 139.94 142.33 139.32 142.11 138.95 142.28 138.95 142.72 138.79 143.04 138.22 143.04 137.8 142.33 136.81 141.84 136.29 141.78 135.29 142.88 135.61 143.81 135.35 144.58 134.77 144.8 134.25 145.24 134.35 147.64 134.46 148.14 133.46 149.23 132.63 151.2 132.47 151.91 132.1 154.05 132.68 156.35 132.58 158.1 131.84 159.14 131.95 160.29 131.32 161.82 131.48 164.01 131.01 165.06 130.38 167.08 130.54 169.65 130.22 170.09 130.33 171.41 130.85 173.1 130.28 173.55 130.43 174.11 130.64 174.15 130.85 176.34 130.38 176.81 130.43 177.27 129.75 177.65 129.86 178.95 128.71 180.06 128.45 180.9 128.87 182.11 129.44 182.11 129.75 182.34 129.91 183.65 130.54 184.16 132.94 184.21 133.1 184.49"/><polygon class="cls-8" points="151.44 156.57 151.39 156.84 150.71 157.66 150.71 157.94 149.98 158.81 149.04 158.87 148.2 158.65 147.26 158.21 146.58 158.26 146 157.55 145.48 157.72 145.43 156.73 145.85 156.24 146 153.78 146.06 153.17 146.53 152.3 147.1 152.63 147.42 153.34 148.83 153.5 149.25 153.72 149.51 154.38 150.24 154.71 150.6 155.31 151.34 155.97 151.44 156.57"/><polygon class="cls-8" points="11.54 2.31 11.75 2.28 12.69 2.58 13.69 2.41 14.52 2.38 14.99 2.77 15.52 2.77 15.62 2.94 15.52 3.3 14.89 3.69 13.11 3.63 12.17 3.27 11.28 2.71 11.54 2.31"/><polygon class="cls-8" points="0.88 6.39 0.26 6.32 -0.47 5.96 -0.21 5.6 0.2 5.44 1.15 5.8 1.2 6.22 0.88 6.39"/><polygon class="cls-8" points="0.88 136.97 0.83 136.7 1.14 136.59 1.41 137.08 1.14 137.19 0.88 136.97"/><polygon class="cls-8" points="1.14 137.96 1.14 137.57 1.41 137.57 1.41 137.85 1.14 137.96"/><polygon class="cls-8" points="10.6 136.29 11.39 136.21 11.39 135.71 11.15 135.3 10.21 135.38 10.13 135.96 10.6 136.29"/><polygon class="cls-8" points="11.78 134.56 12.95 133.91 12.64 133.66 12.25 133.82 11.31 134.4 11.78 134.56"/><polygon class="cls-8" points="5.58 157.89 5.19 157.39 5.19 156.82 6.37 157.89 6.68 157.89 7.23 158.46 7.23 159.04 7.7 160.1 8.09 160.51 8.25 160.27 8.17 159.69 8.64 160.27 8.88 161.25 9.66 161.75 10.52 161.58 10.84 161.01 11.46 160.84 11.46 161.75 11.15 162.24 10.99 163.63 10.45 163.39 9.74 163.39 9.66 163.72 9.9 164.21 9.51 164.7 8.56 166.76 7.86 167 7.15 166.68 7.78 166.02 7.86 165.11 7.15 164.29 6.37 164.05 6.37 163.47 7.31 163.22 7.54 162.24 7.15 160.6 6.68 159.61 5.58 157.89"/><polygon class="cls-8" points="5.43 166.1 5.43 166.76 5.82 166.76 6.05 166.35 6.6 166.43 6.45 168.15 5.82 169.14 5.43 169.71 5.19 170.53 4.17 170.86 3.63 171.6 2.76 173.55 1.27 175.02 -0.53 174.39 -1.39 174.39 -1.55 173.76 -0.92 172.34 -0.22 171.52 1.04 170.78 1.98 169.79 3.31 168.97 3.7 168.24 3.7 167.66 4.41 166.68 4.49 165.94 5.12 165.69 5.43 166.1"/><polygon class="cls-8" points="-1 39.46 -0.53 39.34 0.14 40.16 -0.33 40.36 -0.88 39.87 -1 39.46"/><polygon class="cls-8" points="38.58 94.23 39.4 93.62 39.36 93.33 39.13 93.25 38.7 92.71 38.5 92.71 38.27 93.08 38.34 93.82 38.58 94.23"/><polygon class="cls-8" points="37.99 92.14 38.19 92.14 38.15 91.93 37.95 91.85 37.68 91.89 37.99 92.14"/><polygon class="cls-8" points="37.01 91.52 37.13 91.44 37.33 91.52 37.21 91.64 37.01 91.52"/><polygon class="cls-8" points="35.84 91.23 35.95 91.15 36.23 91.32 35.99 91.36 35.84 91.23"/><polygon class="cls-8" points="34.15 90.41 34.46 90.25 34.58 90.41 34.23 90.54 34.15 90.41"/><polygon class="cls-8" points="24.66 86.76 24.82 86.64 25.14 86.8 24.9 87.05 24.66 86.76"/><polygon class="cls-8" points="31.33 12.52 31.33 12.76 31.57 13.01 31.41 13.26 30.86 12.6 31.33 12.52"/><polygon class="cls-8" points="26.91 43.12 26.86 42.9 26.65 42.85 25.82 43.56 25.76 43.78 26.13 43.72 26.91 43.12"/><polygon class="cls-8" points="25.29 43.67 24.25 44.71 24.09 44.55 24.41 44.05 24.46 43.67 24.93 43.51 25.29 43.67"/><polygon class="cls-8" points="18.34 45.75 18.24 46.08 17.51 46.57 17.09 46.46 17.19 46.24 17.93 45.86 18.03 45.7 18.34 45.75"/><polygon class="cls-8" points="18.24 46.52 18.45 46.24 19.23 46.24 19.23 46.46 18.24 46.52"/><polygon class="cls-8" points="13.85 46.68 14.21 46.63 14.79 46.79 14.79 47.17 13.69 47.06 13.85 46.68"/><polygon class="cls-8" points="15.37 46.63 15.21 47.01 15 47.28 15.15 47.39 15.68 46.9 15.68 46.73 15.37 46.63"/><polygon class="cls-8" points="10.71 46.9 11.24 47.39 10.87 47.56 10.4 47.12 10.35 46.9 10.71 46.9"/><polygon class="cls-8" points="9.15 45.91 9.46 45.97 9.35 46.35 9.04 46.52 8.68 46.41 8.94 46.19 9.15 45.91"/><polygon class="cls-8" points="3.5 44.33 4.18 44.49 4.5 44.82 4.08 44.93 3.45 44.6 3.5 44.33"/><polygon class="cls-8" points="4.23 45.37 4.81 45.42 5.07 45.7 4.5 45.7 4.23 45.37"/><polygon class="cls-8" points="26.81 29 27.49 29.38 27.54 30.15 27.12 30.31 26.7 30.58 26.08 29.98 25.66 29.87 25.61 29.43 26.29 29.27 26.81 29"/><polygon class="cls-8" points="20.59 21.06 21.43 21.17 22.58 21.17 23.57 21.82 24.25 21.93 24.14 22.21 23.41 22.43 22.94 22.64 21.74 21.88 20.75 22.15 20.43 21.61 20.59 21.06"/><polygon class="cls-8" points="41.28 34.08 42.62 33.95 42.73 33.7 42.26 33.38 41.36 33.46 41.21 33.66 41.28 34.08"/><polygon class="cls-8" points="39.87 35.06 40.5 34.98 41.05 34.65 42.34 34.61 42.5 34.94 42.26 35.31 41.44 35.84 41.44 36.13 40.74 36.21 40.5 36.5 40.07 36.29 40.07 36 39.64 35.72 39.6 35.18 39.87 35.06"/><polygon class="cls-8" points="32.92 40.38 33.29 40.06 33.13 39.89 32.87 40 32.92 40.38"/><polygon class="cls-8" points="33.55 40.44 33.86 40.22 34.02 40.33 33.71 40.77 33.55 40.44"/><polygon class="cls-8" points="45.49 5.39 44.97 5.3 43.79 5.45 43.01 5.6 42.46 5.45 42.93 5.15 41.83 4.91 42.15 4.51 41.13 4.51 40.34 4.76 39.48 4.27 38.93 4.32 38.78 4.66 38.38 4.66 37.84 4.37 38.62 3.97 38.15 3.92 37.52 3.67 36.11 4.61 34.94 4.66 34.7 4.56 33.6 5.15 32.51 5.75 32.11 5.75 31.02 6.14 30.47 6.78 30.07 8.06 29.06 8.65 26.78 8.7 26.7 9.44 26.23 9.54 26.78 9.83 27.33 10.03 28.35 10.48 29.37 11.21 29.45 11.9 29.92 12 30.39 12.05 31.41 12.05 31.72 12 32.11 12.15 31.96 12.4 31.64 12.76 32.35 13.26 32.98 12.93 33.92 12.84 34.23 13.26 33.92 13.5 32.82 13.67 32.58 14.4 32.11 14.4 31.64 14.81 30.39 14.4 29.29 14.57 29.37 14.08 29.45 13.5 28.43 13.58 27.49 13.83 27.18 14.32 26.39 14.4 26.16 15.06 25.76 15.23 25.06 15.97 25.69 16.54 26.08 16.54 26.78 16.62 27.1 16.95 26.78 17.11 26.08 17.11 27.1 18.68 28.19 18.68 28.98 18.43 29.61 18.76 30.62 18.84 31.02 18.27 31.64 18.1 32.03 17.69 32.98 18.02 32.98 18.68 32.35 18.68 32.27 18.92 32.98 19.74 33.05 20.65 32.03 21.96 31.41 21.71 30.7 22.04 29.68 22.54 29.21 22.04 28.43 23.11 28.27 24.01 27.88 24.26 27.33 25.66 27.1 25.9 27.25 26.64 27.72 27.38 28.04 27.3 28.27 27.63 28.04 28.53 27.57 28.61 29.29 30.25 30.07 30.17 30.94 29.93 30.99 29.43 31.3 29.32 31.3 30.09 31.51 30.86 31.72 32.06 31.51 32.94 32.14 32.72 33.29 32.06 33.71 32.39 34.12 32.5 34.54 33.16 34.86 33.27 35.17 32.28 35.69 32.61 36.01 32.72 36.53 32.61 37.05 32.17 37.16 32.61 36.53 34.25 36.53 35.35 35.69 35.68 34.96 36.66 33.92 37.43 33.45 37.98 33.29 38.63 32.98 38.8 32.51 38.55 31.8 38.72 30.94 39.45 30.47 40.19 29.92 40.65 29.45 40.56 28.78 40.93 28.55 41.55 28.59 41.88 29.41 41.63 30.04 41.05 30.23 40.69 30.55 40.69 31.57 40.11 31.8 39.37 32.11 39.45 32.35 39.7 32.9 39.7 33.99 39.04 34.62 38.63 35.33 38.39 35.41 38.06 37.13 36.66 37.6 36.25 37.6 35.68 38.62 34.94 39.33 34.36 40.19 33.87 40.34 32.97 40.89 32.8 40.81 31.82 40.27 31.82 40.19 31.41 40.74 30.58 41.44 30.58 41.99 29.93 41.83 29.19 43.87 26.48 44.65 26.56 45.05 26.07 45.44 26.07 45.2 27.3 44.5 27.22 43.4 28.04 43.48 28.53 42.85 30.17 42.93 30.5 43.16 30.42 43.4 30.58 43.16 30.83 42.85 30.99 42.7 31.32 43.63 31.32 44.81 30.58 45.36 29.76 45.49 5.39"/><polygon class="cls-8" points="22.68 12.11 21.34 11.12 20.71 11.22 20.09 11.07 18.99 11.07 19.23 11.56 19.15 11.91 19.46 12.15 19.23 12.45 18.21 11.76 18.68 11.37 18.52 10.68 17.5 9.94 16.95 10.04 16.95 9.64 16.41 9.54 16.41 9.3 15.7 9.15 14.13 8.36 14.13 8.11 13.58 7.77 12.88 7.77 12.8 7.47 11.78 6.83 11.07 6.73 10.29 6.34 9.74 6.34 8.41 5.9 8.1 6 7.63 5.85 6.92 5.8 6.06 5.7 5.59 5.85 4.96 5.75 2.53 5.26 2.22 5.6 2.61 5.85 2.37 6.04 2.06 6.09 1.9 6.34 3.16 7.08 2.92 7.77 1.35 7.72 1.2 7.18 0.18 7.13 -0.29 6.34 -0.68 6.09 -1.39 6.64 -3.66 6.49 -4.68 6.04 -5.23 6.24 -5.93 6.09 -6.64 6.39 -7.03 6.34 -7.27 6.44 -7.66 6.39 -7.9 6.49 -8.13 6.29 -8.52 6.34 -9.23 6.04 -9.38 5.45 -8.91 5.01 -9.15 4.32 -10.48 3.53 -11.42 3.43 -12.44 3.19 -13.7 3.23 -15.58 3.83 -16.99 3.98 -17.77 3.68 -17.85 3.28 -18.71 2.74 -19.89 2.25 -20.91 2.05 -20.98 1.71 -20.52 1.76 -20.05 1.85 -19.97 1.21 -20.44 1.17 -21.3 0.77 -23.02 0.77 -23.57 1.51 -24.51 1.95 -25.69 2.2 -25.84 1.56 -25.06 1.56 -24.91 1.02 -26.24 1.12 -26.55 0.87 -26.08 0.48 -25.06 0.48 -24.04 0.62 -26.08 -0.02 -27.18 -0.12 -28.59 -0.31 -29.45 -0.26 -29.61 -0.51 -29.92 -0.61 -30.08 -0.36 -29.84 -0.12 -30.7 0.33 -31.33 0.38 -31.8 0.28 -31.96 0.82 -30.94 0.77 -31.25 1.07 -31.33 1.81 -30.94 2.4 -31.96 2.59 -32.04 2.25 -32.59 2.1 -32.98 2.45 -33.13 2.99 -33.68 3.04 -34.62 2.4 -35.96 2.25 -37.05 2.69 -37.92 2.64 -38.86 2 -39.17 1.61 -39.8 2.4 -40.19 3.58 -40.66 4.02 -43.01 2.64 -43.17 2.2 -42.86 2 -43.25 1.61 -43.56 1.81 -44.03 1.46 -44.11 0.97 -43.33 1.21 -42.86 1.26 -42.78 0.62 -43.64 0.48 -43.95 0.33 -43.95 0.08 -43.17 0.23 -42.7 -0.17 -43.33 -0.41 -43.33 -0.81 -44.42 -1.89 -44.97 -1.99 -45.68 -1.59 -46.38 -2.09 -47.01 -1.84 -47.56 -2.14 -47.48 -2.43 -48.58 -2.63 -48.89 -2.48 -49.28 -2.58 -49.52 -2.38 -49.44 -1.99 -49.2 -1.74 -49.2 -1.1 -49.75 -1 -50.14 -1 -50.54 -0.66 -51.24 -0.66 -52.18 -0.9 -52.81 -0.95 -53.12 -0.81 -55.32 -1.4 -55.24 -1.84 -54.93 -1.94 -54.3 -1.99 -54.46 -2.23 -55.48 -2.33 -57.28 -2.43 -58.14 -2.58 -60.02 -2.19 -60.1 -1.79 -60.73 -1.69 -60.88 -2.04 -60.49 -2.28 -60.26 -2.68 -60.57 -2.97 -61.12 -3.12 -61.12 -2.58 -61.82 -2.53 -62.84 -2.73 -62.77 -3.27 -63.63 -3.17 -64.18 -3.27 -64.8 -2.83 -64.65 -2.53 -64.1 -2.53 -63.55 -2.63 -64.41 -1.84 -65.12 -1.89 -65.43 -1.69 -65.98 -1.69 -66.53 -1.4 -66.68 -1.15 -67.94 -1.1 -68.09 -0.66 -69.11 -0.21 -69.82 -0.17 -68.88 -0.76 -68.88 -1.4 -68.41 -1.64 -67.94 -1.64 -67.86 -2.19 -67.31 -2.38 -66.68 -2.38 -65.98 -3.12 -64.96 -3.62 -64.49 -3.66 -64.41 -4.06 -62.92 -4.95 -62.06 -4.95 -61.98 -5.44 -60.88 -6.08 -60.41 -6.71 -61.51 -7.17 -61.75 -7.45 -61.67 -7.6 -61.43 -7.6 -60.96 -7.28 -60.1 -7.06 -60.1 -7.74 -60.49 -7.81 -60.41 -8.45 -60.8 -8.52 -61.43 -8.1 -61.67 -8.17 -61.43 -8.56 -62.61 -9.16 -63.16 -9.23 -63.47 -9.41 -66.68 -9.27 -66.92 -8.98 -67.94 -8.88 -68.56 -9.09 -67.7 -9.45 -67.55 -9.95 -68.33 -10.09 -68.88 -9.84 -69.35 -9.88 -69.35 -10.2 -70.52 -10.23 -70.52 -10.41 -69.19 -10.52 -68.64 -10.98 -69.04 -11.34 -69.74 -11.3 -70.92 -11.62 -72.41 -11.23 -72.72 -10.98 -73.74 -10.48 -73.82 -10.13 -74.44 -9.84 -74.21 -9.48 -73.82 -9.34 -74.13 -9.27 -73.82 -8.95 -73.19 -8.91 -72.64 -8.74 -71.39 -8.84 -71.23 -8.7 -72.33 -8.52 -73.35 -8.67 -73.9 -8.74 -74.6 -8.88 -75.62 -8.77 -76.4 -8.98 -76.64 -8.84 -76.33 -8.67 -75.23 -8.24 -74.99 -7.95 -75.15 -7.45 -76.01 -7.28 -76.25 -7.67 -75.78 -7.99 -76.87 -8.38 -77.42 -8.17 -77.89 -7.85 -79.07 -7.45 -79.07 -7.74 -79.62 -7.7 -80.09 -7.45 -80.4 -7.53 -79.7 -7.95 -80.87 -8.17 -81.58 -8.06 -82.83 -8.02 -83.38 -7.88 -83.14 -7.67 -82.67 -7.6 -82.05 -7.63 -82.2 -7.45 -83.22 -7.35 -84.79 -7.28 -85.18 -7.03 -85.81 -7.1 -86.67 -6.89 -87.77 -6.78 -88.63 -6.23 -89.26 -6.21 -89.81 -6.23 -90.04 -6.03 -89.65 -5.98 -89.1 -5.93 -89.26 -5.68 -89.73 -5.39 -90.12 -4.99 -90.83 -5.29 -91.22 -4.95 -90.98 -4.6 -90.44 -4.65 -89.89 -4.45 -89.97 -4.26 -90.83 -4.3 -90.98 -3.96 -90.44 -3.91 -89.97 -3.62 -90.04 -3.27 -89.65 -2.92 -89.73 -2.48 -90.2 -2.83 -91.22 -2.83 -91.69 -2.53 -92.47 -2.53 -92.94 -2.63 -94.12 -2.43 -95.92 -2.19 -96.47 -2.19 -97.1 -1.5 -96.71 -1.15 -96.78 -0.21 -96.39 0.08 -96.47 0.52 -94.9 0.97 -94.9 1.51 -93.73 1.8 -93.49 2.45 -93.88 3.09 -93.88 3.68 -93.1 4.51 -93.26 5.01 -93.96 5.3 -92.55 6.29 -92.32 6.49 -92.71 6.68 -93.18 6.59 -93.57 6.09 -94.67 5.25 -93.88 4.66 -93.96 3.88 -94.9 4.12 -94.98 3.43 -95.37 3.23 -94.9 2.94 -94.43 2.89 -94.04 2.35 -94.2 2.15 -95.45 2.3 -96.86 1.46 -98.51 0.72 -99.53 0.72 -100.47 1.12 -100.47 1.36 -100.08 1.36 -99.61 1.26 -99.61 1.9 -100.23 1.9 -100.86 1.46 -101.49 1.56 -101.88 1.95 -101.33 2.54 -100.08 2.99 -99.53 2.94 -99.53 3.23 -99.06 3.58 -98.51 3.68 -98.59 3.97 -99.37 3.88 -100 3.48 -100.86 3.48 -102.58 2.99 -102.19 2.35 -102.66 2.1 -102.66 1.66 -102.11 1.12 -102.19 0.08 -102.9 -0.51 -103.37 -0.61 -103.6 -0.51 -103.06 -0.12 -102.9 0.38 -102.74 0.62 -102.82 1.26 -104.55 1.95 -105.02 2.89 -104 3.73 -103.68 4.61 -104.15 5.11 -104.7 5.6 -104.78 6.19 -104.47 6.83 -104.31 7.42 -103.13 7.67 -102.43 7.32 -101.1 7.57 -100.7 8.02 -100.16 8.21 -99.45 9.1 -100.23 9.59 -100.16 9.98 -99.61 10.43 -99.14 10.33 -98.67 10.53 -99.29 10.68 -100.31 10.53 -100.78 10.23 -100.47 8.95 -101.1 8.26 -101.33 7.92 -102.11 7.87 -104.07 8.61 -103.76 8.9 -103.13 9.94 -103.37 10.53 -104 10.87 -104.7 11.86 -105.72 12.45 -106.19 13.26 -106.58 12.93 -108.44 12.86 -108.44 39.05 -107.68 39.38 -107.21 40.85 -106.35 40.61 -104.86 41.26 -104.7 42.25 -103.37 42 -103.06 41.27 -102.51 40.61 -101.1 40.77 -101.1 41.59 -100.7 42.83 -99.06 43.89 -98.51 45.29 -97.49 47.18 -94.67 47.18 -93.42 47.18 -91.69 49.31 -89.5 49.97 -89.34 50.55 -89.03 50.55 -88.63 49.89 -86.75 49.48 -85.89 48.25 -85.26 48.16 -84.4 47.34 -83.77 47.34 -82.83 48 -81.81 47.92 -80.48 49.31 -80.09 49.31 -79.85 48.66 -78.99 48.66 -78.91 49.23 -77.5 49.07 -77.34 47.84 -77.82 46.77 -76.95 45.95 -76.33 45.04 -73.58 45.86 -71.7 48.58 -69.58 47.75 -66.69 48.66 -66.45 49.31 -65.04 49.89 -64.57 50.3 -62.92 49.97 -61.75 50.05 -60.41 49.15 -59.87 48.16 -58.92 48.33 -57.75 49.31 -56.45 49.15 -55.87 49.81 -54.14 48.58 -54.22 47.59 -53.67 47.26 -53.2 45.62 -52.42 44.96 -52.34 44.06 -53.12 44.14 -52.03 42.25 -49.52 41.92 -47.79 42.5 -46.62 42.74 -45.6 44.8 -45.52 45.7 -44.74 47.42 -44.5 49.07 -43.48 49.15 -42.46 49.56 -41.13 50.96 -40.66 52.6 -39.8 52.52 -39.25 52.19 -38.15 52.11 -36.9 51.28 -36.43 51.45 -36.82 53.67 -37.68 54.32 -38.23 56.87 -39.17 57.28 -40.03 57.03 -40.97 57.44 -40.5 58.92 -40.66 60.24 -42.07 60.68 -41.52 61.06 -41.18 61.3 -41.18 61.3 -40.4 61.09 -40.24 60.59 -39.88 60.32 -39.35 60.59 -39.2 60.87 -38.52 60.92 -38.15 61.14 -37.63 60.54 -36.43 60.1 -35.28 58.13 -34.34 57.09 -33.34 56.1 -33.19 54.79 -32.61 53.69 -31.52 52.49 -31.2 52.05 -30.63 50.41 -30.63 49.81 -30.47 48.6 -30.63 48 -30.47 46.69 -29.58 45.26 -29.58 44.28 -30.21 43.73 -30.26 43.35 -29.79 43.62 -29.74 43.18 -30.16 42.41 -30.68 41.87 -31.05 41.1 -32.35 40.83 -32.61 41.92 -33.08 41.98 -33.61 42.25 -33.71 42.03 -33.5 41.48 -33.76 40.88 -34.23 41.21 -34.6 41.65 -34.65 40.23 -35.49 40.01 -35.91 40.12 -36.48 39.73 -36.38 39.35 -35.65 39.08 -35.02 38.42 -34.08 37.71 -33.76 37.21 -32.93 36.17 -32.88 35.63 -31.62 34.7 -30.63 33.49 -30.42 32.83 -29.22 31.74 -29.01 31.08 -28.07 30.32 -27.07 30.1 -26.18 30.15 -25.61 29.93 -24.51 29.99 -24.83 30.37 -24.57 30.75 -24.04 30.59 -23.57 30.04 -23.16 30.37 -21.95 30.26 -21.54 30.37 -20.96 29.44 -20.18 29.39 -19.55 29.49 -18.24 29.55 -17.98 30.15 -18.4 30.43 -18.66 30.81 -18.3 31.08 -17.72 30.75 -17.04 30.97 -16.26 30.32 -15.79 30.92 -15.37 30.97 -15.26 30.48 -14.43 30.32 -14.43 29.66 -14.9 29.39 -15.42 29.6 -15.47 28.89 -15.05 28.51 -14.64 27.85 -13.8 27.2 -13.8 26.76 -12.7 25.77 -12.86 25 -12.07 24.4 -10.72 24.35 -10.25 23.91 -9.62 24.4 -9.41 24.24 -9.15 23.91 -8.73 24.29 -8.84 25.06 -9.41 25.77 -9.15 26.1 -8.89 26.21 -8.84 27.03 -8.37 27.03 -8.05 26.1 -6.95 25.17 -6.75 24.84 -5.81 24.79 -5.65 24.29 -5.91 23.91 -5.33 22.38 -4.29 21.88 -3.61 22.6 -4.34 22.87 -4.6 23.86 -4.81 24.4 -4.97 25.77 -5.13 26.05 -5.18 26.65 -6.95 27.41 -7.22 28.07 -8.26 29.49 -8.84 29.6 -8.94 30.54 -10.14 31.63 -10.19 32.01 -10.87 32.62 -11.29 32.78 -11.66 33.27 -12.6 33.27 -12.81 35.19 -12.96 35.52 -13.75 36.5 -13.9 38.53 -13.75 40.5 -13.7 41.54 -13.44 42.25 -13.02 44.11 -12.91 45.1 -12.96 46.14 -12.7 46.91 -12.91 47.23 -12.44 47.13 -10.66 44.72 -10.56 44.11 -10.35 43.07 -9.67 42.85 -9.04 43.07 -8.84 42.63 -9.1 41.21 -7.69 40.01 -7.48 40.34 -7.01 40.17 -6.69 39.35 -7.06 38.8 -7.22 38.47 -6.75 37.16 -6.01 36.34 -6.01 37.16 -5.44 37.16 -5.18 36.89 -5.49 35.74 -6.01 35.46 -6.07 34.48 -5.34 33.77 -5.44 33.49 -6.17 33.16 -6.33 33.55 -6.9 32.94 -6.59 31.68 -6.17 31.47 -5.6 30.54 -5.39 29.44 -4.6 28.62 -4.08 28.67 -3.66 28.95 -3.25 28.34 -2.77 27.96 -2.2 27.41 -2.1 27.63 -2.51 28.45 -2.46 29.27 -1.89 28.84 -1.42 27.85 0.52 26.92 1.51 27.47 1.77 28.02 1.88 28.67 2.4 28.34 2.56 27.8 3.29 26.92 4.38 26.32 4.7 25.66 5.27 25.5 5.9 24.68 6.53 24.57 7.31 23.75 8.72 23.42 9.14 22.7 10.39 22.49 11.02 22.87 12.07 23.09 12.12 22.6 12.43 21.77 12.12 21.5 12.01 20.46 11.6 20.08 11.6 18.65 11.18 18.33 11.23 17.83 10.87 17.67 10.71 18.16 10.08 17.61 9.72 17.34 9.04 17.18 8.72 16.41 9.25 16.46 9.51 16.85 9.72 16.63 9.25 16.19 9.72 15.92 10.24 16.52 10.5 17.07 11.96 16.96 12.43 16.35 12.75 16.14 13.58 15.1 13.37 14.38 12.96 13.18 13.58 12.74 13.84 12.85 14.42 12.58 14.47 13.12 14.37 13.62 14.31 14.49 14.68 14.93 15.46 14.88 16.2 14.77 17.03 15.1 17.24 15.42 17.4 16.79 18.29 16.63 18.86 16.96 19.38 17.78 20.01 18.16 21 17.72 20.48 17.23 20.53 16.57 21.27 15.97 20.85 15.48 21.11 15.26 21.27 14.88 22.68 14.55 23.04 14.11 23.15 13.51 23.85 13.43 24.01 12.85 22.68 12.11"/><polyline class="cls-9" points="133.1 184.49 132.94 184.21 130.54 184.16 129.91 183.65 129.75 182.34 129.44 182.11 128.87 182.11 128.45 180.9 128.71 180.06 129.86 178.95 129.75 177.65 130.43 177.27 130.38 176.81 130.85 176.34 130.64 174.15 130.43 174.11 130.28 173.55 130.85 173.1 130.33 171.41 130.22 170.09 130.54 169.65 130.38 167.08 131.01 165.06 131.48 164.01 131.32 161.82 131.95 160.29 131.84 159.14 132.58 158.1 132.68 156.35 132.1 154.05 132.47 151.91 132.63 151.2 133.46 149.23 134.46 148.14 134.35 147.64 134.25 145.24 134.77 144.8 135.35 144.58 135.61 143.81 135.29 142.88 134.93 142.61 134.2 139.98 134.04 138.28 133.57 136.91 133.1 136.64 132.29 137.6"/><polyline class="cls-9" points="135.29 142.88 136.29 141.78 136.81 141.84 137.8 142.33 138.22 143.04 138.79 143.04 138.95 142.72 138.95 142.28 139.32 142.11 139.94 142.33 140.73 142.28 141.3 142.61 141.98 143.43 142.61 144.3 143.45 144.19 144.33 144.91 145.95 145.34 146.69 146 146.63 146.49 145.49 148.3 145.95 148.47 147.16 148.52 148.62 148.3 149.35 147.64 149.61 146.55 150.08 146.6 150.66 147.92 150.45 148.25 149.09 149.5 148.36 150.16 147.42 151.15 147.26 151.48 146.53 152.3 147.1 152.63 147.42 153.34 148.83 153.5 149.25 153.72 149.51 154.38 150.24 154.71 150.6 155.31 151.34 155.97 151.44 156.57"/><polyline class="cls-9" points="146.53 152.3 146.06 153.17 146 153.78 145.85 156.24 145.43 156.73 145.48 157.72"/><polyline class="cls-9" points="149.61 146.55 149.72 145.78 149.98 145.29 149.92 144.3 149.25 144.03 148.62 144.3 148.57 143.15 147.1 142.5 146.27 142.06 146.11 139.27 145.28 138.56 142.77 138.61 141.51 139.16 141.25 139.81 141.04 141.29 140.73 142.28"/><polyline class="cls-9" points="133.1 136.64 133.67 135.16 133.26 133.08 133.99 132.81 133.72 131.11 134.3 130.83 134.25 130.4 133.2 128.97 135.24 128.65 135.81 127.58 137.07 127.17 137.96 127.77 138.06 129.69 138.64 130.01 139.42 130.12 141.67 131.49 142.77 131.71 142.87 134.5 145.28 134.89 145.33 135.82 145.8 136.09 145.69 137.02 146.16 137.73 146.11 139.27"/><polyline class="cls-9" points="133.2 128.97 132.21 128.65 132.11 127.28 131.84 127 129.81 127.17 129.18 126.45 129.07 125.8 128.45 124.32 129.02 123.33 128.87 122.4 130.54 121.42 131.98 121.01 132.73 120.82 132.79 120.1 132.11 120.1 132.37 118.95 131.38 118.46 129.07 118.63 127.3 116.05 126.25 115.94 125.94 116.22 126.93 116.82 126.78 117.48 125.78 118.52 124.48 119.12 123.06 120.71 123.17 121.42 122.65 121.47 122.13 120.92 121.19 120.92 121.03 120.43"/><polyline class="cls-9" points="125.94 116.22 125.36 115.89 124.53 115.89 124.16 116.05 123.75 115.78 123.8 115.23 122.96 114.63"/><polyline class="cls-9" points="132.79 120.1 133.31 117.15 132.89 116.76 132.73 115.5 133.2 115.56 133.52 115.07 132.68 114.35 132.79 113.97 134.62 113.75 135.29 114.41 135.97 114.68 136.03 113.64 135.66 112.99 135.14 112.71 135.4 112 134.88 110.96 135.08 110.41 135.19 109.26 134.67 108.77 133.26 108.61 132.84 108.17 130.33 107.73 129.81 106.96 130.02 106.42 129.44 105.65 129.02 105.27 129.6 103.62 130.69 102.36 131.44 102.23"/><polyline class="cls-9" points="135.97 114.68 137.02 115.18 137.85 114.9 139.94 113.86 140.05 113.37 139.84 113.1 139.06 113.2 139.11 111.78 138.74 111.56 138.85 110.96 139.58 110.91 140.83 111.67 142.56 111.02 142.82 109.92 142.61 109.7 142.61 109.05 142.61 108.44 143.34 108.28 143.39 107.95 143.08 107.79 143.13 107.24 143.81 106.96 143.89 106.14"/><polyline class="cls-9" points="142.82 109.92 143.24 110.03 144.07 110.74 144.13 111.62 143.87 112.49 143.87 113.7 144.54 114.36 145.38 114.57 146.01 114.52 146.32 114.03 146.95 113.81 147.08 113.45 147.1 112.38 146.16 111.89 146.11 110.96 146.79 110.25 146.87 109.26"/><polyline class="cls-9" points="147.08 113.45 148.04 113.48 148.25 113.04 148.57 113.1 148.78 113.31 149.87 113.26 150.29 112.33 149.82 111.02 150.13 109.97 150.4 109.76 150.4 109.34"/><polyline class="cls-9" points="124.37 107.4 125 107.33 125.39 106.72"/><polyline class="cls-9" points="119.28 106.14 119.2 105.61 119.59 105.07"/><polyline class="cls-9" points="118.34 103.6 117.83 103.39 117 103.31 115.91 103.24"/><polyline class="cls-9" points="113.98 100.8 114.42 101.01 114.77 100.72 114.69 100.06 115.67 99.53 116.18 99.53 116.89 98.75 117.83 98.67 118.65 98.5"/><polyline class="cls-9" points="113.44 97.68 113.2 98.17 111.64 99.28 111.1 99.84"/><polyline class="cls-9" points="108.59 98.92 109.01 97.35 110.54 97.31 111.05 97.07 111.01 96.66 110.11 95.88 110.54 95.55 110.54 94.77 111.67 94.81 112.26 95.1 112.1 96.9 112.61 97.27"/><polyline class="cls-9" points="112.26 95.1 112.72 94.41 113.71 94.6"/><polyline class="cls-9" points="103.36 85.28 102.31 85.08 101.05 84.05 100.9 83.31 99.45 80.89 97.8 80.03 97.09 80.6 97.21 81.17 96.98 81.34 96.23 81.05 95.37 80.19 95.29 79.16 94.9 78.75 94.51 78.75 93.49 77.72 92.39 77.48 91.37 77.44 91.14 78.14 90.12 78.42 87.77 78.38 87.14 78.26 85.61 77.27 83.92 76.45 82 76.53 81.42 76.74"/><polyline class="cls-9" points="130.92 92.88 130.92 93.99 130.72 94.81"/><polyline class="cls-9" points="75.54 51.77 106.03 51.77 106.97 52.43 108.23 52.68 109.25 53.17 110.58 53.09 111.44 53.33 113.56 53.17 117 55.06 117.79 56.7 119.83 58.92 119.91 60.4 119.31 62.29 119.67 63.35 122.81 61.79 123.2 60.81 126.1 59.74 127.51 58.51 128.14 57.93 129.16 57.93 129.78 58.1 131.74 57.69 133.23 54.73 133.86 54.4 135.19 54.98 135.19 56.45 135.9 57.61 136.01 58.76"/><polyline class="cls-9" points="66.76 40.69 67.05 40.28 66.94 39.4 67.15 38.3 65.69 37.32 64.85 36.44 63.49 33.16 62.76 32.61 61.93 31.08 61.09 30.42 60.25 30.64 59.42 31.62 58.9 31.62 57.22 29 56.7 28.34 56.28 28.67 56.07 29.43 54.85 28.56 54.85 7.08"/><polyline class="cls-9" points="111.64 99.28 112.98 99.66 113.61 100.45"/><polygon class="cls-8" points="11.55 2.31 11.76 2.28 12.7 2.57 13.69 2.41 14.53 2.38 15 2.77 15.52 2.77 15.62 2.93 15.52 3.3 14.89 3.69 13.12 3.62 12.17 3.26 11.29 2.71 11.55 2.31"/><polygon class="cls-8" points="0.89 6.38 0.26 6.32 -0.47 5.96 -0.21 5.6 0.21 5.43 1.15 5.79 1.2 6.22 0.89 6.38"/><polygon class="cls-8" points="0.89 136.97 0.83 136.69 1.15 136.58 1.41 137.08 1.15 137.19 0.89 136.97"/><polygon class="cls-8" points="1.15 137.95 1.15 137.57 1.41 137.57 1.41 137.84 1.15 137.95"/><polygon class="cls-8" points="10.6 136.28 11.39 136.2 11.39 135.71 11.15 135.3 10.21 135.38 10.13 135.95 10.6 136.28"/><polygon class="cls-8" points="11.78 134.56 12.96 133.9 12.64 133.65 12.25 133.82 11.31 134.39 11.78 134.56"/><polygon class="cls-8" points="5.59 157.88 5.2 157.39 5.2 156.81 6.37 157.88 6.68 157.88 7.23 158.46 7.23 159.03 7.7 160.1 8.1 160.51 8.25 160.26 8.17 159.69 8.64 160.26 8.88 161.25 9.66 161.74 10.53 161.58 10.84 161 11.47 160.84 11.47 161.74 11.15 162.23 11 163.63 10.45 163.38 9.74 163.38 9.66 163.71 9.9 164.2 9.51 164.7 8.57 166.75 7.86 167 7.16 166.67 7.78 166.01 7.86 165.11 7.16 164.29 6.37 164.04 6.37 163.47 7.31 163.22 7.55 162.23 7.16 160.59 6.68 159.61 5.59 157.88"/><polygon class="cls-8" points="5.43 166.09 5.43 166.75 5.82 166.75 6.06 166.34 6.61 166.42 6.45 168.15 5.82 169.13 5.43 169.71 5.2 170.53 4.18 170.86 3.63 171.6 2.77 173.55 1.28 175.01 -0.53 174.38 -1.39 174.38 -1.55 173.76 -0.92 172.34 -0.21 171.51 1.04 170.77 1.98 169.79 3.31 168.97 3.71 168.23 3.71 167.65 4.41 166.67 4.49 165.93 5.12 165.68 5.43 166.09"/><polygon class="cls-8" points="-0.99 39.45 -0.53 39.33 0.14 40.15 -0.33 40.36 -0.88 39.86 -0.99 39.45"/><polygon class="cls-8" points="0.89 136.97 0.83 136.69 1.15 136.58 1.41 137.08 1.15 137.19 0.89 136.97"/><polygon class="cls-8" points="1.15 137.95 1.15 137.57 1.41 137.57 1.41 137.84 1.15 137.95"/><polygon class="cls-8" points="10.6 136.28 11.39 136.2 11.39 135.71 11.15 135.3 10.21 135.38 10.13 135.95 10.6 136.28"/><polygon class="cls-8" points="11.78 134.56 12.96 133.9 12.64 133.65 12.25 133.82 11.31 134.39 11.78 134.56"/><polygon class="cls-8" points="5.59 157.88 5.2 157.39 5.2 156.81 6.37 157.88 6.68 157.88 7.23 158.46 7.23 159.03 7.7 160.1 8.1 160.51 8.25 160.26 8.17 159.69 8.64 160.26 8.88 161.25 9.66 161.74 10.53 161.58 10.84 161 11.47 160.84 11.47 161.74 11.15 162.23 11 163.63 10.45 163.38 9.74 163.38 9.66 163.71 9.9 164.2 9.51 164.7 8.57 166.75 7.86 167 7.16 166.67 7.78 166.01 7.86 165.11 7.16 164.29 6.37 164.04 6.37 163.47 7.31 163.22 7.55 162.23 7.16 160.59 6.68 159.61 5.59 157.88"/><polygon class="cls-8" points="5.43 166.09 5.43 166.75 5.82 166.75 6.06 166.34 6.61 166.42 6.45 168.15 5.82 169.13 5.43 169.71 5.2 170.53 4.18 170.86 3.63 171.6 2.77 173.55 1.28 175.01 -0.53 174.38 -1.39 174.38 -1.55 173.76 -0.92 172.34 -0.21 171.51 1.04 170.77 1.98 169.79 3.31 168.97 3.71 168.23 3.71 167.65 4.41 166.67 4.49 165.93 5.12 165.68 5.43 166.09"/><polygon class="cls-8" points="38.58 94.23 39.4 93.61 39.37 93.32 39.13 93.24 38.7 92.71 38.5 92.71 38.27 93.08 38.35 93.82 38.58 94.23"/><polygon class="cls-8" points="37.99 92.13 38.19 92.13 38.15 91.93 37.95 91.84 37.68 91.89 37.99 92.13"/><polygon class="cls-8" points="37.01 91.52 37.13 91.43 37.33 91.52 37.21 91.64 37.01 91.52"/><polygon class="cls-8" points="35.84 91.23 35.95 91.15 36.23 91.31 35.99 91.35 35.84 91.23"/><polygon class="cls-8" points="34.15 90.41 34.47 90.24 34.58 90.41 34.23 90.53 34.15 90.41"/><polygon class="cls-8" points="24.67 86.75 24.82 86.63 25.14 86.79 24.9 87.04 24.67 86.75"/><polygon class="cls-8" points="31.33 12.51 31.33 12.76 31.57 13 31.41 13.25 30.86 12.59 31.33 12.51"/><polygon class="cls-8" points="26.92 43.12 26.86 42.9 26.66 42.84 25.82 43.55 25.77 43.77 26.13 43.72 26.92 43.12"/><polygon class="cls-8" points="25.3 43.66 24.25 44.7 24.09 44.54 24.41 44.05 24.46 43.66 24.93 43.5 25.3 43.66"/><polygon class="cls-8" points="18.34 45.74 18.24 46.07 17.51 46.56 17.09 46.45 17.2 46.24 17.93 45.85 18.03 45.69 18.34 45.74"/><polygon class="cls-8" points="18.24 46.51 18.45 46.24 19.23 46.24 19.23 46.45 18.24 46.51"/><polygon class="cls-8" points="13.85 46.67 14.22 46.62 14.79 46.78 14.79 47.17 13.69 47.06 13.85 46.67"/><polygon class="cls-8" points="15.37 46.62 15.21 47 15 47.28 15.16 47.39 15.68 46.89 15.68 46.73 15.37 46.62"/><polygon class="cls-8" points="10.72 46.89 11.24 47.39 10.87 47.55 10.4 47.11 10.35 46.89 10.72 46.89"/><polygon class="cls-8" points="9.15 45.91 9.46 45.96 9.36 46.35 9.04 46.51 8.68 46.4 8.94 46.18 9.15 45.91"/><polygon class="cls-8" points="3.5 44.32 4.18 44.48 4.5 44.81 4.08 44.92 3.45 44.59 3.5 44.32"/><polygon class="cls-8" points="4.24 45.36 4.81 45.41 5.07 45.69 4.5 45.69 4.24 45.36"/><polygon class="cls-8" points="26.81 28.99 27.49 29.37 27.54 30.14 27.13 30.3 26.71 30.58 26.08 29.98 25.66 29.87 25.61 29.43 26.29 29.26 26.81 28.99"/><polygon class="cls-8" points="20.59 21.05 21.43 21.16 22.58 21.16 23.57 21.82 24.25 21.93 24.15 22.2 23.41 22.42 22.95 22.64 21.74 21.87 20.75 22.15 20.44 21.6 20.59 21.05"/><polygon class="cls-8" points="41.29 34.07 42.62 33.95 42.74 33.7 42.27 33.37 41.36 33.45 41.21 33.66 41.29 34.07"/><polygon class="cls-8" points="39.88 35.05 40.5 34.97 41.05 34.64 42.34 34.6 42.5 34.93 42.27 35.3 41.44 35.84 41.44 36.12 40.74 36.2 40.5 36.49 40.07 36.29 40.07 36 39.64 35.71 39.6 35.18 39.88 35.05"/><polygon class="cls-8" points="32.92 40.38 33.29 40.05 33.13 39.88 32.87 39.99 32.92 40.38"/><polygon class="cls-8" points="33.55 40.43 33.87 40.21 34.02 40.32 33.71 40.76 33.55 40.43"/><polygon class="cls-8" points="45.49 5.38 44.97 5.3 43.8 5.44 43.01 5.59 42.46 5.44 42.93 5.15 41.84 4.9 42.15 4.51 41.13 4.51 40.35 4.75 39.48 4.26 38.94 4.31 38.78 4.66 38.39 4.66 37.84 4.36 38.62 3.96 38.15 3.92 37.52 3.67 36.11 4.61 34.94 4.66 34.7 4.56 33.6 5.15 32.51 5.74 32.12 5.74 31.02 6.13 30.47 6.77 30.08 8.06 29.06 8.65 26.79 8.7 26.71 9.44 26.24 9.53 26.79 9.83 27.34 10.03 28.35 10.47 29.37 11.21 29.45 11.9 29.92 12 30.39 12.05 31.41 12.05 31.72 12 32.12 12.15 31.96 12.39 31.64 12.76 32.35 13.25 32.98 12.92 33.92 12.84 34.23 13.25 33.92 13.5 32.82 13.66 32.59 14.4 32.12 14.4 31.64 14.81 30.39 14.4 29.29 14.56 29.37 14.07 29.45 13.5 28.43 13.58 27.49 13.82 27.18 14.32 26.39 14.4 26.16 15.06 25.77 15.22 25.06 15.96 25.69 16.53 26.08 16.53 26.79 16.62 27.1 16.95 26.79 17.11 26.08 17.11 27.1 18.67 28.2 18.67 28.98 18.42 29.61 18.75 30.63 18.83 31.02 18.26 31.64 18.09 32.04 17.68 32.98 18.01 32.98 18.67 32.35 18.67 32.27 18.92 32.98 19.74 33.06 20.64 32.04 21.95 31.41 21.71 30.7 22.04 29.69 22.53 29.22 22.04 28.43 23.1 28.27 24.01 27.88 24.25 27.34 25.65 27.1 25.9 27.25 26.64 27.73 27.38 28.04 27.29 28.27 27.62 28.04 28.52 27.57 28.61 29.29 30.25 30.08 30.17 30.94 29.92 30.99 29.43 31.31 29.32 31.31 30.09 31.51 30.85 31.72 32.06 31.51 32.93 32.14 32.71 33.29 32.06 33.71 32.38 34.13 32.49 34.55 33.15 34.86 33.26 35.17 32.28 35.7 32.6 36.01 32.71 36.53 32.6 37.05 32.17 37.16 32.6 36.53 34.25 36.53 35.34 35.7 35.67 34.96 36.66 33.92 37.42 33.45 37.97 33.29 38.63 32.98 38.79 32.51 38.54 31.8 38.71 30.94 39.45 30.47 40.19 29.92 40.64 29.45 40.56 28.78 40.93 28.55 41.54 28.59 41.87 29.41 41.62 30.04 41.05 30.23 40.68 30.55 40.68 31.57 40.1 31.8 39.37 32.12 39.45 32.35 39.69 32.9 39.69 34 39.04 34.62 38.63 35.33 38.38 35.41 38.05 37.13 36.66 37.6 36.25 37.6 35.67 38.62 34.93 39.33 34.36 40.19 33.86 40.35 32.96 40.89 32.8 40.82 31.81 40.27 31.81 40.19 31.4 40.74 30.58 41.44 30.58 41.99 29.92 41.84 29.18 43.87 26.47 44.66 26.55 45.05 26.06 45.44 26.06 45.21 27.29 44.5 27.21 43.4 28.03 43.48 28.52 42.85 30.17 42.93 30.5 43.17 30.41 43.4 30.58 43.17 30.82 42.85 30.99 42.7 31.32 43.64 31.32 44.81 30.58 45.36 29.76 45.49 5.38"/><path class="cls-8" d="M22.68,12.1l-1.33-1-0.63.1-0.63-.15H19l0.23,0.49-0.08.34,0.31,0.25-0.24.29-1-.69,0.47-.39-0.16-.69-1-.74L17,10V9.64l-0.55-.1V9.29L15.7,9.14l-1.57-.79V8.11l-0.55-.34H12.88l-0.08-.3-1-.64-0.71-.1-0.78-.39H9.74L8.41,5.89,8.1,6,7.63,5.84l-0.71,0-0.86-.1-0.47.15L5,5.74,2.53,5.25,2.22,5.6,2.61,5.84,2.38,6l-0.31,0-0.16.25L3.16,7.07l-0.24.69-1.57,0L1.2,7.17l-1,0-0.47-.79-0.39-.25-0.71.54-2.27-.15-1-.44-0.55.2-0.71-.15-0.71.3L-7,6.33l-0.24.1-0.39,0-0.23.1-0.24-.2-0.39,0L-9.23,6l-0.16-.59L-8.91,5l-0.24-.69-1.33-.79-0.94-.1-1-.25-1.25.05-1.88.59L-17,4l-0.78-.3-0.08-.39-0.86-.54-1.18-.49-1-.2L-21,1.7l0.47,0L-20,1.85-20,1.21l-0.47,0L-21.3.77H-23l-0.55.74-0.94.44-1.18.25-0.16-.64h0.78L-24.9,1l-1.33.1L-26.55.86l0.47-.39h1l1,0.15-2-.64-1.1-.1-1.41-.2-0.86,0L-29.6-.52l-0.31-.1-0.16.25,0.24,0.25L-30.7.32l-0.63,0L-31.8.27-32,.81l1,0-0.31.3-0.08.74,0.39,0.59-1,.2L-32,2.24l-0.55-.15L-33,2.44-33.13,3l-0.55,0-0.94-.64L-36,2.24l-1.1.44-0.86,0L-38.85,2l-0.31-.39-0.63.79-0.39,1.18L-40.66,4-43,2.64l-0.16-.44,0.31-.2-0.39-.39-0.31.2L-44,1.46-44.11,1l0.78,0.25,0.47,0,0.08-.64L-43.64.47-43.95.32V0.08L-43.17.22l0.47-.39-0.63-.25V-0.81l-1.1-1.08L-45-2l-0.71.39-0.71-.49L-47-1.85l-0.55-.29,0.08-.3-1.1-.2-0.31.15-0.39-.1-0.24.2L-49.44-2l0.23,0.25v0.64l-0.55.1h-0.39l-0.39.35h-0.71l-0.94-.25-0.63,0-0.31.15-2.19-.59,0.08-.44,0.31-.1,0.63,0-0.16-.25-1-.1-1.8-.1-0.86-.15L-60-2.19l-0.08.39-0.63.1L-60.88-2l0.39-.25,0.24-.39L-60.57-3l-0.55-.15v0.54l-0.71,0-1-.2,0.08-.54-0.86.1-0.55-.1-0.63.44,0.16,0.29h0.55l0.55-.1-0.86.79-0.71,0-0.31.2H-66l-0.55.3-0.16.25-1.25.05-0.16.44-1,.44-0.71,0,0.94-.59V-1.4l0.47-.25h0.47l0.08-.54,0.55-.2h0.63L-66-3.13l1-.49,0.47,0,0.08-.39L-62.92-5h0.86L-62-5.44l1.1-.64,0.47-.63-1.1-.46-0.23-.29,0.08-.14h0.23L-61-7.28l0.86,0.21V-7.74l-0.39-.07,0.08-.64-0.39-.07-0.63.43-0.23-.07,0.23-.39-1.18-.61-0.55-.07-0.31-.18-3.21.14L-66.92-9l-1,.11-0.63-.21,0.86-.36,0.16-.5-0.78-.14-0.55.25-0.47,0V-10.2l-1.18,0v-0.18l1.33-.11,0.55-.46L-69-11.34l-0.71,0-1.18-.32-1.49.39-0.31.25-1,.5-0.08.36-0.63.29,0.24,0.36,0.39,0.14-0.31.07L-73.82-9l0.63,0,0.55,0.18,1.25-.11,0.16,0.14-1.1.18-1-.14-0.55-.07-0.71-.14-1,.11L-76.4-9l-0.24.14,0.31,0.18,1.1,0.43L-75-8l-0.16.5L-76-7.28l-0.24-.39L-75.77-8l-1.1-.39-0.55.21-0.47.32-1.18.39V-7.74l-0.55,0-0.47.25-0.31-.07L-79.69-8l-1.18-.21-0.71.11-1.25,0-0.55.14,0.23,0.21,0.47,0.07,0.63,0-0.16.18-1,.11-1.57.07L-85.18-7l-0.63-.07-0.86.21-1.1.11-0.86.55-0.63,0-0.55,0L-90-6l0.39,0,0.55,0-0.16.25-0.47.3L-90.12-5l-0.71-.3L-91.22-5-91-4.61l0.55-.05,0.55,0.2-0.08.2-0.86,0L-91-4l0.55,0L-90-3.62-90-3.28l0.39,0.35-0.08.44-0.47-.34h-1l-0.47.29h-0.78l-0.47-.1-1.18.2-1.8.25h-0.55l-0.63.69,0.39,0.34-0.08.94,0.39,0.3-0.08.44L-94.9,1V1.5l1.18,0.3,0.24,0.64-0.39.64V3.67l0.78,0.84L-93.26,5-94,5.3l1.41,1,0.23,0.2-0.39.2-0.47-.1-0.39-.49-1.1-.84,0.78-.59L-94,3.87l-0.94.25L-95,3.43l-0.39-.2,0.47-.3,0.47,0L-94,2.34l-0.16-.2-1.25.15-1.41-.84L-98.51.72h-1l-0.94.39V1.36h0.39l0.47-.1V1.9h-0.63l-0.63-.44-0.63.1-0.39.39,0.55,0.59L-100.07,3l0.55,0v0.3l0.47,0.34,0.55,0.1L-98.58,4l-0.78-.1L-100,3.47h-0.86L-102.58,3l0.39-.64-0.47-.25V1.65l0.55-.54-0.08-1-0.71-.59-0.47-.1-0.24.1,0.55,0.39L-102.9.37l0.16,0.25-0.08.64-1.72.69-0.47.94,1,0.84,0.31,0.89-0.47.49-0.55.49-0.08.59,0.31,0.64,0.16,0.59,1.18,0.25,0.7-.34,1.33,0.25L-100.7,8l0.55,0.2,0.71,0.89-0.78.49,0.08,0.39,0.55,0.44,0.47-.1,0.47,0.2-0.63.15-1-.15-0.47-.29,0.31-1.28-0.63-.69-0.23-.34-0.78,0-2,.74,0.31,0.3,0.63,1-0.24.59-0.63.35-0.71,1-1,.59-0.47.81-0.39-.33-2-.08-0.78-.64-0.78,0-0.23-.25,0.31-.15h0.78l0.55-.15,0.47,0.2,0.63,0.54,0.86-.39V11.61l0.47-.3-0.08-.29,0.94-.59,0.47-.84-0.24-.35,0.86-.64-0.78-.15-0.71-.69,0.39-.64-0.39-.3V5.35l0.71-.49-0.55-.25-0.08-1.38-0.94-.15,0.08-.54,1.25-1,0.08-.54-0.24-.1L-105.4,0l-1.1-.59-1.18.1-0.7-.25-0.86.2-0.55,2-0.86,1.18-1,.94-0.31.69,0.23,0.15-0.08,1.38-0.24.1,0.24,0.84,0.39-.2L-110.73,7l-0.16.4L-110.11,8l0.63,0-0.08.69-1,.64-0.31-.2L-111,8.65l-0.71-.44h-0.55l-0.63-.39-0.71-.15-0.63-.39-1.25-.59-3.06-.39-0.78.54,0.47,0.44-0.08.89-0.94.25,0.08,0.35-0.47.2-0.47-.25,0.08-.59-0.63-.25-0.63.39-0.63,0-0.63.39H-124l-0.08-.15h-0.63l-0.55.39,0.08,0.34h-0.63L-126,9.14l-0.63.25-0.31-.3,0.63-.39-0.24-.39,0.39-.34L-127,8l-0.63.34-0.47.15L-128,8.85l-0.47.2-0.08-.29-0.39-.1-1.1.3-0.63.54-0.71.44h-0.86v0.44l-0.31,0-0.47-.3-0.31.1,0.08,0.54-0.08.64-1,.35-1.33-.35-0.08-.35-0.63-.44,0.47-.25,0.08-.25,1.49-.3L-135,9l-1.33-.39-1.41-.2-0.47,0-0.08.3,0.7,0.39,0.39,0.3v0.94l-0.39.29v0.39l0.78,0.39-0.55,1.88-1.33-.94-1.1-.1-0.08.88-0.94.57L-142.25,15l0.86,1.81-0.31.66-1.18.08-1.57-.74-0.39-.66-0.55-.08-0.31,1,0.78,1.15,0.47,0.16,0.47,0.41-0.23.49-1.41.16-1-1.15-0.86.25-0.08-.66,0.16-1.4-0.63-.74,0.63-.9-0.16-.82-1.25-1.4-1.41-.94,0.08-.54,1.33,0.84,0.71,0,1,0.49,1.41,0.53,1.57,0.57,1.33,0.08,2.27-1.68V10.37L-141,10l-0.63-.39h-0.47l-0.39-.35L-143.11,9l-1.33-.49L-146,7.61l-1.65-.44-1.1.2-0.47-.29-0.71-.1-0.31-.29,0.78-.1V6.28l-0.86-.3-0.63,0v0.3h-0.55l-1.49.59-0.08.25-0.55.29-0.71.89V9l0.94,0.54,0.47,1-0.78.89,1.1,1.71-0.16,1.4,0.24,0.9-0.31,1.07,0.55,0.41-0.31.57,0.47,0.9v0.74l-0.39.74,0.16,0.66,0.78,0.25,0.86,1.23-2,2.46-1.18,1.72-0.26,1.18-0.1.82,0.52,0.27,0.78-.05,0.52,0.16-0.16.71-1.2-.11-0.16.27h-0.68l0.05,0.38-0.57.49-0.31,1.86,0.39,1v0.9l-0.08,1.23,0.47,0.66-0.08,1.48,0.71,0.08,0.63,0.57,0.55-.16,0.78,0.08,0.39,0.66,0.16,1.81,0.55,1.07,1.18,1.15-0.24.82h-0.47l-0.47-.33h-0.55l0.16,0.74,0.47,0.49,0.24,0.82,0.78-.41,1.49,0.16,0.47,1.89,0.78,0.16,0.08,0.66,0.47,0.57,1.8-.08,0.86,0.74h0.71l0.62,0.58,0.95,0.89-0.63.82-0.16,1.4-0.47-.08-0.78.82-0.68,1.26,1.1-.38,0.16,0.22-1,.55,0.37,0.71-0.1.33-0.57.6-0.05.28-0.68.05,0.1,0.38,0.21,0.38,0.42,0.22,0.37,0.44h0.52l1,1.2,0.58,0.44,1.46,0.38,1.65,0.25,0.55-.16,1.49,0.74,1.49,0.9H-135l0.55,0.66,1.41,0.74,0.71-.25,0-.9a1.93,1.93,0,0,1-.35-0.56c-0.72-.66-0.66-1.51-0.72-2.43a2.16,2.16,0,0,1-.81-1.58l0.35-.2a5.18,5.18,0,0,1,.53-1.21,3.07,3.07,0,0,0,1.54-1,1.58,1.58,0,0,0,.33-0.13l-0.55-.32,0.24-1.15-0.71-.9-1.49-.33L-133.7,48l0.63-.17,0.39,0.58,0.71-.08V47.09l2.35-1.64,0.55,0.66h1.1l0.47,0.41,1-.08,0.63,0.9,0.63-.08,0.47,0.49h0.39l0.63-.66h2l0.55,0.49,1.49,0.33,0.08-.66,0.31-.08,0.47,0.74,0.55-.41-0.08-.9L-119.2,46l0.08-.82,0.63-.16,0.16-.49-0.47-.41,0.16-.49,0.94-.33V43l-1,.08v-0.9l1.41-.25,1.72-.49,3-1.31,1.25-1.07,1.41-.16,1.49,0.16,0.78,0.33,0.47,1.48,0.86-.25,1.49,0.66,0.16,1,1.33-.25,0.31-.74,0.55-.66,1.41,0.17v0.82l0.39,1.23,1.65,1.07,0.55,1.39,1,1.89h4.08l1.72,2.13L-89.49,50l0.16,0.57H-89l0.39-.66,1.88-.41,0.86-1.23,0.63-.08,0.86-.82h0.63L-82.83,48l1-.08,1.33,1.4h0.39l0.24-.66H-79l0.08,0.58,1.41-.17,0.16-1.23-0.47-1.07,0.86-.82,0.63-.9,2.74,0.82,1.88,2.71,2.12-.82,2.9,0.9,0.24,0.66L-65,49.88l0.47,0.41,1.65-.33L-61.74,50l1.33-.9,0.55-1,0.94,0.17,1.18,1,1.29-.17,0.59,0.66,1.72-1.23-0.08-1,0.55-.33,0.47-1.64,0.78-.66,0.08-.9-0.78.08,1.1-1.89,2.51-.33,1.72,0.57,1.18,0.25,1,2.05,0.08,0.9,0.78,1.72,0.24,1.64,1,0.08,1,0.41,1.33,1.4,0.47,1.64,0.86-.08,0.55-.33,1.1-.08,1.25-.82,0.47,0.17-0.39,2.22-0.86.66-0.55,2.55-0.94.41L-40,57l-0.94.41,0.47,1.48-0.16,1.31-1.41.45,0.54,0.38,0.34,0.25h0l0.78-.22,0.16-.49,0.37-.27,0.52,0.27,0.16,0.27,0.68,0.05,0.37,0.22,0.52-.6,1.2-.44,1.15-2,0.94-1,1-1,0.16-1.31,0.58-1.1,1.1-1.2L-31.2,52l0.57-1.64V49.8l0.16-1.2-0.16-.6,0.16-1.31,0.89-1.42v-1l-0.63-.55-0.05-.38,0.47,0.27,0.05-.44-0.42-.77-0.52-.55L-31,41.1l-1.31-.27-0.26,1.09-0.47.06-0.52.27-0.1-.22,0.21-.55-0.26-.6-0.47.33-0.37.44-0.05-1.42L-35.49,40l-0.42.11-0.58-.38,0.1-.38,0.73-.27,0.63-.66,0.94-.71,0.31-.49,0.84-1,0.05-.55,1.25-.93,1-1.2,0.21-.66,1.2-1.1,0.21-.66,0.94-.77,1-.22,0.89,0.06,0.58-.22,1.1,0.05-0.31.38,0.26,0.38,0.52-.16,0.47-.55,0.42,0.33,1.2-.11,0.42,0.11,0.57-.93,0.78-.06,0.63,0.11,1.31,0.06,0.26,0.6-0.42.27-0.26.38,0.37,0.27,0.57-.33L-17,31l0.78-.66,0.47,0.6L-15.37,31l0.1-.49,0.84-.16V29.65l-0.47-.27-0.52.22-0.05-.71,0.42-.38,0.42-.66,0.84-.66V26.75l1.1-1L-12.86,25l0.21-.16,0.57-.44,1.36-.05,0.47-.44,0.63,0.49,0.21-.16,0.26-.33,0.42,0.38-0.07.55h2.06l0.94-.06,0.16-.49-0.26-.38,0.57-1.53,1-.49,0.68,0.71-0.73.27-0.26,1-0.21.55-0.05.44H5.78l0.13-.17,0.63-.11,0.78-.82,1.41-.33,0.42-.71,1.25-.22L11,22.86l1,0.22,0.05-.49,0.31-.82-0.31-.27-0.1-1-0.42-.38V18.65l-0.42-.33,0.05-.49-0.37-.17-0.16.49-0.63-.55-0.37-.28L9,17.17,8.73,16.4l0.52,0.06,0.26,0.38,0.21-.22-0.47-.44,0.47-.27,0.52,0.6,0.26,0.55L12,17l0.47-.6,0.31-.22,0.84-1-0.21-.71L13,13.17l0.63-.44,0.26,0.11,0.57-.27,0.05,0.55-0.1.49-0.05.88,0.37,0.44,0.78-.05,0.73-.11L17,15.09l0.21,0.33,0.16,1.37,0.89-.17L18.86,17l0.52,0.82L20,18.16l1-.44-0.52-.49,0.05-.66,0.73-.6-0.42-.49,0.26-.22,0.16-.38,1.41-.33L23,14.1l0.1-.6,0.71-.08L24,12.84ZM-118.9,22.49l-0.36,1.62Zm-0.66,3v0Z"/><path class="cls-8" d="M5.78,24.84l-0.5.66-0.57.16-0.31.66-1.1.6-0.73.88-0.16.55-0.52.33L1.77,28l-0.26-.55-1-.55-1.93.93-0.47,1-0.57.44-0.05-.82,0.42-.82-0.1-.22L-2.77,28l-0.47.38-0.42.6-0.42-.27-0.52-.06-0.78.82-0.21,1.1-0.58.93-0.42.22L-6.9,32.94l0.57,0.6,0.16-.38,0.73,0.33,0.1,0.27-0.73.71,0.05,1,0.52,0.27,0.31,1.15-0.26.27H-6V36.33l-0.73.82-0.47,1.31,0.16,0.33,0.37,0.55L-7,40.17l-0.47.16L-7.68,40l-1.41,1.2,0.26,1.42L-9,43.07l-0.63-.22-0.68.22-0.21,1-0.1.6-1.78,2.41-0.47.11,0.21-.33L-13,46.13l0.05-1-0.1-1-0.42-1.86-0.26-.71-0.05-1-0.16-2,0.16-2,0.78-1,0.16-.33,0.21-1.92h0.94l0.37-.49,0.42-.17,0.68-.6,0.05-.38,1.2-1.09,0.1-.93,0.57-.11,1-1.42L-7,27.41l1.78-.77,0.05-.6L-5,25.77l0.11-.93H5.78Z"/><path class="cls-10" d="M-44.24,110c18.87,0.64,36.72-11.68,47.88-37.24s5-43.42,0-51.83S-19.46-.18-43.95.32s-41,7.37-51.09,23-5.17,41.7,4.12,56.63S-69.64,109.11-44.24,110Zm-3-89.82c30.75-.27,43.89,17.14,42,40.38-1.62,20-20.25,39-40.13,38.75C-69.71,99-82,77.14-84.7,60.78-87.57,43.4-75.82,20.4-47.2,20.15Z"/><g class="cls-11"><path class="cls-12" d="M-171.63,45.75c24.36,24.64,38.83,50.88,51.72,65.95S-93,140.65-74,148.51s51.22,9.37,76.16-9.71,30.8-32,54.73-63.6,38.94-48.37,53.63-56.65S143.71,4.91,155.59,4.74c5.31-.07,12-0.08,18.35-0.07V-9.78H165.5c-34.61.43-61,4.54-82.33,25.15s-37.4,55.46-41.7,61.91-30.74,61.69-81,65.56-78-43.64-94.15-68.57-33.53-55.46-43.64-64.64S-194.83-4.69-202.74-6.75c-2.44-.4-4.8-0.73-7-1V25.49C-203.66,25.38-189.62,27.55-171.63,45.75Z"/></g><path class="cls-13" d="M-90.06,113.83c35.52,29.34,67.44,17.5,88.55,1.54S27,74.32,37.18,47.87,49.71,8.18,66.7-11.71a66.5,66.5,0,0,1,6.66-6.76H24.7C26.08-8.65,28.38,9.94,28.27,24c-0.14,17.75-5.61,38.32-13.59,53.66s-25.39,41.44-57.27,42.61c-22.14.81-33.66-7.3-47-20.6-14.88-14.88-19.82-29-26.08-51.8-5.08-18.5-4.14-53.74-3.61-66.35h-38.24C-145,17.17-122.21,87.28-90.06,113.83Z"/><path class="cls-13" d="M-177.36,9.63c10.11,9.18,27.52,39.7,43.64,64.64s43.85,72.44,94.15,68.57,76.74-59.11,81-65.56S61.89,36,83.17,15.37,130.9-9.35,165.5-9.78h8.35v-8.69H73.36a66.5,66.5,0,0,0-6.66,6.76c-17,19.89-19.3,33.13-29.52,59.58S19.59,99.42-1.51,115.38s-53,27.8-88.55-1.54c-32.14-26.55-55-96.67-67.41-132.31h-52.3V-7.75c2.23,0.27,4.59.6,7,1C-194.83-4.69-187.47.45-177.36,9.63Z"/><path class="cls-13" d="M142.82,29.52C130.25,31.7,116.66,36.17,105.07,45c-3.7,2.82-7.17,5.63-10.49,8.47C75.13,70.13,61,88,39.67,115.94c-25,32.7-57.72,57.89-101.95,49.14S-127,117.73-154.56,84c-9.8-12-17.88-20.6-25.15-26.76-10.61-9-19.5-12.84-29.5-14.71V57.56l0.24,0c14.59,2.35,35,14.8,73.53,67.64,59.32,81.3,128.9,63.25,172.29,10.19,34.3-42,55.12-71.71,87.66-82.35a91.6,91.6,0,0,1,28.81-4.31c8.68,0,15.85.09,21.77,0.25V27.82A148.25,148.25,0,0,0,142.82,29.52Z"/><path class="cls-13" d="M169.8,4.67h-0.36c-4.93,0-9.92,0-13.85.07-11.88.17-30.43,5.54-45.12,13.81A84.15,84.15,0,0,0,94,31.14,244.08,244.08,0,0,0,73.59,53.76C68.49,60,63,67.12,56.84,75.2,32.9,106.84,27,119.73,2.11,138.81S-55.13,156.38-74,148.51s-33-21.76-45.86-36.82c-10.95-12.79-23-33.66-41.36-54.75-3.25-3.74-6.69-7.49-10.36-11.2-2.05-2.07-4-3.93-6-5.61-14.6-12.62-26-14.62-31.6-14.65v17c10,1.88,18.89,5.72,29.5,14.71,7.27,6.16,15.35,14.73,25.15,26.76,27.52,33.77,48.05,72.37,92.28,81.12s76.93-16.44,101.95-49.14C61,88,75.13,70.13,94.58,53.47c3.32-2.84,6.79-5.65,10.49-8.47,11.59-8.83,25.18-13.3,37.75-15.48a139.42,139.42,0,0,1,31.11-1.79V4.57S171.4,4.67,169.8,4.67Z"/><path class="cls-13" d="M-115.63,47.87c6.26,22.79,11.2,36.92,26.08,51.8,13.3,13.3,24.82,21.41,47,20.6C-10.71,119.11,6.7,93,14.68,77.66S28.14,41.75,28.27,24c0.11-14.06-2.2-32.66-3.58-42.48H-119.24C-119.77-5.87-120.71,29.37-115.63,47.87ZM-95,23.31C-84.91,7.69-68.44.83-43.95,0.32S-1.34,12.5,3.63,20.91s11.15,26.27,0,51.83-29,37.88-47.88,37.24c-25.4-.86-37.39-15.1-46.68-30S-105.16,38.93-95,23.31Z"/><path class="cls-14" d="M-204.08-18.36C-201-17.47-188-14.18-175.34-.53S-159,22.31-146.61,44.24s40.43,69.63,62.31,83.35a72.44,72.44,0,0,0,76.18,1C17.61,113.53,25.17,97.25,44.53,61.2S63.89,18.63,87.61.22,130-20.54,130-20.54"/><path class="cls-15" d="M-222.57,52.61s17.45-3.18,35,9.76,24.72,23,38.89,40.52,24.87,32.63,38.11,45.87,41.12,30,67,27.78,48-8.75,86.39-53.55,47.54-60.49,73.59-72.37,69.78-8.07,69.78-8.07"/><path class="cls-1" d="M-106.43,54.56c4.59,22.57,22.1,59.22,59.6,60.31S9.65,84.56,17,49.75,15-10.71-21.64-14.09-81.48-14.18-97,3.4-108.45,44.63-106.43,54.56Z"/><path class="cls-16" d="M-157.47-18.48C-145,17.17-122.21,87.28-90.06,113.83c35.52,29.34,67.44,17.5,88.55,1.54S27,74.32,37.18,47.87,49.71,8.18,66.7-11.71a66.5,66.5,0,0,1,6.66-6.76"/><path class="cls-16" d="M175.09,28.45V27.82a148.25,148.25,0,0,0-32.26,1.7C130.25,31.7,116.66,36.17,105.07,45c-3.7,2.82-7.17,5.63-10.49,8.47C75.13,70.13,61,88,39.67,115.94c-25,32.7-57.72,57.89-101.95,49.14S-127,117.73-154.56,84c-9.8-12-17.88-20.6-25.15-26.76-10.61-9-19.5-12.84-29.5-14.71"/><path class="cls-17" d="M-95,23.31C-84.91,7.69-68.44.83-43.95,0.32S-1.34,12.5,3.63,20.91s11.15,26.27,0,51.83-29,37.88-47.88,37.24c-25.4-.86-37.39-15.1-46.68-30S-105.16,38.93-95,23.31Z"/><path class="cls-4" d="M-209.21,57.56l0.24,0c14.59,2.35,35,14.8,73.53,67.64,59.32,81.3,128.9,63.25,172.29,10.19,34.3-42,55.12-71.71,87.66-82.35a91.6,91.6,0,0,1,28.81-4.31c8.68,0,15.85.09,21.77,0.25"/><path class="cls-4" d="M175.09,4.67h-5.64c-4.93,0-9.92,0-13.85.07-11.88.17-30.43,5.54-45.12,13.81A84.15,84.15,0,0,0,94,31.14,244.08,244.08,0,0,0,73.59,53.76C68.49,60,63,67.12,56.84,75.2,32.9,106.84,27,119.73,2.11,138.81S-55.13,156.38-74,148.51s-33-21.76-45.86-36.82c-10.95-12.79-23-33.66-41.36-54.75-3.25-3.74-6.69-7.49-10.36-11.2-2.05-2.07-4-3.93-6-5.61-14.6-12.62-26-14.62-31.6-14.65"/><path class="cls-4" d="M-104.53,57.23c4.43,21.8,21.36,57.23,57.59,58.28S7.64,86.22,14.76,52.59,12.82-5.84-22.6-9.1-80.42-9.18-95.46,7.8-106.48,47.64-104.53,57.23Z"/><path class="cls-1" d="M-46.5,106.22C-21,106.91,1.68,82.83,3.84,56.74,6.23,27.42-6.69,4.15-48.26,5.13-85,6-98.34,35.8-94.63,58.07-91.19,78.78-75.34,105.45-46.5,106.22Z"/><path class="cls-10" d="M29.31,200.53c53.43-58.62,62.25-100,103.75-108.37a95.61,95.61,0,0,1,40.91.37V49c-5.7-.14-12.5-0.22-20.65-0.22a91.6,91.6,0,0,0-28.81,4.31C92,63.71,71.14,93.47,36.85,135.42c-43.39,53.07-113,71.12-172.29-10.19-38.26-52.43-58.62-65.1-73.18-67.58V96.71c4.72,3.3,24.47,18,44.81,45.81,24.8,33.92,43.46,61.57,64.9,78.48H8.5A230.3,230.3,0,0,0,29.31,200.53Z"/><path class="cls-4" d="M-209.69,96s22.56,14.65,45.88,46.54c36.39,49.78,59.58,86.08,97.71,94.71s58.72,3.55,95.42-36.71c53.43-58.62,62.25-100,103.75-108.37S200.81,104,200.81,104"/></g><path class="cls-16" d="M-44.24,110c18.87,0.64,36.72-11.68,47.88-37.24s5-43.42,0-51.83S-19.46-.18-43.95.32s-41,7.37-51.09,23-5.17,41.7,4.12,56.63S-69.64,109.11-44.24,110Z"/><path class="cls-16" d="M-208.63-7.86c2.23,0.27,3.45.71,5.89,1.11,7.91,2.07,15.27,7.21,25.37,16.38s27.52,39.7,43.64,64.64,43.85,72.44,94.15,68.57,76.74-59.11,81-65.56S61.89,36,83.17,15.37,130.9-9.35,165.5-9.78H174"/></g><circle class="cls-18" cx="75.43" cy="89.37" r="2.56"/></svg>