<svg id="Picture" xmlns="http://www.w3.org/2000/svg" xmlns:xlink="http://www.w3.org/1999/xlink" viewBox="0 0 149.25 166.51"><defs><style>.cls-1,.cls-13,.cls-14,.cls-15,.cls-4,.cls-9{fill:none;}.cls-2{clip-path:url(#clip-path);}.cls-3{clip-path:url(#clip-path-2);}.cls-4{stroke:#a7a9ac;stroke-width:0.5px;}.cls-17,.cls-4{stroke-miterlimit:10;}.cls-5{clip-path:url(#clip-path-3);}.cls-6{clip-path:url(#clip-path-4);}.cls-7{fill:#d4e3f5;}.cls-8{fill:#f6f6f6;}.cls-17,.cls-9{stroke:#fff;}.cls-9{stroke-width:0.3px;}.cls-10,.cls-12,.cls-13,.cls-14,.cls-15,.cls-16{opacity:0.3;}.cls-11,.cls-12{fill:#d1d3d4;}.cls-13{stroke:#939598;stroke-width:0.4px;stroke-dasharray:0 1;}.cls-13,.cls-14,.cls-15{stroke-linecap:round;stroke-linejoin:round;}.cls-13,.cls-14{fill-rule:evenodd;}.cls-14,.cls-15{stroke:#bcbec0;stroke-width:0.4px;stroke-dasharray:0 0.6;}.cls-16{fill:#ccc;}.cls-17{fill:#a0262a;}</style><clipPath id="clip-path"><rect class="cls-1" x="-92.22" y="-256" width="382.77" height="190.54"/></clipPath><clipPath id="clip-path-2"><rect class="cls-1" x="-92.12" y="-256.42" width="382.67" height="228.42"/></clipPath><clipPath id="clip-path-3"><rect class="cls-1" x="-230.83" y="-16.94" width="382.77" height="190.54"/></clipPath><clipPath id="clip-path-4"><rect class="cls-1" x="-230.73" y="-17.36" width="382.67" height="228.42"/></clipPath></defs><title>ranges5</title><g class="cls-2"><g class="cls-3"><path class="cls-4" d="M-93.08-143.07s22.56,14.65,45.88,46.54C-10.81-46.75,12.38-10.45,50.51-1.82s58.72,3.55,95.42-36.71c53.43-58.62,62.25-100,103.75-108.38S317.42-135,317.42-135"/><path class="cls-1" d="M50.51-1.82c30.31,6.86,49.55,5,74.61-16.23H17.7C27.73-10.14,38.36-4.57,50.51-1.82Z"/></g></g><g class="cls-5"><g class="cls-6"><rect class="cls-7" x="-230.74" y="-18.03" width="382.68" height="239.66"/><polygon class="cls-8" points="51.27 52.1 51.95 52.38 52.36 52.27 52.05 51.45 51.53 51.12 50.69 50.35 50.64 49.8 50.12 49.37 49.49 49.42 48.18 48.98 47.55 47.99 46.77 48.05 46.77 48.38 47.29 49.75 47.76 49.8 48.18 50.19 48.65 50.19 49.12 50.68 50.01 51.66 50.69 51.99 51.27 52.1"/><polygon class="cls-8" points="41.76 42.14 42.28 42.03 42.54 42.19 42.59 42.47 43.01 42.3 42.9 42.96 42.8 43.72 42.12 43.78 41.7 42.96 41.76 42.14"/><polygon class="cls-8" points="41.34 37.98 41.6 37.98 42.28 38.96 42.75 40.44 42.59 40.6 41.44 39.23 41.34 37.98"/><polygon class="cls-8" points="41.65 39.89 42.07 40.6 41.86 40.77 41.44 39.95 41.65 39.89"/><polygon class="cls-8" points="40.29 36.66 40.45 36.44 40.6 36.66 40.66 38.09 40.45 37.98 40.29 36.66"/><polygon class="cls-8" points="39.66 36.11 39.87 36.72 39.93 37.54 39.72 37.65 39.35 36.83 39.66 36.11"/><polygon class="cls-8" points="40.08 33.81 40.03 34.09 40.03 35.9 40.34 35.95 40.66 35.68 40.6 34.42 40.08 33.81"/><polygon class="cls-8" points="38.57 35.29 38.25 34.74 37.84 34.14 37.84 33.81 38.72 33.49 39.19 33.7 39.61 33.92 39.61 34.14 39.14 34.03 39.14 34.31 39.56 34.8 39.35 34.96 38.83 34.42 38.67 34.58 38.88 35.35 38.57 35.29"/><polygon class="cls-8" points="41.08 37.15 40.76 36.44 40.92 36.17 41.44 36.44 41.81 36.77 41.76 36.94 41.34 36.72 41.44 37.05 41.08 37.15"/><polygon class="cls-8" points="42.53 44.09 42.76 43.93 43.15 43.97 43.15 44.17 42.72 44.22 42.53 44.09"/><polygon class="cls-8" points="42.72 44.75 42.92 44.63 43.43 44.63 43.43 44.83 42.92 44.87 42.72 44.75"/><polygon class="cls-8" points="43.47 45.57 43.43 45.28 43.66 45.37 43.9 45.57 43.82 45.74 43.47 45.57"/><polygon class="cls-8" points="44.29 42.53 44.13 42.41 44.25 42.25 44.52 42.33 44.56 42.62 44.29 42.53"/><polygon class="cls-8" points="44.6 43.44 44.64 43.19 44.95 43.35 45.35 43.64 45.07 43.72 44.6 43.44"/><polygon class="cls-8" points="26.26 29.02 25.95 29.11 25.24 29.93 25.2 30.21 25.63 30.17 26.26 29.39 26.26 29.02"/><polygon class="cls-8" points="26.54 28.86 26.57 28.57 27.08 28.49 27.16 28.9 26.77 29.15 26.54 28.86"/><polygon class="cls-8" points="25.48 28.9 25.32 29.02 25.12 28.78 25.28 28.61 25.48 28.9"/><polygon class="cls-8" points="25.2 29.39 25.09 29.68 24.89 29.56 25.01 29.31 25.2 29.39"/><polygon class="cls-8" points="71.07 -1 71.49 -0.74 71.49 -0.55 72.43 -0.09 72.43 1.23 72.74 2.2 73.45 2.94 73.21 3.87 74.7 4.76 75.02 4.56 75.64 4.71 75.8 5.3 77.21 6.04 77.21 6.39 77.05 6.58 76.58 6.58 76.19 6.68 75.8 6.53 75.33 6.88 74.62 6.68 74.47 6.88 74.62 7.42 75.33 7.22 75.8 7.37 76.03 8.09 75.25 8.16 74.31 8.46 73.37 8.36 72.74 8.51 72.43 8.01 71.41 7.76 71.25 7.37 70.71 7.37 70.55 7.91 69.84 8.31 68.59 8.31 67.41 8.85 66.71 8.9 63.81 9.05 63.1 8.55 63.1 7.76 62.71 7.52 61.22 7.47 60.04 7.32 58.95 6.58 58.95 6.14 59.89 5.75 62.32 5.5 63.73 5.6 64.98 5.5 65.14 5.3 63.89 4.96 63.42 4.91 62.32 4.66 60.83 5.06 59.73 5.01 58.71 4.71 58.01 3.87 59.03 3.63 60.2 3.53 60.75 3.04 60.36 2.89 58.95 3.04 58.56 3.23 58.24 3.13 58.32 2.74 57.54 2.69 57.46 1.8 58.32 1.56 58.24 1.21 57.62 0.97 58.09 0.23 58.95 -0.02 59.42 -0.12 60.75 -0.96 61.69 -1.25 62.32 -1.05 62.63 -0.51 62.01 0.03 62.16 0.47 62.63 0.18 62.95 0.33 63.34 0.18 63.26 -0.27 63.73 -0.46 65.45 0.13 65.53 0.67 64.98 1.01 64.98 1.21 65.69 1.21 65.92 0.87 66.32 0.57 66.86 0.82 67.02 0.57 66.79 0.03 66.63 -0.36 67.33 -0.36 68.36 0.52 68.59 1.31 68.82 2.44 69.3 2.69 70.08 1.9 69.69 1.46 69.37 0.62 69.53 0.08 69.3 -0.61 69.3 -1.1 69.61 -1.15 70 -0.96 70.47 -0.86 71.07 -1"/><polygon class="cls-8" points="71.49 8.46 71.8 8.6 71.8 8.85 71.25 9 70.78 9.39 69.53 9.54 68.82 9.24 69.3 8.75 70.39 8.7 71.49 8.46"/><polygon class="cls-8" points="60.91 -1.55 60.44 -1.45 60.12 -1.2 58.32 -0.32 57.85 -0.02 56.83 0.57 56.67 1.21 56.36 1.36 56.13 1.16 55.5 1.46 55.5 2.64 54.71 3.13 54.4 2.94 53.54 3.58 52.91 3.92 52.28 3.87 52.13 2.89 50.25 2 49.7 1.95 49.78 1.11 50.72 0.62 50.64 0.33 50.33 0.08 50.33 -0.36 50.72 -0.32 51.19 -0.61 50.64 -0.86 50.64 -1.3 51.66 -2.14 50.87 -3.96 53.3 -4.16 53.93 -4.41 54.87 -4.36 56.05 -3.47 56.28 -3.17 56.6 -3.47 56.91 -3.47 56.99 -2.98 57.3 -3.12 57.38 -3.47 58.71 -3.57 60.83 -1.99 60.91 -1.55"/><polygon class="cls-8" points="80.82 -2.38 80.35 -2.24 79.88 -2.09 79.17 -2.14 78.62 -2.44 77.92 -2.24 77.6 -2.48 77.21 -2.38 77.29 -1.89 77.68 -1.65 77.13 -1.55 77.13 -1.25 77.45 -0.96 78.07 -0.91 78.15 -0.76 77.84 -0.66 78.23 0.13 77.6 0.33 77.37 0.42 76.27 -0.36 75.56 -0.32 75.41 0.28 75.64 0.77 76.51 1.21 76.66 1.46 77.53 1.61 77.84 2 78.54 2.2 79.17 3.48 80.35 3.28 80.35 2.94 79.96 2.79 79.96 2.44 80.66 2.79 81.92 2.49 82.15 2 81.92 1.31 82.39 0.97 82.07 0.57 81.99 0.42 81.29 0.37 81.29 -0.12 80.97 -0.27 80.03 -0.22 80.27 -0.61 80.97 -1.45 81.05 -1.65 81.44 -1.84 81.68 -2.38 80.82 -2.38"/><polygon class="cls-8" points="80.03 6.88 80.5 6.58 80.9 6.63 81.52 6.98 81.76 7.27 82.15 7.42 82.23 7.62 83.25 8.41 82.78 8.65 82.07 9 81.6 9 80.74 8.6 79.56 8.41 78.86 8.36 78.62 7.96 79.96 7.42 80.03 6.88"/><polygon class="cls-8" points="77.45 8.51 77.6 8.31 77.92 8.21 77.92 8.51 77.6 8.65 77.45 8.51"/><polygon class="cls-8" points="75.72 8.85 75.72 8.65 76.11 8.55 76.5 8.55 76.5 8.75 76.03 9 75.72 8.85"/><polygon class="cls-8" points="72.67 9.19 72.59 9.05 73.21 9 73.45 9.19 73.14 9.24 72.67 9.19"/><polygon class="cls-8" points="83.64 1.9 83.95 1.85 84.58 1.9 85.36 0.82 84.58 0.08 85.05 -0.02 85.52 0.08 86.3 0.08 86.85 0.23 88.81 -2.24 88.73 -2.83 87.25 -2.98 86.7 -2.88 85.91 -3.32 84.89 -3.12 84.27 -3.22 83.25 -2.78 83.88 -2.44 83.88 -2.19 83.4 -2.33 83.09 -2.19 83.17 -0.32 83.01 -0.07 83.48 0.67 83.64 1.9"/><polygon class="cls-8" points="94.69 -2.33 93.91 -2.38 93.52 -2.48 92.58 -2.48 91.24 -1.65 91.01 -1.55 90.07 -0.66 90.07 0.18 89.44 0.62 89.28 0.92 89.67 1.31 89.36 1.66 89.52 2.15 89.2 2.64 89.67 3.23 91.09 3.48 92.11 3.73 92.26 4.07 91.63 3.92 91.09 3.92 90.38 3.73 89.83 3.82 89.99 4.37 90.46 4.66 91.24 5.15 91.71 5.65 92.34 5.65 92.97 5.15 93.36 5.25 93.44 5.79 94.06 5.99 94.85 5.84 95.55 5.89 96.26 6.19 96.73 6.24 97.28 6.34 97.91 6.53 97.91 6.24 97.43 5.94 97.2 5.7 97.43 5.55 97.91 5.75 98.3 6.09 99 6.39 99.24 6.14 99 5.94 99.63 5.79 100.49 6.19 101.43 6.14 101.67 5.7 100.73 5.15 100.73 4.96 101.35 4.76 101.83 5.15 102.22 5.2 102.84 5.7 102.77 6.34 103.24 6.58 103.55 7.13 104.8 7.57 104.88 7.77 103.55 8.21 103.63 8.6 104.17 8.65 104.65 8.46 105.43 8.06 105.9 8.06 105.59 8.41 106.14 8.95 106.76 8.9 107.08 9.44 107.78 9.88 107.94 10.23 108.02 10.62 108.33 10.87 108.33 11.86 107.78 11.91 107.39 12.52 105.9 13.75 106.06 14.57 106.84 15.23 106.84 15.97 106.29 15.72 105.35 16.29 104.02 16.38 103.55 16.13 103.08 15.8 102.69 16.21 102.69 16.7 101.98 17.28 101.9 18.27 102.84 19 103.94 19.09 104.57 18.1 104.96 18.02 105.75 18.92 105.98 18.59 105.9 18.02 106.37 18.1 106.53 18.43 107.39 18.43 107.55 19.5 108.41 20.32 109.11 20.4 109.27 20.98 108.8 21.06 108.96 21.71 109.43 21.88 110.45 22.87 111 22.7 111.47 22.87 111.39 23.77 112.33 24.43 112.95 24.43 114.68 25.08 115.31 24.84 114.92 23.93 113.74 23.11 113.11 22.21 111.94 20.65 112.09 20.07 112.41 19.99 113.03 20.81 113.43 20.73 113.9 21.39 114.52 21.22 115.31 22.21 116.01 23.36 116.48 23.28 116.48 22.54 116.8 21.96 116.25 21.47 116.4 21.14 117.11 21.22 117.11 20.57 116.56 19.83 116.56 19.42 116.25 19.17 116.25 18.76 115.39 17.61 114.84 17.45 114.05 16.38 113.82 15.88 113.35 15.56 112.56 14.57 112.8 14 113.5 14.65 113.97 14.32 113.74 13.91 113.35 13.01 114.29 12.52 115.07 13.42 115.31 13.91 116.25 13.91 116.33 14.24 115.86 15.14 116.64 16.21 117.03 16.54 117.5 16.71 118.05 17.36 118.36 16.62 118.05 15.64 118.05 14.98 118.6 15.56 119.46 14.98 119.23 13.34 120.17 13.26 120.32 12.15 119.85 12 119.93 11.71 119.38 11.46 118.29 12.05 118.21 11.81 118.52 11.56 118.21 11.26 117.03 11.41 117.19 10.77 116.72 10.48 116.25 10.38 116.25 9.98 115.39 10.03 114.76 10.33 114.13 9.44 113.11 8.85 111.7 8.51 111.86 8.21 113.19 8.46 113.27 8.06 112.8 7.82 114.52 7.72 114.29 7.37 112.88 6.98 113.35 6.78 113.82 6.78 114.05 6.39 113.03 5.65 112.56 6.14 111.86 6.34 111.86 6.04 110.92 5.89 111.86 5.65 112.56 5.01 111.39 4.51 110.53 4.56 109.9 5.3 109.43 5.25 109.58 4.86 109.98 4.51 109.82 4.32 108.96 4.66 108.64 4.32 109.9 3.92 109.66 2.99 109.04 2.59 108.09 2.59 108.02 3.13 107.55 3.38 107.23 3.18 107 3.38 106.69 3.08 107 2.64 106.53 2.54 106.14 3.08 105.67 2.99 105.75 2.44 106.53 1.75 106.14 1.61 105.51 2.05 105.12 1.61 105.59 0.87 104.57 0.42 104.02 0.47 103.55 0.33 102.22 0.38 101.75 0.77 102.61 1.01 102.53 1.26 102.14 1.31 101.98 2 101.43 2 101.04 1.46 100.96 1.06 100.26 1.06 99.63 1.31 99.55 1.71 99.16 1.75 99.32 0.67 99.71 0.33 99.55 -0.12 99.4 -0.41 99.32 -1.15 98.77 -1.65 98.77 -2.04 98.38 -2.29 97.75 -2.29 96.02 -1.75 96.02 -1.3 95.63 -1.45 95.06 -1.21 95.48 -0.91 94.46 -0.61 94.69 0.72 95.71 1.11 95.55 1.41 94.77 1.11 94.22 1.41 94.38 2.15 94.97 2.86 94.85 3.63 94.3 3.58 94.3 2.59 93.36 2.05 93.28 0.28 93.2 -0.02 94.3 -1.2 94.46 -1.5 95.06 -2.13 94.69 -2.33"/><polygon class="cls-8" points="99.47 -1.99 99.71 -1.35 100.02 -1.15 100.26 0.13 100.73 0.33 101.2 0.18 101.35 -0.12 103.08 -0.22 104.57 0.13 104.8 -0.22 103.94 -0.56 104.02 -1.1 103.55 -1.5 103.08 -1.55 101.98 -2.14 100.49 -1.99 100.26 -2.14 99.47 -1.99"/><polygon class="cls-8" points="102.22 6.68 101.35 7.03 101.35 7.17 101.67 7.17 102.61 6.73 102.22 6.68"/><polygon class="cls-8" points="100.81 6.63 100.81 6.88 100.1 7.13 99.71 6.98 99.94 6.78 100.81 6.63"/><polygon class="cls-8" points="103.16 7.87 103 7.52 103.08 7.27 103.39 7.32 103.63 7.47 103.16 7.87"/><polygon class="cls-8" points="101.12 7.62 101.59 7.42 101.9 7.52 101.98 7.96 101.2 8.41 100.41 8.36 100.41 8.21 101.04 7.96 101.12 7.62"/><polygon class="cls-8" points="101.2 9.2 101.59 9.34 101.59 8.9 101.2 8.85 101.2 9.2"/><polygon class="cls-8" points="104.1 9.49 103.16 10.28 103.24 11.21 103.55 11.51 104.49 11.36 105.51 10.82 105.43 10.48 105.27 10.28 105.27 9.64 104.1 9.49"/><polygon class="cls-8" points="105.43 8.75 105.35 9.2 105.04 9.1 105.04 8.85 105.43 8.75"/><polygon class="cls-8" points="106.45 10.33 106.06 10.13 106.06 9.93 106.69 9.93 107.08 10.33 106.45 10.33"/><polygon class="cls-8" points="93.05 9.93 93.2 10.08 92.89 10.38 92.58 10.23 92.65 10.03 93.05 9.93"/><polygon class="cls-8" points="95.63 14 95.94 14.32 96.26 14.49 96.34 14.82 95.94 14.82 95.48 14.24 95.63 14"/><polygon class="cls-8" points="94.77 14.41 94.93 14.16 95.16 14.41 95.32 15.23 94.93 15.23 94.77 14.41"/><polygon class="cls-8" points="93.67 15.23 93.91 14.82 94.3 14.9 94.46 15.8 95 16.46 95.32 16.21 96.34 16.62 96.81 17.2 98.14 17.77 98.3 18.68 98.06 19.58 99.47 19.83 99.63 20.07 99.47 20.81 98.14 20.73 97.51 20.4 97.36 19.91 97.04 19.5 96.57 19.66 96.02 20.48 95.55 20.57 94.77 21.63 94.14 21.96 93.99 20.57 92.65 20.4 92.5 20.07 93.52 17.94 93.59 15.8 93.67 15.23"/><polygon class="cls-8" points="98.06 22.13 96.97 22.21 96.34 22.78 96.26 23.77 96.97 23.69 97.98 22.78 98.06 22.13"/><polygon class="cls-8" points="100.96 23.69 100.33 23.77 100.1 24.1 100.02 25.16 100.65 25.66 100.73 25 101.12 24.51 100.96 23.69"/><polygon class="cls-8" points="101.83 21.22 102.45 21.22 102.76 21.55 102.45 22.04 101.98 21.8 101.83 21.22"/><polygon class="cls-8" points="103 20.98 102.92 20.73 103.16 20.57 103.78 21.06 103.78 21.39 103.31 21.3 103 20.98"/><polygon class="cls-8" points="102.92 19.91 102.69 20.07 102.45 19.74 102.69 19.58 102.92 19.91"/><rect class="cls-8" x="92.34" y="5.84" width="0.78" height="0.15"/><polygon class="cls-8" points="112.64 28.78 112.64 28.45 113.11 28.12 113.27 28.37 113.11 28.7 112.64 28.78"/><polygon class="cls-8" points="116.01 25.82 116.25 25.41 116.56 25.66 116.64 26.23 116.4 26.31 116.01 25.82"/><polygon class="cls-8" points="100.86 37.21 100.75 37.76 100.33 38.14 100.55 38.47 101.01 38.09 101.22 37.43 101.17 37.05 100.86 37.21"/><polygon class="cls-8" points="98.24 43.95 98.61 43.73 99.03 43.78 99.39 44.16 99.45 44.6 98.92 44.66 98.66 44.27 98.24 44.22 98.24 43.95"/><polygon class="cls-8" points="140.08 29.68 139.61 29.27 138.9 29.6 138.66 29.11 138.74 28.45 137.65 27.88 137.25 27.05 135.69 27.22 135.37 27.79 135.06 27.63 134.98 26.73 134.35 26.32 134.28 25.9 133.73 25.41 133.41 24.59 133.34 24.02 132.47 23.52 132.32 23.19 132.63 22.78 132.47 22.54 132.47 22.04 131.93 21.39 131.85 21.14 131.3 20.65 131.3 19.66 132.16 19.58 132.16 19.01 132.47 18.35 132.86 18.59 133.02 18.1 132.08 17.45 131.61 17.86 131.06 18.92 130.59 18.76 130.75 17.69 130.51 16.54 130.67 16.13 129.57 15.31 129.73 15.06 130.36 15.06 130.12 14.49 129.5 14.41 129.02 13.5 129.26 12.76 129.73 12.76 130.12 12.1 129.42 12 128.87 12.2 128.71 11.91 129.02 11.07 130.44 10.53 131.14 10.67 131.93 11.02 132.32 10.87 132.08 10.38 130.75 10.33 130.2 10.33 129.26 10.77 128.95 10.72 128.87 10.33 129.97 9.88 131.06 9.88 132.16 10.08 132.4 9.69 131.85 9.64 131.53 9.44 130.59 9.64 130.04 9.54 130.12 9.15 131.06 8.95 132.08 8.9 132.08 8.6 131.61 8.41 131.85 7.57 132.63 7.27 132.24 6.83 132.63 6.53 132.55 6.09 131.61 6.24 130.2 6.04 129.34 5.45 128.4 5.25 127.85 4.61 128.16 4.46 129.18 4.61 130.04 4.86 130.59 4.86 131.93 5.5 132.32 5.3 131.53 4.91 131.61 4.61 131.22 4.17 131.69 3.77 131.06 3.68 130.04 3.13 130.44 2.79 129.5 2.2 129.34 1.85 128.79 1.8 128.79 2.35 128.4 2.4 128.32 3.13 127.38 2.99 126.59 2.54 127.53 2.25 127.07 1.85 127.3 1.41 126.99 0.82 127.14 0.67 127.93 0.82 127.77 -0.31 126.83 -0.46 127.14 -1.2 126.28 -1.99 126.52 -2.53 125.97 -2.88 125.73 -3.81 126.12 -4.01 125.66 -4.41 125.11 -4.6 123.77 -6.21 123.22 -6.32 123.38 -6.96 122.44 -7.28 121.89 -7.24 121.58 -7.6 120.95 -7.49 120.48 -7.74 120.56 -7.88 119.46 -8.06 118.84 -7.85 118.6 -8.24 118.21 -8.28 117.97 -7.92 117.34 -7.92 117.34 -8.28 116.95 -8.24 116.8 -7.81 116.09 -7.63 115.78 -7.74 115.62 -8.13 115.15 -8.06 114.84 -7.81 114.44 -8.1 113.9 -8.1 113.97 -7.78 114.52 -7.67 114.52 -7.46 113.82 -7.42 113.43 -7.6 112.02 -7.78 111.15 -8.35 112.25 -8.74 113.03 -8.7 112.96 -9.06 111.08 -9.13 111.23 -9.7 110.76 -9.7 110.53 -9.41 109.82 -9.38 109.27 -9.91 110.37 -10.27 111.31 -10.23 112.02 -10.02 113.03 -10.05 113.27 -10.13 114.29 -9.84 114.76 -9.91 114.68 -10.13 113.35 -10.38 112.17 -10.27 112.25 -10.45 113.5 -10.66 113.97 -10.66 114.52 -10.52 115.31 -10.95 114.92 -11.23 114.05 -11.34 113.58 -11.09 112.88 -11.02 112.41 -11.16 111.86 -10.8 110.68 -11.05 110.68 -11.3 110.29 -11.37 110.13 -11.59 109.19 -11.62 109.19 -11.73 108.41 -11.8 107.47 -12.37 107.55 -12.55 107.78 -12.69 107.55 -12.83 107.63 -13.05 108.25 -13.33 108.64 -13.58 109.35 -13.62 109.82 -13.51 110.92 -14.08 111.78 -14.08 112.09 -14.26 111.62 -14.47 112.41 -14.54 112.88 -14.86 114.52 -14.93 115 -14.79 116.72 -16.04 116.09 -16.68 117.19 -16.89 116.72 -17.14 117.03 -17.35 117.35 -17.53 116.95 -17.82 116.33 -17.53 115.93 -17.57 115.46 -17.32 113.9 -17.5 113.9 -17.78 113.58 -17.96 113.58 -18.53 114.6 -18.81 115.23 -19.2 115.78 -19.28 115.78 -19.67 117.42 -20.74 117.74 -20.77 117.97 -20.06 118.36 -20.17 118.29 -21.02 118.99 -20.88 119.31 -20.66 120.4 -20.98 120.4 -21.45 120.09 -21.7 120.64 -22.12 120.01 -22.37 119.93 -22.73 119.7 -22.98 119.86 -23.16 120.56 -23.3 122.05 -23.34 122.52 -23.09 122.52 -22.73 124.32 -21.98 124.24 -22.45 123.15 -23.09 122.91 -21.4 122.05 -21.82 122.21 -21.97 124.01 -22.36 124.87 -22.36 125.73 -22.61 126.67 -22.54 126.52 -22.93 127.61 -23.14 128.01 -22.93 128.32 -22.18 128.16 -22.41 128.4 -22.27 128.71 -22.37 129.42 -21.4 129.1 -21.54 129.42 -21.72 130.28 -21.54 132.71 -22.41 133.02 -22.62 131.3 -21.43 132.87 -21.43 132.4 -21.75 131.46 -22.32 131.53 -23.18 131.22 -23.46 131.46 -23.68 132.79 -23.71 133.49 -23.32 133.57 -23 134.67 -22.79 134.75 -22.46 135.61 -22.39 136.39 -22 137.8 -22.98 138.59 -22.98 138.67 -23.16 137.88 -21.5 138.12 -21.72 137.88 -22.54 138.2 -22.75 139.22 -22.68 140.08 -22.61 140.47 -22.75 138.75 -23.11 139.14 -23.29 137.41 -24.42 136.71 -24.64 137.34 -24.78 138.9 -24.67 140.55 -24.71 140.86 -24.57 140.78 -23.96 141.02 -23.71 141.49 -23.85 141.25 -24.39 141.57 -24.57 142.12 -24.32 142.66 -23.78 142.66 -23.5 143.29 -23.21 143.29 -23.57 142.74 -24.42 142.04 -24.74 140 -25.17 138.12 -24.92 138.04 -25.24 138.9 -25.28 138.75 -25.49 138.12 -25.56 137.02 -26.02 137.41 -26.2 138.59 -26.2 139.29 -26.02 139.92 -26.06 139.76 -26.27 138.75 -26.45 138.98 -26.63 140 -26.74 141.1 -26.49 141.18 -26.02 141.88 -25.95 142.51 -25.46 143.53 -25.49 144.08 -25.24 144.47 -24.74 144.94 -24.74 145.01 -25.03 144.23 -25.46 144.63 -25.67 145.64 -25.67 146.03 -25.88 144.78 -25.88 144.78 -26.13 145.41 -26.2 146.35 -26.27 146.35 -26.45 145.02 -26.49 144.31 -26.7 144.7 -27.02 144.39 -27.49 144.63 -27.59 145.1 -27.45 145.41 -27.56 145.17 -27.8 145.72 -27.8 146.59 -27.34 147.05 -27.52 146.35 -28.09 146.9 -28.23 147.37 -28.05 148 -28.34 148.39 -28.3 148.94 -28.13 149.33 -28.16 149.64 -28.38 150.9 -28.48 151.29 -28.27 151.91 -28.38 152.62 -28.34 153.64 -28.27 154.27 -28.27 154.74 -28.09 155.52 -28.13 155.83 -27.95 155.21 -27.73 155.6 -27.52 156.23 -27.56 156.62 -27.88 159.13 -27.34 159.52 -26.88 158.19 -26.52 156.38 -26.35 154.58 -26.49 152.93 -26.27 151.84 -25.95 151.05 -26.13 150.27 -26.1 150.66 -25.88 149.33 -25.53 147.92 -25.24 148.23 -25.1 148 -24.82 148.47 -24.82 149.01 -25.17 149.56 -25.14 149.64 -24.71 150.11 -24.89 150.19 -25.39 152.07 -25.42 152.23 -25.74 153.72 -26.17 154.89 -26.17 155.99 -25.95 158.11 -26.02 158.42 -26.24 159.83 -26.42 160.38 -25.95 160.15 -25.39 159.68 -25.1 159.75 -24.71 161.09 -25.28 161.56 -25.28 161.48 -24.89 162.34 -25.1 163.73 -24.79 164.46 -24.17 164.38 -23.75 163.73 -23.64 163.59 -23.18 162.34 -22.89 161.56 -23 160.54 -22.46 158.03 -22.39 156.85 -22.46 154.5 -22.29 153.95 -22.43 152.62 -22.43 153.4 -22.25 153.33 -22.07 151.44 -21.54 150.82 -23.05 151.13 -22.52 151.91 -22.66 151.91 -22.94 154.11 -21.5 154.58 -21.4 156.54 -21.93 157.01 -21.82 159.59 -21.75 159.91 -21.65 159.91 -23.19 158.66 -22.84 158.11 -22.48 157.24 -22.09 157.64 -22.09 157.87 -21.88 158.66 -22.09 159.28 -22.34 161.16 -22.91 161.24 -21.72 161.48 -21.89 163.36 -21.93 163.51 -21.75 163.59 -22.02 162.81 -21.55 162.42 -21.13 162.42 -20.52 161.79 -20.06 161.87 -19.77 161.4 -19.52 161.4 -19.2 161.71 -19.1 162.26 -19.35 162.26 -19.95 163.51 -20.59 164.06 -21.52 165.32 -22.2 165.4 -22.45 166.1 -22.52 166.1 -22.2 166.65 -22.23 167.28 -22.12 168.14 -22.2 168.3 -22.77 168.77 -22.94 168.53 -21.36 169 -21.43 169.47 -23.3 170.26 -21.72 172.45 -21.5 174.72 -22.45 174.8 -22.27 172.92 -20.88 171.82 -20.98 171.51 -20.74 172.06 -20.34 171.75 -20.13 170.88 -20.09 170.65 -19.74 170.1 -19.6 169.24 -19.63 168.14 -19.88 167.91 -19.6 167.44 -19.7 166.02 -19.67 165.55 -19.42 165.16 -19.38 165.16 -18.99 166.1 -19.03 166.18 -19.35 166.89 -19.42 167.98 -18.92 168.61 -18.99 169.24 -19.35 170.65 -18.89 169.47 -18.21 168.85 -18.14 167.83 -18.32 166.41 -18.32 165.87 -17.78 165.87 -17.03 166.41 -17 166.65 -17.39 166.81 -17.57 166.49 -17.82 166.89 -18.07 167.51 -17.96 167.67 -17.71 168.38 -17.96 168.85 -17.71 168.3 -16.82 166.81 -16.82 166.26 -15.5 166.96 -15.5 166.89 -15.22 166.18 -14.43 165.4 -14.43 164.61 -13.65 165 -13.62 163.99 -11.91 164.14 -11.51 164.77 -11.51 165 -12.01 165.47 -12.12 166.96 -11.59 167.04 -11.19 166.18 -11.37 165.71 -11.55 165.55 -11.37 165.94 -10.95 167.2 -10.38 167.35 -10.66 168.22 -10.52 168.3 -10.16 167.98 -9.56 167.04 -9.52 165.4 -9.8 164.85 -9.77 165.24 -9.45 164.3 -9.41 163.9 -9.38 163.83 -9.17 164.14 -8.7 164.22 -8.31 164.69 -8.17 165.4 -8.31 166.34 -8.2 166.34 -7.81 165.47 -7.74 163.99 -7.74 164.53 -7.6 166.1 -7.49 167.12 -7.03 167.28 -6.5 166.49 -5.98 165.79 -6.42 165.08 -6.57 164.61 -6.85 164.14 -6.74 165.47 -6.13 165.4 -5.93 164.32 -5.88 163.85 -5.64 164.16 -5.39 165.16 -5.49 165.47 -5.24 165.08 -4.8 165.16 -4.5 166.34 -4.36 166.73 -4.5 167.04 -4.26 166.73 -3.62 166.26 -3.52 165.55 -4.26 164.3 -4.36 164.09 -4.26 163.78 -3.81 164.17 -3.07 164.46 -2.04 164.69 -2.19 164.53 -2.63 165.79 -2.58 165.87 -1.74 164.77 -1.55 163.51 -1.2 162.26 -1.84 161.87 -1.99 163.12 -1.94 162.1 -2.38 161.24 -2.33 160.3 -2.83 159.91 -2.73 160.93 -1.99 160.3 -1.35 159.75 -1.2 158.58 -1.55 158.34 -1.35 158.81 -1 157.79 -0.86 158.19 -0.41 158.81 -0.66 159.12 -0.51 159.67 -0.86 160.38 -0.61 160.14 -0.22 158.81 -0.12 159.2 0.38 160.38 0.03 160.85 0.57 159.83 0.77 160.38 1.21 161.48 0.97 162.34 1.56 163.12 1.8 163.73 2.34 164.03 3.03 164.3 2.84 164.77 3.18 164.61 4.91 164.22 4.91 163.75 4.51 163.44 4.71 163.36 5.06 162.1 4.76 161.24 3.53 161.24 3.08 159.67 2.59 158.42 2.49 157.79 1.71 156.93 1.51 156.46 1.75 157.32 2.15 157.32 2.64 158.26 2.89 159.91 3.04 159.83 3.63 158.5 3.97 156.85 3.97 157.16 4.32 156.69 4.81 156.07 4.86 156.15 5.06 157.09 5.25 157.95 5.21 158.34 5.01 158.97 5.01 158.89 5.5 157.79 5.55 156.93 5.65 157.16 5.94 158.19 5.94 158.97 5.75 159.52 5.75 159.83 5.21 160.53 5.15 160.77 5.6 162.73 5.6 162.97 5.75 163.44 5.55 163.69 5.71 163.61 5.96 162.03 6.83 161.55 6.83 161.24 7.42 160.85 7.32 160.38 7.92 159.99 7.92 159.44 8.51 158.5 8.51 157.71 8.95 157.24 8.75 156.15 9.34 155.68 9.34 155.28 9.15 154.81 9.44 154.34 9.29 153.95 9.59 153.48 9.54 152.54 8.95 151.91 8.9 152.23 9.24 152.85 9.54 152.7 10.28 151.6 10.38 151.13 11.12 150.66 12 149.8 13.17 148.86 13.09 148.78 13.91 147.92 14.41 147.44 14.08 146.82 14.41 146.58 14 146.74 13.09 146.11 12.93 145.96 13.34 145.8 14.98 143.68 15.39 143.6 15.64 143.92 16.13 143.92 16.54 142.9 16.62 142.82 17.45 143.21 17.94 143.06 18.51 142.19 18.51 142.35 19.17 143.21 19.34 143.29 20.4 142.35 20.24 142.74 20.98 142.66 21.39 142.27 21.47 142.04 22.45 141.57 22.37 141.18 22.87 141.49 23.28 141.18 24.18 141.72 25.33 141.41 26.15 140.94 26.4 141.02 26.89 140.63 27.46 140.7 27.96 139.92 28.04 140.47 28.7 140.08 29.68"/><polygon class="cls-8" points="127.14 0.03 127.22 0.28 126.83 0.42 126.75 0.03 127.14 0.03"/><polygon class="cls-8" points="128.4 3.43 128.87 3.33 129.26 3.63 128.55 3.97 128.4 3.43"/><polygon class="cls-8" points="129.57 3.38 129.73 3.23 130.12 3.43 129.97 3.68 129.57 3.38"/><polygon class="cls-8" points="127.85 5.4 128.24 5.55 129.1 5.7 129.65 5.99 130.59 6.68 130.51 6.93 129.81 7.32 129.18 7.37 128.48 6.88 127.69 6.93 127.46 6.49 127.77 6.19 127.53 5.94 127.85 5.4"/><polygon class="cls-8" points="95.84 89.33 96.83 88.79 97.51 88.68 98.19 88.79 99.81 88.84 100.49 89.22 100.7 89.66 101.54 89.66 103.31 90.7 103.68 91.08 104.1 91.14 104.78 91.69 105.82 91.85 106.08 92.29 104.57 92.51 104.1 92.45 102.79 92.78 102.37 92.56 102.42 92.18 102.84 91.74 102.69 91.47 101.9 91.36 101.12 90.65 100.13 90.48 99.71 89.99 98.92 89.99 98.03 89.44 98.03 89.17 97.3 89.22 96.36 89.83 95.73 89.72 95.84 89.33"/><polygon class="cls-8" points="97.25 89.77 97.46 89.66 97.51 89.88 97.2 89.94 97.25 89.77"/><polygon class="cls-8" points="101.9 94.64 102.48 94.37 103.94 95.03 103.89 95.36 102.58 95.3 102.11 95.03 101.9 94.64"/><polygon class="cls-8" points="102.41 84.21 102.84 84.91 102.76 85.57 103 85.61 103.04 84.62 102.72 84.17 102.41 84.21"/><polygon class="cls-8" points="103.63 85.98 104.06 86.47 104.06 87.13 104.33 87.17 104.22 86.35 103.78 85.9 103.63 85.98"/><polygon class="cls-8" points="104.57 87.05 104.84 87.79 105.16 87.83 104.84 87.13 104.57 87.05"/><polygon class="cls-8" points="105.08 88.36 105.35 89.43 105.55 89.47 105.39 88.73 105.27 88.36 105.08 88.36"/><polygon class="cls-8" points="106.06 89.39 106.41 89.63 106.41 89.88 106.09 90.17 106.21 90.42 106.61 89.84 106.53 89.55 106.25 89.31 106.06 89.39"/><polygon class="cls-8" points="106.8 91.44 107.23 91.15 107.51 91.32 107.31 91.56 106.8 91.44"/><polygon class="cls-8" points="107.51 89.76 107.74 89.8 107.7 90.05 107.51 89.96 107.51 89.76"/><polygon class="cls-8" points="108.84 90.5 109.27 90.62 109.11 90.83 108.8 90.7 108.84 90.5"/><polygon class="cls-8" points="102.18 86.56 101.9 86.88 102.02 87.46 102.53 87.33 102.41 86.92 102.18 86.56"/><polygon class="cls-8" points="102.06 84.38 102.02 84.62 101.47 84.62 101.51 84.34 102.06 84.38"/><polygon class="cls-8" points="102.33 87.91 102.61 87.7 102.61 88.07 102.33 87.91"/><polygon class="cls-8" points="108.92 93.99 108.92 92.88 108.09 92.75 107.66 92.59 107.04 92.88 107.16 93.21 107.66 93.29 107.66 93.74 108.09 93.95 107.94 94.28 107 94.11 106.14 94.19 106.09 94.52 106.8 94.81 107.51 94.89 108.72 94.81 108.92 93.99"/><polygon class="cls-8" points="108.92 93.99 108.72 94.81 108.8 95.18 109.11 95.3 109.78 94.81 109.94 94.48 110.84 94.56 111.58 94.56 112.05 94.85 112.44 94.52 112.36 94.07 111.66 93.45 111.07 93.41 110.13 92.75 109.11 92.63 108.92 92.88 108.92 93.99"/><polygon class="cls-8" points="113.93 94.56 114.13 94.36 115.31 94.44 115.42 94.64 115.27 94.97 113.93 94.97 113.93 94.56"/><polygon class="cls-8" points="116.36 95.1 116.56 95.01 116.8 95.22 116.56 95.34 116.36 95.1"/><polygon class="cls-8" points="119.85 103.56 119.89 104.17 120.6 104.21 120.67 103.6 120.48 103.56 120.67 103.31 119.85 103.56"/><polygon class="cls-8" points="120.87 103.02 121.26 102.9 121.3 103.19 120.99 103.27 120.87 103.02"/><polygon class="cls-8" points="119.81 96.94 119.85 97.31 120.09 97.52 120.17 97.23 120.44 97.23 120.44 96.86 120.09 97.03 119.81 96.94"/><polygon class="cls-8" points="120.36 98.92 120.75 99.37 120.91 99.28 120.83 98.87 120.52 98.75 120.36 98.92"/><polygon class="cls-8" points="119.66 95.96 119.81 95.84 120.01 96 119.81 96.2 119.69 96.12 119.66 95.96"/><polygon class="cls-8" points="120.17 98.01 120.36 97.89 120.64 98.14 120.32 98.3 120.17 98.01"/><polygon class="cls-8" points="120.32 100.64 120.56 100.6 120.64 100.8 120.32 101.01 120.32 100.64"/><polygon class="cls-8" points="119.81 101.83 119.97 101.58 120.28 101.75 120.09 102.04 119.81 101.83"/><polygon class="cls-8" points="111.62 101.87 111.93 101.71 112.14 102.04 111.93 102.09 111.62 101.87"/><polygon class="cls-8" points="87.69 115.94 87.84 115.72 88.37 116.05 88.47 116.71 87.74 117.15 87.9 116.38 87.69 115.94"/><polygon class="cls-8" points="88.78 116.49 89.15 116.27 89.36 116.54 88.94 116.65 88.78 116.49"/><polygon class="cls-8" points="126.84 46.79 125.64 47.06 124.96 48.32 124.23 49.69 123.97 50.89 123.55 51.28 123.5 51.77 122.5 52.26 122.61 52.59 123.13 52.54 122.45 53.25 123.08 53.91 124.54 53.74 125.22 53.96 126.06 53.63 126.37 54.07 127.1 53.69 127.21 54.56 127.68 54.62 128.36 53.85 128.51 54.51 128.3 55 128.82 55.11 129.03 55.55 129.76 55.55 129.92 53.52 129.14 53.08 129.66 52.92 129.82 52.1 128.56 52.37 128.77 50.89 127.83 50.67 127 51 127 50.57 126.37 50.46 126.47 49.74 125.95 49.64 125.38 50.35 125.27 49.91 126.84 46.79"/><polygon class="cls-8" points="120.36 56.92 120.15 56.26 120.62 55.6 120.94 54.78 121.35 54.89 121.25 55.66 120.73 56.48 120.36 56.92"/><polygon class="cls-8" points="120.88 57.19 120.99 56.86 121.3 56.26 121.88 56.26 121.88 56.7 121.3 57.19 120.88 57.19"/><polygon class="cls-8" points="119.37 55.77 117.75 55.88 117.48 55.44 117.44 54.89 117.02 54.84 117.02 55.66 118.11 56.37 119.11 56.42 119.37 55.77"/><polygon class="cls-8" points="119.63 54.45 119.78 53.91 120.1 53.63 120.41 53.63 120.36 53.91 119.99 54.02 119.84 54.45 119.63 54.45"/><polygon class="cls-8" points="117.44 50.13 117.91 49.69 118.37 49.8 120.1 51.11 119.78 51.39 118.69 51.33 117.8 50.78 117.44 50.13"/><polygon class="cls-8" points="118.73 142.28 119.04 141.29 119.25 139.81 119.51 139.16 120.77 138.61 123.28 138.56 124.11 139.27 124.27 142.06 125.1 142.5 126.57 143.15 126.62 144.3 127.25 144.03 127.92 144.3 127.98 145.29 127.72 145.78 127.61 146.55 127.35 147.64 126.62 148.3 125.16 148.52 123.95 148.47 123.48 148.3 124.63 146.49 124.69 146 123.95 145.34 122.33 144.91 121.45 144.19 120.61 144.3 119.98 143.43 119.3 142.61 118.73 142.28"/><polygon class="cls-8" points="118.73 142.28 119.04 141.29 119.25 139.81 119.51 139.16 120.77 138.61 123.28 138.56 124.11 139.27 124.16 137.73 123.69 137.02 123.8 136.09 123.33 135.82 123.28 134.89 120.87 134.5 120.77 131.71 119.67 131.49 117.42 130.12 116.64 130.01 116.06 129.69 115.96 127.77 115.07 127.17 113.81 127.58 113.24 128.65 111.2 128.97 112.25 130.4 112.3 130.83 111.72 131.11 111.99 132.81 111.26 133.08 111.67 135.16 111.1 136.64 111.57 136.91 112.04 138.28 112.2 139.98 112.93 142.61 113.29 142.88 114.29 141.78 114.81 141.84 115.8 142.33 116.22 143.04 116.8 143.04 116.95 142.72 116.95 142.28 117.32 142.11 117.94 142.33 118.73 142.28"/><polygon class="cls-8" points="32.85 7.08 31.59 6.58 31.12 6.43 30.89 6.24 29.87 6.19 28.46 6.43 27.2 5.99 26.42 5.94 26.1 6.04 24.77 5.79 23.99 5.35 22.97 5.3 21.79 5.45 21.01 5.6 20.46 5.45 20.93 5.15 19.83 4.91 20.15 4.51 19.13 4.51 18.34 4.76 17.48 4.27 16.93 4.32 16.78 4.66 16.39 4.66 15.84 4.37 16.62 3.97 16.15 3.92 15.52 3.67 14.11 4.61 12.94 4.66 12.7 4.56 11.6 5.15 10.51 5.75 10.11 5.75 9.02 6.14 8.47 6.78 8.07 8.06 7.06 8.65 4.78 8.7 4.71 9.44 4.23 9.54 4.78 9.83 5.33 10.03 6.35 10.48 7.37 11.21 7.45 11.9 7.92 12 8.39 12.05 9.41 12.05 9.72 12 10.11 12.15 9.96 12.4 9.64 12.76 10.35 13.26 10.98 12.93 11.92 12.84 12.23 13.26 11.92 13.5 10.82 13.67 10.58 14.4 10.11 14.4 9.64 14.81 8.39 14.4 7.29 14.57 7.37 14.07 7.45 13.5 6.43 13.58 5.49 13.83 5.17 14.32 4.39 14.4 4.16 15.06 3.76 15.23 3.06 15.96 3.69 16.54 4.08 16.54 4.78 16.62 5.1 16.95 4.78 17.11 4.08 17.11 5.1 18.68 6.19 18.68 6.98 18.43 7.61 18.76 8.62 18.84 9.02 18.27 9.64 18.1 10.04 17.69 10.98 18.02 10.98 18.68 10.35 18.68 10.27 18.92 10.98 19.74 11.05 20.65 10.04 21.96 9.41 21.71 8.7 22.04 7.68 22.54 7.21 22.04 6.43 23.11 6.27 24.01 5.88 24.26 5.33 25.66 5.1 25.9 5.25 26.64 5.72 27.38 6.04 27.3 6.27 27.63 6.04 28.53 5.57 28.61 7.29 30.25 8.07 30.17 8.94 29.93 8.99 29.43 9.3 29.32 9.3 30.09 9.51 30.86 9.72 32.06 9.51 32.94 10.14 32.72 11.29 32.06 11.71 32.39 12.12 32.5 12.54 33.16 12.86 33.27 13.17 32.28 13.69 32.61 14.01 32.72 14.53 32.61 15.05 32.17 15.16 32.61 14.53 34.25 14.53 35.35 13.69 35.68 12.96 36.66 11.92 37.43 11.45 37.98 11.29 38.63 10.97 38.8 10.51 38.55 9.8 38.72 8.94 39.45 8.47 40.19 7.92 40.65 7.45 40.56 6.78 40.93 6.55 41.55 6.58 41.88 7.41 41.63 8.04 41.05 8.23 40.69 8.54 40.69 9.56 40.11 9.8 39.37 10.11 39.45 10.35 39.7 10.9 39.7 11.99 39.04 12.62 38.63 13.33 38.39 13.4 38.06 15.13 36.66 15.6 36.25 15.6 35.68 16.62 34.94 17.32 34.36 18.19 33.87 18.34 32.97 18.89 32.8 18.81 31.82 18.27 31.82 18.19 31.41 18.74 30.58 19.44 30.58 19.99 29.93 19.83 29.19 21.87 26.48 22.65 26.56 23.05 26.07 23.44 26.07 23.2 27.3 22.5 27.22 21.4 28.04 21.48 28.53 20.85 30.17 20.93 30.5 21.16 30.42 21.4 30.58 21.16 30.83 20.85 30.99 20.7 31.32 21.64 31.32 22.81 30.58 23.36 29.76 24.54 29.76 24.85 28.78 24.69 28.28 24.85 28.04 24.46 27.87 25.24 26.97 25.55 27.05 25.4 27.55 25.87 27.55 26.57 27.3 26.81 27.87 27.91 28.61 28.53 28.45 28.77 28.7 28.93 29.6 30.34 29.6 30.96 29.68 31.36 29.84 32.45 29.84 32.69 30.09 33.78 30.34 34.41 29.93 34.49 30.99 35.9 31.57 36.22 32.47 36.92 33.29 38.25 33.21 37.86 32.72 37.94 32.47 38.33 32.47 38.8 33.05 39.04 33.05 39.27 32.06 39.59 32.88 40.06 33.05 40.53 33.38 41.15 34.94 41.31 36 41.86 36.58 42.25 36.83 42.33 37.81 42.72 38.47 42.8 39.04 43.03 39.13 43.19 39.54 43.9 39.7 44.05 40.6 44.29 40.6 44.76 40.69 45.05 40.28 44.94 39.4 45.15 38.3 43.69 37.32 42.85 36.44 41.49 33.16 40.76 32.61 39.93 31.08 39.09 30.42 38.25 30.64 37.42 31.62 36.9 31.62 35.22 29 34.7 28.34 34.28 28.67 34.07 29.43 32.85 28.56 32.85 7.08"/><path class="cls-8" d="M53.54,51.77H84L85,52.43l1.25,0.25,1,0.49,1.33-.08,0.86,0.25,2.12-.16L95,55.06l0.78,1.64,2,2.22,0.08,1.48-0.6,1.89,0.36,1.07,3.14-1.56,0.39-1,2.9-1.07,1.41-1.23,0.63-.57h1l0.63,0.16,2-.41,1.49-3,0.63-.33L113.19,55v1.48l0.71,1.15L114,58.75l0.43-.25,0.37-.55,0.68-.17,0.68-.44,0.58-.38,0.16,0.16-0.1.38,0.26,0.11,0.21-.11,0.1,0.22-0.42.44h-0.47l-0.73.88-0.37.11-0.26,1,0.47,0.44,0.63-.06,0.47-.44,0.16-.33,0.94-1.1L118.1,59l0.31,0.06,0.26-.27,0.57-.11,0.52-.06,0.63-.6v-0.6l-0.42.05L119.83,57l-0.58.27-0.78-.05-0.52-.38-0.31-.38-1.15-.88-0.16-1.1,0.26-.33V53.64l-0.73.16-0.47-.33-0.68-.22L114.65,53l0.47-.33,0.78,0.16,0.47,0.27,1-.88-0.21-.49L117,51.61l-0.84-.71-1.25.11-0.52.6-1.1.33-0.73.82-0.21.06-1.15,1.26-0.05.44-0.52.22-0.57.71-0.26-.11,0.21-1.1,0.89-.71,0.21-.38,0.73-.71,0.63-1.15,1.46-.27,0.05-.55,0.47-.33,0.68-.82,0.73,0.06L116,49.53l1.67-.17,0.89-.22,0.57,0.33,1-.16,0.68,0.16h1.15L122.7,49l0.73-1.42,0.78-.44,1.31-.27,0.89-.77,0.21-.05,0.21-.49-0.42-.88,0.37-.6L126.52,43l-0.94-.38-0.73.49-0.05-.33L125,42l-0.63-.06-1,.6-0.1.27H123l-0.89.77-0.52-.06-0.16-.71,0.47,0.11,0.73-.44,1.26-.77,1.1-.38,0.1-.44-0.89-.22-0.47-.38-0.84-.33-0.47.16-0.63-.44-0.05-.49-0.52-.93L120.72,38l-0.05-.22L120,37.54l-0.05-1,0.52-.33-0.11-.49-0.47-.16-0.21-1.26L119,33.65l0.1-.71-0.57-.33V31.52H118.1l-0.26-1.31-0.52-.49-0.21-1-0.37-.16-0.37.66v0.49L116,30l0.1,0.93-0.52,1.31-0.31.33-0.05-.33-0.31-.06-0.42.11v0.6l-0.52.33-0.37.44L113,33.27V32.72l-1-1-0.57.55-0.63.16-0.05-.22,0.73-.49,0.21-.38-0.31-.22H111s-0.26-.38-0.1-0.33a0.79,0.79,0,0,0,.47-0.27l-0.05-.55-0.42-.44,0.42-.44-0.05-1,0.37-.33v-0.6L111.26,27l-0.31.16-0.26-.33-1.31-.05-0.31-.55,0.1-.6-0.47-.16-0.31-.82-0.57-.22L107.55,24,107,23.63l-1,.11-0.26.49-0.52-.06-0.94-.05-0.84-.55-0.26-.27h-0.68l-0.37.27V25l0.63,0.77-0.05.82-0.42.33L102,27l0.16,0.44L102.53,28l0.16,0.88,0.26,0.55-0.21.82-0.58.71-0.05.44-0.42.6,0.05,0.66,0.89,0.88,0.83,0.82,0.47,2.08-0.31,1.92-0.68.6-0.21.38-0.58.6-0.58.27-0.1.44-0.68.06-0.21.44,0.52,0.66,0.16,1v1.31l0.26,0.66,0.31,0.49,0,0.52-0.47.74-0.16.66-0.47-.49-0.31.74-0.31-.16-0.55.08,0.08-.49-0.63-1-0.55-.16V45.29l-0.71-.66V44.22L98,43.89l0.08-1.56-0.23-.74,0.08-1.64-0.55-.41-0.94.17-0.94-.08L95,39.29l-0.86-.08-0.63-.74-1.1-.16-0.63-.41-0.16-.82L91.4,37H91.08l-0.63-.49-1.26-.82H88.73l-0.31-.16H87.56l-1,.41-0.08-.25,0.23-.9L86.23,34l-0.31-1.64-0.55-.17-0.71-.08L84,31.24V30L84,29.76l0.08-1.89,0.55-.9L85,25.66l0.47-.49,0.08-.66L86,24.43l0.31-.74,0.63-.33-0.23-.9L87,22.13l0.24,0.25h0.39L88.58,22V21.55L88.19,21l-0.63-.49L88,20.32l0.39,0.16,0.71-.08,0.55-.82L90.07,20l0.78-.08,0.55-.82L92,18.43l0.08-.49,0.23-.9-0.23-.49-0.31-.25-1.1-.08-1.1-1.07-0.47-.33,0.31-.25,0.94,0.33,0.86,0.82,1,0.17,0.63-.74,0.94-.74,0.08-.82-0.55-.08L93,13.17l0.08-.41L94,12.68l0.31,0.57,0.47,0.25,0.47,0.08,0.71-.33-0.08-.41-0.7-.55-0.23-.2,0.31-.2L95.71,12,96,12.25l0.39,0.51L97,12.85l0.47-.33,0.86-.37,0.08-.39,0.63-.84-0.63-.74L98,10l-0.31-.59L98,9.29l0.63,0,0.16-.49L98.3,8.41,98.69,8l-0.08-.39H98.06l-0.39-.2-0.16-.3,0.31-.15-0.31-.2h-1l-0.55-.1-0.47-.25-0.78.1-0.16.15L94.46,7.82,94.77,8l-0.08.3-0.55.34-0.08.54-0.31.74-0.47.64-0.24.4-0.55.15-0.08.44H92.18l-1-.94,0.08-1.08,0.63,0L91.79,9,91.48,8.6l-1-.59-0.24-.25-0.63.35V8.6l-0.16.64L89,9.39l-0.31-.2v-1L88,7.67l0.16-.2h0.63l-0.08-.2L88,6.83,87.25,7l-0.86-.44,0.31-.44-0.08-.25,0.24,0,0.63,0V5.45l-1.33-1-0.08-1-0.23-.2-0.16-.54-0.47-.15-0.55,0-0.31-.29L83.87,2.1l-0.24.35H83.25l-0.31.35L83.33,3l-0.39.25-0.31,0-0.23.1L82,4.51l0.39,0.3H82.7V5.06L82.23,5,82,5.84l0.47,0.39,0.63,0.35,0.55,0,0.39,0L84.11,7l0.63,0.1L85.21,7l0.08,0.3-0.78.29-0.39.84L84.5,8.6l0.39-.2,0.23-.2,0.24,0.35L85.21,9l-0.47.35-0.47.35H83.72L83.09,10l-0.08.3,0.63,0.59-0.24.34-0.94-.2-0.16-.64,0.31-.25V9.74l-0.47-.1-0.78-.35-0.55-.2-0.31.15-0.71,0-0.31,1.18-0.55,0-0.63-.2-1.26.25-0.55-.15-0.44.2-1-.2-0.39-.44h-1l-0.47,0-0.86-.59L72.19,9,72,9l-0.39.1-0.08.25-0.86.59-1,0-0.16.59,0.39,0.74,0.47,0.35-0.39.3v0.56l-0.7-.37-0.31-.35,0.39-.39-0.63-.49-0.24,0L68,10.48l-0.55-.2L67,10.13l-1.49.44-0.86,0-1.8,0-0.55-.15-1.1,0-0.16-.3,0.24-.25,0.47-.15,0.16-.2,0.86-.2L61.14,8.11l-0.7,0-0.16.15H59.65l-0.7-.15H58.4l-1-.49-1.1-.25H55.81l-1.8-1-1.17.1V7l-0.71.49-0.86,0-0.08-.15,0.39-.39L51,6.68l0.16-.25,0.24-.1-0.16-.44-0.86.25L50.4,6.93H50.17l-0.08.59-0.71-.15-0.86-.69V6L47.11,5V5.4l0.31,0.25-0.08.15H47V6.24l-0.78.39,0.08-.3-0.55.15-1.1.34-0.7.59-0.24-.1L42.41,8l-0.31.44-0.71.15-0.08-.39L41.7,8l-0.08-.15,0.71-.2,0.08-.35,0.94-.39H43.9l1.49-.69V5.94L44.84,6l-0.24-.1L44,6.34H43.59L43,6.73H42.41l-0.86.39-0.08.25H40.68l0.16-.25L40.06,7l-0.63.59H39l-0.55.35,0.16,0.34L39.43,8.5V8.75l-0.31,0-1-.15-0.71-.35-0.86-.1-0.94-.44-0.86-.59H33.47l-0.31-.1h-0.3V28.56l1.22,0.88,0.21-.77,0.42-.33L35.22,29l1.67,2.63h0.52l0.84-1,0.84-.22,0.84,0.66,0.84,1.53,0.73,0.55,1.36,3.28,0.84,0.88,1.46,1-0.21,1.1L45,40.28l-0.29.41-0.08.74,0.16,1,0.23,0.66,0.47,0.33,0.23-.33L46.09,43l0.08,0.82-0.31.25v0.57l0.55,0.16L47,44.63l0.16,0.57,0.24,0.49-0.08.9,0.16,0.9L48,47.83l1,0.25,0.39,0.66h0.78L50.64,49,51,49.72l0.63,0.16,0.23,0.66h0.39l0.63,0.9,0.55,0.33h0.08Z"/><polygon class="cls-8" points="59.42 76.74 60 76.53 61.92 76.45 63.61 77.27 65.14 78.26 65.77 78.38 68.12 78.42 69.14 78.14 69.37 77.44 70.39 77.48 71.49 77.72 72.51 78.75 72.9 78.75 73.29 79.16 73.37 80.19 74.23 81.05 74.98 81.34 75.21 81.17 75.09 80.6 75.8 80.03 77.45 80.89 78.9 83.31 79.05 84.05 80.31 85.08 81.36 85.28 81.36 84.79 81.29 83.97 81.6 83.47 81.76 82.98 82.85 81.58 83.95 81.26 84.5 80.85 85.28 80.35 85.91 80.35 87.01 80.6 87.56 80.44 88.58 81.26 89.13 81.09 89.91 81.5 90.41 81.5 90.46 81.12 89.99 80.57 90.04 79.97 90.82 79.86 91.87 79.53 92.13 79.75 93.17 79.53 93.86 79.59 94.48 79.92 94.74 80.41 95.21 80.52 95.42 80.14 95.94 80.03 96.57 80.35 97.09 81.17 97.51 81.67 97.51 82.05 97.36 82.27 97.41 83.36 97.77 83.86 97.88 84.73 98.56 85.5 98.92 86.49 99.29 86.54 99.92 86.27 100.13 84.52 99.65 82.55 99.13 80.79 98.72 79.86 98.72 78.6 99.39 77.4 99.5 76.85 99.97 76.8 101.59 75.15 102.43 74.99 102.95 74.22 103.42 73.84 103.63 73.13 104.31 72.69 104.41 72.31 103.99 71.81 104.25 71.43 104.2 70.94 103.84 70.28 103.84 68.69 103.42 67.76 103.73 67 104.36 66.94 104.2 67.82 104.36 69.02 104.57 69.79 104.83 69.95 105.3 68.97 105.4 67.92 105.04 67.32 105.25 67.1 105.67 67.49 106.24 66.94 106.4 66.28 106.92 65.57 106.81 65.02 106.61 64.86 107.08 64.64 107.28 64.04 107.7 63.98 108.17 64.26 108.75 64.09 109.32 63.66 109.69 64.09 110.26 63.93 110.68 63.49 110.11 63.27 110.11 62.78 109.74 62.4 110.26 61.57 110.37 61.14 110.79 60.53 110.84 60.1 111.78 60.1 111.99 59.82 112.14 59.33 112.3 59.22 112.51 59.44 112.98 59.38 114.01 58.76 113.9 57.61 113.19 56.45 113.19 54.98 111.86 54.4 111.23 54.73 109.74 57.69 107.78 58.1 107.16 57.93 106.14 57.93 105.51 58.51 104.1 59.74 101.2 60.81 100.81 61.79 97.67 63.35 97.31 62.29 97.91 60.4 97.83 58.92 95.79 56.7 95 55.06 91.56 53.17 89.44 53.33 88.58 53.09 87.25 53.17 86.23 52.68 84.97 52.43 84.03 51.77 53.54 51.77 53.46 51.77 53.56 52.81 53.85 53.58 53.69 54.32 53.3 54.32 53.46 53.01 52.28 53.09 51.58 52.84 51.03 52.84 50.87 53.25 51.66 54.73 51.81 56.04 51.58 57.44 51.66 59.58 51.11 61.22 51.27 62.2 51.66 63.76 51.58 64.83 51.42 65.65 51.81 66.31 51.89 67.21 52.68 67.87 52.91 68.86 53.62 68.97 53.83 69.19 53.62 69.73 53.77 70.44 54.14 70.83 54.19 71.48 54.61 72.03 55.34 72.91 55.55 74 56.13 74 56.75 74.22 57.22 74.82 57.54 74.88 57.9 74.88 58.74 75.37 59.1 76.3 59.42 76.74"/><path class="cls-8" d="M90.26,95.1l0.46-.69,1,0.2L92,94.15l0-.29,0-1.19,0.47-1,0.39-.57-0.39-.49-0.55.08-0.31-.16H90.69l-0.78.57-0.55-.16-0.47.74-0.08,1.23-0.78.9-0.08.41-2,.41-0.55-.08-0.63.16-0.86-.49H83.56L83.25,94l-0.55-.25-0.16-.49-0.47-.66-0.47-.9-0.55-1-0.39-1.23V88.32l0.08-1.48,0.63-1.07V85.28l-1.06-.2-1.25-1-0.16-.74-1.45-2.42L75.8,80l-0.71.57,0.12,0.58L75,81.34l-0.74-.29-0.86-.86-0.08-1-0.39-.41H72.51l-1-1-1.1-.25-1,0-0.24.7-1,.29-2.35,0-0.63-.12-1.53-1-1.69-.82L60,76.53l-0.59.21,0.1,0.49,0.21,0.93,1.15,1.21L61,80l0.42,0.6,0.31,0.11,0.89,1,0.05,0.49,0.05,0.93H62c-0.21,0-.05.22-0.05,0.22l1,0.77,0.68,0.27,0.78,0.55,0.42,0.55,0.21,1.15,0.57,0.77,0.47,0.17L67,88.4l0.1,0.82,0.58-.17V88.51L67.46,88,67,87.42l-0.42-.27-0.21-.71-0.37-.55-0.16-.44-0.31-1-1.15-1.37-0.1-.38-0.47-.49V81.78L62.24,80l-0.16-.33-0.21-2,0.21-.11,0.37,0.38,0.47-.11,0.21-.06,0.16,0.49,0.36,0.06,0.21,0.6-0.16.55L64.17,80l0.21,0.77L64.9,81.5l0.31,0.22,0.57,0.82,0.78,0.22,0.05,0.55,0.73,0.93,0.42-.05,0.42,0.55L67.93,85l-0.05.55,0.63,0.33L69.08,86l0.31,0.38L69.55,87l0.52,0.55,0.26,0.06,0.42,0.77,1.1,1.1L72,89.94l0.47,0.88-0.11,1L72,92.29l0.26,0.27,0.05,0.38L73,93.33l0.52,0.16,0.47,0.33,0.26,0.6,0.63,0.11,0.63,0.38L76.14,95l0.52,0.38,0.58,0.38,0.37,0.38,0.52,0.11,0.26,0.27,0.84,0.06,0.68,0.49,0.31-.06,0.57,0.33,0.57,0.11,0.31,0.27,1.15-.16,1.2-.71h0.31l0.26,0.33,0.78,0.16,0.1,0.49,1.1,1L87,97.35l1.53,0L89,97.07l0-.41-0.9-.78,0.43-.33V94.77l1.14,0Z"/><polygon class="cls-8" points="90.61 97.27 90.1 96.9 90.26 95.1 90.72 94.41 91.71 94.6 91.4 94.89 91.32 95.67 90.61 97.27"/><polygon class="cls-8" points="125.08 113.45 125.1 112.38 124.16 111.89 124.11 110.96 124.79 110.25 124.87 109.26 125.5 109.02 127.85 109.1 128.4 109.34 128.4 109.76 128.13 109.97 127.82 111.02 128.29 112.33 127.87 113.26 126.78 113.31 126.57 113.1 126.25 113.04 126.04 113.48 125.08 113.45"/><polygon class="cls-8" points="127.87 113.26 128.29 112.33 127.82 111.02 128.13 109.97 128.4 109.76 128.4 109.34 129.34 109.51 129.81 109.67 131.06 110.82 130.8 111.78 130.28 112.93 129.75 113.64 128.4 113.42 127.87 113.26"/><path class="cls-8" d="M111.1,184.49l-0.16.37-0.31.23h-0.58l-0.52.33,0.21,0.51-0.31.47V187l-1,0-0.52-.42v-0.28l0.89,0L109,186l-0.05-.61-0.63-.37-0.78,0-0.52.61-0.31,0-0.1-1,0.47-.14,0.47-.14-0.1-.42-0.31,0-0.26.28-0.47-.23v-0.88l-0.42-.47,0.37-.23-0.21-.51-0.52-.14,0.21-.47-0.16-1,0.05-.88,0.1-.61-0.21-.56a0.18,0.18,0,0,1,.21-0.14,1.47,1.47,0,0,1,.42.37l0.37-.14-0.05-.56-0.26-.37-0.37.28-0.31.09-0.21-.19,0.16-.28,0.36-.51-0.05-.33-0.57-.14-0.21-.19-0.63.09v-0.19l0.58-.51,0.1-.61,0.73,0.19v0.61l0.1,0.37,0.31-.09,0.31-.61-0.05-.65,0.26-.28,0.37-.14v-0.65l0.42-.33-0.05-.36-0.42-.22-0.16-.66,0.52-.93-0.1-1.2,0.31-.38-0.16-.66,0.1-.44-0.31-.11-0.52.33L106,168l0.31-.82,0.16-1.21,0.37-.49,0.05-1.26-0.37-1.2v-1.31l0.42-.22,0.1-.93,0.42-.66,0.36-.77,0.24-1,0.39-1.15,0.55-.9v-1.89l-0.31-1.81,0.47-.41-0.08-1.15-0.16-.41,0.86-3.12,0.23-1.23-0.16-2.79,0.39-.33,0.24-3.12-0.31-.33,0.08-1.89,0.81-1,0.47,0.27,0.47,1.37,0.16,1.7,0.73,2.63,0.37,0.27,0.31,0.93-0.26.77-0.57.22-0.52.44,0.1,2.41,0.1,0.49-1,1.1-0.83,2-0.16.71L110.1,154l0.58,2.3-0.1,1.75-0.73,1,0.1,1.15-0.63,1.53,0.16,2.19-0.47,1-0.63,2,0.16,2.57-0.31.44,0.1,1.31,0.52,1.7-0.58.45,0.16,0.56,0.21,0,0.21,2.19-0.47.47,0.05,0.47-0.68.37,0.1,1.3-1.15,1.12-0.26.84,0.42,1.21h0.58l0.31,0.23,0.16,1.3,0.63,0.51,2.4,0Z"/><polygon class="cls-8" points="99.03 120.43 98.56 120.76 98.72 121.53 98.56 121.97 98.87 122.29 98.87 122.51 98.53 122.73 99.08 123.39 99.71 123.47 100.49 125.11 101.2 125.93 101.67 127.74 102.29 128.97 102.37 129.47 102.92 130.04 103 130.53 103.7 131.35 103.63 131.93 103.86 133 104.64 133.33 104.88 133.66 105.98 134.56 106.76 134.56 107.86 135.87 108.64 135.95 110.29 137.6 111.1 136.64 111.67 135.16 111.26 133.08 111.99 132.81 111.72 131.11 112.3 130.83 112.25 130.4 111.2 128.97 110.21 128.65 110.11 127.28 109.84 127 107.81 127.17 107.18 126.45 107.08 125.8 106.45 124.32 107.02 123.33 106.87 122.4 108.54 121.42 109.98 121.01 110.73 120.82 110.79 120.1 110.11 120.1 110.37 118.95 109.38 118.46 107.08 118.63 105.3 116.05 104.25 115.94 103.94 116.22 104.93 116.82 104.78 117.48 103.78 118.52 102.48 119.12 101.06 120.71 101.17 121.42 100.65 121.47 100.13 120.92 99.19 120.92 99.03 120.43"/><polygon class="cls-8" points="103.94 116.22 104.93 116.82 104.78 117.48 103.78 118.52 102.48 119.12 101.06 120.71 101.17 121.42 100.65 121.47 100.13 120.92 99.19 120.92 99.03 120.43 99.08 120.1 99.65 119.94 100.23 119.83 100.33 119.23 100.18 118.73 99.92 119.01 99.44 118.95 99.08 118.46 99.08 116.87 99.6 116.44 99.6 115.07 100.07 114.79 100.54 114.63 100.96 114.63 101.8 115.23 101.75 115.78 102.16 116.05 102.53 115.89 103.36 115.89 103.94 116.22"/><polygon class="cls-8" points="89.1 99.84 87.11 99.46 86.59 98.92 87.01 97.35 88.54 97.31 89.05 97.07 89.01 96.66 88.11 95.88 88.54 95.55 88.54 94.77 89.67 94.81 90.26 95.1 90.1 96.9 90.61 97.27 91.56 97.68 91.44 97.68 91.2 98.17 89.64 99.28 89.1 99.84"/><polygon class="cls-8" points="91.97 100.67 91.98 100.8 92.42 101.01 92.77 100.72 92.69 100.06 93.67 99.53 94.18 99.53 94.89 98.75 95.83 98.67 96.65 98.5 96.26 98.26 95.47 97.44 93.59 97.52 91.56 97.68 91.44 97.68 91.2 98.17 89.64 99.28 90.98 99.66 91.61 100.45 91.97 100.67"/><polygon class="cls-8" points="96.65 98.5 95.83 98.67 94.89 98.75 94.18 99.53 93.67 99.53 92.69 100.06 92.77 100.72 92.42 101.01 91.98 100.8 91.92 101.1 92.55 101.49 93.28 102.31 93.91 103.24 95 103.31 95.83 103.39 96.34 103.6 96.42 102.77 96.26 101.79 96.34 100.8 96.65 99.57 96.65 98.5"/><polygon class="cls-8" points="89.64 99.28 90.98 99.66 91.61 100.45 91.61 100.45 91.29 100.67 90.82 100.83 89.1 99.84 89.64 99.28"/><polygon class="cls-8" points="93.91 103.24 95 103.31 95.83 103.39 96.34 103.6 97.59 104.66 97.59 105.07 97.2 105.61 97.28 106.14 96.83 106.25 96 105.43 95.58 104.66 95.06 104.33 94.74 104.5 93.96 104.01 93.91 103.24"/><polygon class="cls-8" points="103.39 106.72 103 107.33 102.37 107.4 101.9 106.96 101.64 106.09 101.01 105.76 100.44 105.98 99.97 106.14 99.81 106.53 100.02 107.07 99.24 107.68 98.87 107.29 98.24 107.02 98.19 106.63 97.28 106.14 97.2 105.61 97.59 105.07 98.45 105.81 98.92 105.89 99.86 105.4 100.49 105.16 101.35 105.24 102.14 105.81 102.76 106.47 103.39 106.72"/><polygon class="cls-8" points="110.79 120.1 110.11 120.1 110.37 118.95 109.38 118.46 107.08 118.63 105.3 116.05 104.25 115.94 103.94 116.22 103.36 115.89 102.53 115.89 102.16 116.05 101.75 115.78 101.8 115.23 100.96 114.63 101.01 113.59 101.53 112.82 102.11 112.71 102.42 112.38 102.42 112 102.89 111.4 102.74 110.63 102.58 109.54 102.58 108.22 102.37 107.4 103 107.33 103.39 106.72 103.7 106.39 103.55 105.81 104.25 105.16 104.25 104.58 104.8 104.34 104.88 103.6 105.27 103.1 105.82 103.35 106.14 103.02 108.17 102.28 108.33 101.71 109.03 101.71 109.5 101.87 109.44 102.23 108.69 102.36 107.6 103.62 107.02 105.27 107.44 105.65 108.02 106.42 107.81 106.96 108.33 107.73 110.84 108.17 111.26 108.61 112.67 108.77 113.19 109.26 113.08 110.41 112.88 110.96 113.4 112 113.14 112.71 113.66 112.99 114.03 113.64 113.97 114.68 113.29 114.41 112.61 113.75 110.79 113.97 110.68 114.35 111.52 115.07 111.2 115.56 110.73 115.5 110.89 116.76 111.31 117.15 110.79 120.1"/><polygon class="cls-8" points="113.97 114.68 114.03 113.64 113.66 112.99 113.14 112.71 113.4 112 112.88 110.96 113.08 110.41 113.19 109.26 112.67 108.77 111.26 108.61 110.84 108.17 108.33 107.73 107.81 106.96 108.02 106.42 107.44 105.65 107.02 105.27 107.6 103.62 108.69 102.36 109.44 102.23 108.72 102.77 108.56 103.35 108.72 103.76 108.41 104.58 108.72 105.48 109.43 105.24 109.43 104.42 109.11 103.68 109.35 103.1 110.6 102.77 110.44 101.95 110.84 102.04 111.15 102.45 111.62 102.45 112.41 102.86 112.41 103.51 114.99 103.76 115.46 104.09 116.17 104.25 116.72 104.09 117.42 103.51 117.89 103.43 118.6 103.6 119.22 104.58 120.01 104.5 120.87 105.08 121.26 105.65 121.89 106.14 121.81 106.96 121.13 107.24 121.08 107.79 121.39 107.95 121.34 108.28 120.61 108.44 120.61 109.05 120.61 109.7 120.82 109.92 120.56 111.02 118.83 111.67 117.58 110.91 116.85 110.96 116.74 111.56 117.11 111.78 117.06 113.2 117.84 113.1 118.05 113.37 117.94 113.86 115.85 114.9 115.02 115.18 113.97 114.68"/><polygon class="cls-8" points="121.89 106.14 121.81 106.96 121.13 107.24 121.08 107.79 121.39 107.95 121.34 108.28 120.61 108.44 120.61 109.05 120.61 109.7 120.82 109.92 121.24 110.03 122.07 110.74 122.13 111.62 121.86 112.49 121.86 113.7 122.54 114.36 123.38 114.57 124.01 114.52 124.32 114.03 124.95 113.81 125.08 113.45 125.1 112.38 124.16 111.89 124.11 110.96 124.79 110.25 124.87 109.26 124.63 108.61 124.4 108.03 123.77 107.95 123.38 107.05 122.67 106.55 121.89 106.14"/><polygon class="cls-8" points="120.82 109.92 121.24 110.03 122.07 110.74 122.13 111.62 121.86 112.49 121.86 113.7 122.54 114.36 123.38 114.57 124.01 114.52 124.32 114.03 124.95 113.81 125.08 113.45 126.04 113.48 126.25 113.04 126.57 113.1 126.78 113.31 127.87 113.26 128.4 113.42 129.75 113.64 130.28 112.93 130.8 111.78 131.06 110.82 131.3 110.99 131.69 111.89 132.08 113.04 132.63 113.53 133.18 114.03 133.02 114.93 132.55 115.18 132.16 115.5 132.55 115.75 133.18 115.67 133.57 116.08 133.96 116.16 134.59 116.41 134.2 117.23 133.25 117.72 133.25 118.05 133.8 118.05 134.82 117.15 135.06 116.66 136.16 116.74 137.33 117.39 138.38 117.37 139 118.02 138.48 118.9 138.79 119.34 139.42 118.79 140.05 118.68 141.93 119.12 143.19 119.01 144.12 119.67 145.27 119.99 146.95 121.31 149.35 121.97 149.66 122.95 149.66 125.91 149.04 126.78 148.72 127.44 148.41 127.99 147.57 128.32 147.26 128.54 146.95 129.52 146.53 130.29 145.38 130.95 145.17 131.27 144.96 133.13 145.27 134.01 144.96 135 145.17 136.31 144.33 136.75 144.12 138.06 144.02 138.83 143.71 139.16 143.6 139.92 142.98 140.88 142.86 142.2 142.07 142.44 141.92 143.02 141.21 143.26 140.7 143.1 140.23 143.39 139.49 143.47 138.74 143.47 138.23 144.13 137.76 144.33 136.98 144.21 136.08 144.99 136.04 145.32 135.73 145.44 135.22 146.01 134.63 146.26 134.43 147.74 134.63 148.4 134.47 149.67 133.61 150.74 133.1 150.86 132.78 151.52 132.58 152.3 131.73 153.94 130.98 154.76 130.9 154.43 131.58 153.78 131.69 153.28 132.11 152.46 131.84 152.3 131.01 153.23 130.75 153.78 130.28 154.49 130.59 154.98 130.59 155.36 129.44 156.57 129.34 155.97 128.6 155.31 128.24 154.71 127.51 154.38 127.25 153.72 126.83 153.5 125.42 153.34 125.1 152.63 124.53 152.3 125.26 151.48 125.42 151.15 126.36 150.16 127.09 149.5 128.45 148.25 128.66 147.92 128.08 146.6 127.61 146.55 127.72 145.78 127.98 145.29 127.92 144.3 127.25 144.03 126.62 144.3 126.57 143.15 125.1 142.5 124.27 142.06 124.11 139.27 124.16 137.73 123.69 137.02 123.8 136.09 123.33 135.82 123.28 134.89 120.87 134.5 120.77 131.71 119.67 131.49 117.42 130.12 116.64 130.01 116.06 129.69 115.96 127.77 115.07 127.17 113.81 127.58 113.24 128.65 111.2 128.97 110.21 128.65 110.11 127.28 109.84 127 107.81 127.17 107.18 126.45 107.08 125.8 106.45 124.32 107.02 123.33 106.87 122.4 108.54 121.42 109.98 121.01 110.73 120.82 110.79 120.1 111.31 117.15 110.89 116.76 110.73 115.5 111.2 115.56 111.52 115.07 110.68 114.35 110.79 113.97 112.61 113.75 113.29 114.41 113.97 114.68 115.02 115.18 115.85 114.9 117.94 113.86 118.05 113.37 117.84 113.1 117.06 113.2 117.11 111.78 116.74 111.56 116.85 110.96 117.58 110.91 118.83 111.67 120.56 111.02 120.82 109.92"/><polygon class="cls-8" points="111.1 184.49 111.99 184.63 112.04 184.35 111.78 183.97 111.52 183.56 111.41 183.14 111.67 182.58 111.57 181.97 112.04 181.51 112.14 180.95 112.61 181.09 113.08 180.81 113.08 180.34 113.08 179.65 113.61 179.41 113.92 178.99 114.13 178.72 114.65 178.2 115.07 177.97 115.28 177.74 115.12 176.67 114.13 176.62 113.66 176.39 113.19 175.41 113.24 174.94 113.61 174.43 113.97 174.34 114.23 173.97 115.33 173.88 115.64 173.69 115.64 173.16 115.8 172.61 115.64 171.73 116.69 170.91 116.32 170.59 116.53 170.26 117.06 170.37 117.42 170.31 117.37 169.44 117 169.38 116.53 169.71 116.11 169.32 115.91 167.41 116.22 167.14 116.53 167.14 117.73 167.79 118.57 167.74 119.04 167.41 119.04 165.66 119.56 165.11 119.67 164.56 121.08 164.56 121.97 164.12 123.01 164.01 123.8 163.36 124.16 163.3 124.89 162.15 125.42 161.28 124.74 160.68 124.69 160.29 125.1 159.58 124.48 158.65 124.06 158.59 123.54 158.05 123.48 157.72 123.43 156.73 123.85 156.24 124 153.78 124.06 153.17 124.53 152.3 125.26 151.48 125.42 151.15 126.36 150.16 127.09 149.5 128.45 148.25 128.66 147.92 128.08 146.6 127.61 146.55 127.35 147.64 126.62 148.3 125.16 148.52 123.95 148.47 123.48 148.3 124.63 146.49 124.69 146 123.95 145.34 122.33 144.91 121.45 144.19 120.61 144.3 119.98 143.43 119.3 142.61 118.73 142.28 117.94 142.33 117.32 142.11 116.95 142.28 116.95 142.72 116.8 143.04 116.22 143.04 115.8 142.33 114.81 141.84 114.29 141.78 113.29 142.88 113.61 143.81 113.35 144.58 112.77 144.8 112.25 145.24 112.35 147.64 112.46 148.14 111.46 149.23 110.63 151.2 110.47 151.91 110.11 154.05 110.68 156.35 110.58 158.1 109.84 159.14 109.95 160.29 109.32 161.82 109.48 164.01 109.01 165.06 108.38 167.08 108.54 169.65 108.22 170.09 108.33 171.41 108.85 173.1 108.28 173.55 108.43 174.11 108.64 174.15 108.85 176.34 108.38 176.81 108.43 177.27 107.75 177.65 107.86 178.95 106.71 180.06 106.45 180.9 106.87 182.11 107.44 182.11 107.75 182.34 107.91 183.65 108.54 184.16 110.94 184.21 111.1 184.49"/><polygon class="cls-8" points="129.44 156.57 129.39 156.84 128.71 157.66 128.71 157.94 127.98 158.81 127.04 158.87 126.2 158.65 125.26 158.21 124.58 158.26 124 157.55 123.48 157.72 123.43 156.73 123.85 156.24 124 153.78 124.06 153.17 124.53 152.3 125.1 152.63 125.42 153.34 126.83 153.5 127.25 153.72 127.51 154.38 128.24 154.71 128.6 155.31 129.34 155.97 129.44 156.57"/><polygon class="cls-8" points="16.58 94.23 17.4 93.62 17.36 93.33 17.13 93.25 16.7 92.71 16.5 92.71 16.27 93.08 16.34 93.82 16.58 94.23"/><polygon class="cls-8" points="15.99 92.14 16.19 92.14 16.15 91.93 15.95 91.85 15.68 91.89 15.99 92.14"/><polygon class="cls-8" points="15.01 91.52 15.13 91.44 15.32 91.52 15.21 91.64 15.01 91.52"/><polygon class="cls-8" points="13.84 91.23 13.95 91.15 14.23 91.32 13.99 91.36 13.84 91.23"/><polygon class="cls-8" points="12.15 90.41 12.46 90.25 12.58 90.41 12.23 90.54 12.15 90.41"/><polygon class="cls-8" points="2.67 86.76 2.82 86.64 3.13 86.8 2.9 87.05 2.67 86.76"/><polygon class="cls-8" points="9.33 12.52 9.33 12.76 9.56 13.01 9.41 13.26 8.86 12.6 9.33 12.52"/><polygon class="cls-8" points="4.91 43.12 4.86 42.9 4.65 42.85 3.82 43.56 3.76 43.78 4.13 43.72 4.91 43.12"/><polygon class="cls-8" points="3.29 43.67 2.25 44.71 2.09 44.55 2.4 44.05 2.46 43.67 2.93 43.51 3.29 43.67"/><polygon class="cls-8" points="4.81 29 5.49 29.38 5.54 30.15 5.12 30.31 4.7 30.58 4.08 29.98 3.66 29.87 3.61 29.43 4.29 29.27 4.81 29"/><polygon class="cls-8" points="-1.41 21.06 -0.57 21.17 0.58 21.17 1.57 21.82 2.25 21.93 2.14 22.21 1.41 22.43 0.94 22.64 -0.26 21.88 -1.25 22.15 -1.57 21.61 -1.41 21.06"/><polygon class="cls-8" points="19.28 34.08 20.62 33.95 20.73 33.7 20.26 33.38 19.36 33.46 19.21 33.66 19.28 34.08"/><polygon class="cls-8" points="17.87 35.06 18.5 34.98 19.05 34.65 20.34 34.61 20.5 34.94 20.26 35.31 19.44 35.84 19.44 36.13 18.74 36.21 18.5 36.5 18.07 36.29 18.07 36 17.64 35.72 17.6 35.18 17.87 35.06"/><polygon class="cls-8" points="10.92 40.38 11.29 40.06 11.13 39.89 10.87 40 10.92 40.38"/><polygon class="cls-8" points="11.55 40.44 11.86 40.22 12.02 40.33 11.71 40.77 11.55 40.44"/><polygon class="cls-8" points="23.49 5.39 22.97 5.3 21.79 5.45 21.01 5.6 20.46 5.45 20.93 5.15 19.83 4.91 20.15 4.51 19.13 4.51 18.34 4.76 17.48 4.27 16.93 4.32 16.78 4.66 16.39 4.66 15.84 4.37 16.62 3.97 16.15 3.92 15.52 3.67 14.11 4.61 12.94 4.66 12.7 4.56 11.6 5.15 10.51 5.75 10.11 5.75 9.02 6.14 8.47 6.78 8.07 8.06 7.06 8.65 4.78 8.7 4.71 9.44 4.23 9.54 4.78 9.83 5.33 10.03 6.35 10.48 7.37 11.21 7.45 11.9 7.92 12 8.39 12.05 9.41 12.05 9.72 12 10.11 12.15 9.96 12.4 9.64 12.76 10.35 13.26 10.98 12.93 11.92 12.84 12.23 13.26 11.92 13.5 10.82 13.67 10.58 14.4 10.11 14.4 9.64 14.81 8.39 14.4 7.29 14.57 7.37 14.08 7.45 13.5 6.43 13.58 5.49 13.83 5.17 14.32 4.39 14.4 4.16 15.06 3.76 15.23 3.06 15.97 3.69 16.54 4.08 16.54 4.78 16.62 5.1 16.95 4.78 17.11 4.08 17.11 5.1 18.68 6.19 18.68 6.98 18.43 7.61 18.76 8.62 18.84 9.02 18.27 9.64 18.1 10.04 17.69 10.98 18.02 10.98 18.68 10.35 18.68 10.27 18.92 10.98 19.74 11.05 20.65 10.04 21.96 9.41 21.71 8.7 22.04 7.68 22.54 7.21 22.04 6.43 23.11 6.27 24.01 5.88 24.26 5.33 25.66 5.1 25.9 5.25 26.64 5.72 27.38 6.04 27.3 6.27 27.63 6.04 28.53 5.57 28.61 7.29 30.25 8.07 30.17 8.94 29.93 8.99 29.43 9.3 29.32 9.3 30.09 9.51 30.86 9.72 32.06 9.51 32.94 10.14 32.72 11.29 32.06 11.71 32.39 12.12 32.5 12.54 33.16 12.86 33.27 13.17 32.28 13.69 32.61 14.01 32.72 14.53 32.61 15.05 32.17 15.16 32.61 14.53 34.25 14.53 35.35 13.69 35.68 12.96 36.66 11.92 37.43 11.45 37.98 11.29 38.63 10.97 38.8 10.51 38.55 9.8 38.72 8.94 39.45 8.47 40.19 7.92 40.65 7.45 40.56 6.78 40.93 6.55 41.55 6.58 41.88 7.41 41.63 8.04 41.05 8.23 40.69 8.54 40.69 9.56 40.11 9.8 39.37 10.11 39.45 10.35 39.7 10.9 39.7 11.99 39.04 12.62 38.63 13.33 38.39 13.4 38.06 15.13 36.66 15.6 36.25 15.6 35.68 16.62 34.94 17.32 34.36 18.19 33.87 18.34 32.97 18.89 32.8 18.81 31.82 18.27 31.82 18.19 31.41 18.74 30.58 19.44 30.58 19.99 29.93 19.83 29.19 21.87 26.48 22.65 26.56 23.05 26.07 23.44 26.07 23.2 27.3 22.5 27.22 21.4 28.04 21.48 28.53 20.85 30.17 20.93 30.5 21.16 30.42 21.4 30.58 21.16 30.83 20.85 30.99 20.7 31.32 21.64 31.32 22.81 30.58 23.36 29.76 23.49 5.39"/><polygon class="cls-8" points="0.68 12.11 -0.66 11.12 -1.28 11.22 -1.91 11.07 -3.01 11.07 -2.77 11.56 -2.85 11.91 -2.54 12.15 -2.77 12.45 -3.79 11.76 -3.32 11.37 -3.48 10.68 -4.5 9.94 -5.05 10.04 -5.05 9.64 -5.59 9.54 -5.59 9.3 -6.3 9.15 -7.87 8.36 -7.87 8.11 -8.42 7.77 -9.12 7.77 -9.2 7.47 -10.22 6.83 -10.93 6.73 -11.71 6.34 -12.26 6.34 -13.59 5.9 -13.9 6 -14.37 5.85 -15.08 5.8 -15.94 5.7 -16.41 5.85 -17.04 5.75 -19.47 5.26 -19.78 5.6 -19.39 5.85 -19.63 6.04 -19.94 6.09 -20.1 6.34 -18.84 7.08 -19.08 7.77 -20.64 7.72 -20.8 7.18 -21.82 7.13 -22.29 6.34 -22.68 6.09 -23.39 6.64 -25.66 6.49 -26.68 6.04 -27.23 6.24 -27.93 6.09 -28.64 6.39 -29.03 6.34 -29.27 6.44 -29.66 6.39 -29.9 6.49 -30.13 6.29 -30.52 6.34 -31.23 6.04 -31.38 5.45 -30.91 5.01 -31.15 4.32 -32.48 3.53 -33.42 3.43 -34.44 3.19 -35.7 3.23 -37.58 3.83 -38.99 3.98 -39.77 3.68 -39.85 3.28 -40.71 2.74 -41.89 2.25 -42.91 2.05 -42.98 1.71 -42.52 1.76 -42.05 1.85 -41.97 1.21 -42.44 1.17 -43.3 0.77 -45.02 0.77 -45.57 1.51 -46.51 1.95 -47.69 2.2 -47.84 1.56 -47.06 1.56 -46.91 1.02 -48.24 1.12 -48.55 0.87 -48.08 0.48 -47.06 0.48 -46.04 0.62 -48.08 -0.02 -49.18 -0.12 -50.59 -0.31 -51.45 -0.26 -51.61 -0.51 -51.92 -0.61 -52.08 -0.36 -51.84 -0.12 -52.7 0.33 -53.33 0.38 -53.8 0.28 -53.96 0.82 -52.94 0.77 -53.25 1.07 -53.33 1.81 -52.94 2.4 -53.96 2.59 -54.04 2.25 -54.59 2.1 -54.98 2.45 -55.13 2.99 -55.68 3.04 -56.62 2.4 -57.96 2.25 -59.05 2.69 -59.92 2.64 -60.86 2 -61.17 1.61 -61.8 2.4 -62.19 3.58 -62.66 4.02 -65.01 2.64 -65.17 2.2 -64.86 2 -65.25 1.61 -65.56 1.81 -66.03 1.46 -66.11 0.97 -65.33 1.21 -64.86 1.26 -64.78 0.62 -65.64 0.48 -65.95 0.33 -65.95 0.08 -65.17 0.23 -64.7 -0.17 -65.33 -0.41 -65.33 -0.81 -66.42 -1.89 -66.97 -1.99 -67.68 -1.59 -68.38 -2.09 -69.01 -1.84 -69.56 -2.14 -69.48 -2.43 -70.58 -2.63 -70.89 -2.48 -71.28 -2.58 -71.52 -2.38 -71.44 -1.99 -71.2 -1.74 -71.2 -1.1 -71.75 -1 -72.14 -1 -72.54 -0.66 -73.24 -0.66 -74.18 -0.9 -74.81 -0.95 -75.12 -0.81 -77.32 -1.4 -77.24 -1.84 -76.93 -1.94 -76.3 -1.99 -76.46 -2.23 -77.47 -2.33 -79.28 -2.43 -80.14 -2.58 -82.02 -2.19 -82.1 -1.79 -82.73 -1.69 -82.88 -2.04 -82.49 -2.28 -82.26 -2.68 -82.57 -2.97 -83.12 -3.12 -83.12 -2.58 -83.82 -2.53 -84.84 -2.73 -84.77 -3.27 -85.63 -3.17 -86.18 -3.27 -86.8 -2.83 -86.65 -2.53 -86.1 -2.53 -85.55 -2.63 -86.41 -1.84 -87.12 -1.89 -87.43 -1.69 -87.98 -1.69 -88.53 -1.4 -88.68 -1.15 -89.94 -1.1 -90.09 -0.66 -91.11 -0.21 -91.82 -0.17 -90.88 -0.76 -90.88 -1.4 -90.41 -1.64 -89.94 -1.64 -89.86 -2.19 -89.31 -2.38 -88.68 -2.38 -87.98 -3.12 -86.96 -3.62 -86.49 -3.66 -86.41 -4.06 -84.92 -4.95 -84.06 -4.95 -83.98 -5.44 -82.88 -6.08 -82.41 -6.71 -83.51 -7.17 -83.75 -7.45 -83.67 -7.6 -83.43 -7.6 -82.96 -7.28 -82.1 -7.06 -82.1 -7.74 -82.49 -7.81 -82.41 -8.45 -82.81 -8.52 -83.43 -8.1 -83.67 -8.17 -83.43 -8.56 -84.61 -9.16 -85.16 -9.23 -85.47 -9.41 -88.68 -9.27 -88.92 -8.98 -89.94 -8.88 -90.56 -9.09 -89.7 -9.45 -89.55 -9.95 -90.33 -10.09 -90.88 -9.84 -91.35 -9.88 -91.35 -10.2 -92.52 -10.23 -92.52 -10.41 -91.19 -10.52 -90.64 -10.98 -91.04 -11.34 -91.74 -11.3 -92.92 -11.62 -94.41 -11.23 -94.72 -10.98 -95.74 -10.48 -95.82 -10.13 -96.44 -9.84 -96.21 -9.48 -95.82 -9.34 -96.13 -9.27 -95.82 -8.95 -95.19 -8.91 -94.64 -8.74 -93.39 -8.84 -93.23 -8.7 -94.33 -8.52 -95.35 -8.67 -95.9 -8.74 -96.6 -8.88 -97.62 -8.77 -98.4 -8.98 -98.64 -8.84 -98.33 -8.67 -97.23 -8.24 -96.99 -7.95 -97.15 -7.45 -98.01 -7.28 -98.25 -7.67 -97.78 -7.99 -98.87 -8.38 -99.42 -8.17 -99.89 -7.85 -101.07 -7.45 -101.07 -7.74 -101.62 -7.7 -102.09 -7.45 -102.4 -7.53 -101.7 -7.95 -102.87 -8.17 -103.58 -8.06 -104.83 -8.02 -105.38 -7.88 -105.14 -7.67 -104.67 -7.6 -104.05 -7.63 -104.2 -7.45 -105.22 -7.35 -106.79 -7.28 -107.18 -7.03 -107.81 -7.1 -108.67 -6.89 -109.77 -6.78 -110.63 -6.23 -111.26 -6.21 -111.81 -6.23 -112.04 -6.03 -111.65 -5.98 -111.1 -5.93 -111.26 -5.68 -111.73 -5.39 -112.12 -4.99 -112.83 -5.29 -113.22 -4.95 -112.98 -4.6 -112.44 -4.65 -111.89 -4.45 -111.97 -4.26 -112.83 -4.3 -112.98 -3.96 -112.44 -3.91 -111.97 -3.62 -112.04 -3.27 -111.65 -2.92 -111.73 -2.48 -112.2 -2.83 -113.22 -2.83 -113.69 -2.53 -114.47 -2.53 -114.94 -2.63 -116.12 -2.43 -117.92 -2.19 -118.47 -2.19 -119.1 -1.5 -118.71 -1.15 -118.78 -0.21 -118.39 0.08 -118.47 0.52 -116.9 0.97 -116.9 1.51 -115.73 1.8 -115.49 2.45 -115.88 3.09 -115.88 3.68 -115.1 4.51 -115.26 5.01 -115.96 5.3 -114.55 6.29 -114.32 6.49 -114.71 6.68 -115.18 6.59 -115.57 6.09 -116.67 5.25 -115.88 4.66 -115.96 3.88 -116.9 4.12 -116.98 3.43 -117.37 3.23 -116.9 2.94 -116.43 2.89 -116.04 2.35 -116.2 2.15 -117.45 2.3 -118.86 1.46 -120.51 0.72 -121.53 0.72 -122.47 1.12 -122.47 1.36 -122.08 1.36 -121.61 1.26 -121.61 1.9 -122.23 1.9 -122.86 1.46 -123.49 1.56 -123.88 1.95 -123.33 2.54 -122.08 2.99 -121.53 2.94 -121.53 3.23 -121.06 3.58 -120.51 3.68 -120.59 3.97 -121.37 3.88 -122 3.48 -122.86 3.48 -124.58 2.99 -124.19 2.35 -124.66 2.1 -124.66 1.66 -124.11 1.12 -124.19 0.08 -124.9 -0.51 -125.37 -0.61 -125.6 -0.51 -125.06 -0.12 -124.9 0.38 -124.74 0.62 -124.82 1.26 -126.55 1.95 -127.02 2.89 -126 3.73 -125.68 4.61 -126.15 5.11 -126.7 5.6 -126.78 6.19 -126.47 6.83 -126.31 7.42 -125.13 7.67 -124.43 7.32 -123.1 7.57 -122.7 8.02 -122.16 8.21 -121.45 9.1 -122.23 9.59 -122.16 9.98 -121.61 10.43 -121.14 10.33 -120.67 10.53 -121.29 10.68 -122.31 10.53 -122.78 10.23 -122.47 8.95 -123.1 8.26 -123.33 7.92 -124.11 7.87 -126.07 8.61 -125.76 8.9 -125.13 9.94 -125.37 10.53 -126 10.87 -126.7 11.86 -127.72 12.45 -128.19 13.26 -128.58 12.93 -130.44 12.86 -130.44 39.05 -129.68 39.38 -129.21 40.85 -128.35 40.61 -126.86 41.26 -126.7 42.25 -125.37 42 -125.06 41.27 -124.51 40.61 -123.1 40.77 -123.1 41.59 -122.7 42.83 -121.06 43.89 -120.51 45.29 -119.49 47.18 -116.67 47.18 -115.42 47.18 -113.69 49.31 -111.5 49.97 -111.34 50.55 -111.03 50.55 -110.63 49.89 -108.75 49.48 -107.89 48.25 -107.26 48.16 -106.4 47.34 -105.77 47.34 -104.83 48 -103.81 47.92 -102.48 49.31 -102.09 49.31 -101.85 48.66 -100.99 48.66 -100.91 49.23 -99.5 49.07 -99.34 47.84 -99.82 46.77 -98.95 45.95 -98.33 45.04 -95.58 45.86 -93.7 48.58 -91.58 47.75 -88.69 48.66 -88.45 49.31 -87.04 49.89 -86.57 50.3 -84.92 49.97 -83.75 50.05 -82.41 49.15 -81.87 48.16 -80.92 48.33 -79.75 49.31 -78.45 49.15 -77.87 49.81 -76.14 48.58 -76.22 47.59 -75.67 47.26 -75.2 45.62 -74.42 44.96 -74.34 44.06 -75.12 44.14 -74.03 42.25 -71.52 41.92 -69.79 42.5 -68.62 42.74 -67.6 44.8 -67.52 45.7 -66.74 47.42 -66.5 49.07 -65.48 49.15 -64.46 49.56 -63.13 50.96 -62.66 52.6 -61.8 52.52 -61.25 52.19 -60.15 52.11 -58.9 51.28 -58.43 51.45 -58.82 53.67 -59.68 54.32 -60.23 56.87 -61.17 57.28 -62.03 57.03 -62.97 57.44 -62.5 58.92 -62.66 60.24 -64.07 60.68 -63.52 61.06 -63.18 61.3 -63.18 61.3 -62.4 61.09 -62.24 60.59 -61.88 60.32 -61.35 60.59 -61.2 60.87 -60.52 60.92 -60.15 61.14 -59.63 60.54 -58.43 60.1 -57.28 58.13 -56.34 57.09 -55.34 56.1 -55.19 54.79 -54.61 53.69 -53.52 52.49 -53.2 52.05 -52.63 50.41 -52.63 49.81 -52.47 48.6 -52.63 48 -52.47 46.69 -51.58 45.26 -51.58 44.28 -52.21 43.73 -52.26 43.35 -51.79 43.62 -51.74 43.18 -52.16 42.41 -52.68 41.87 -53.05 41.1 -54.35 40.83 -54.61 41.92 -55.08 41.98 -55.61 42.25 -55.71 42.03 -55.5 41.48 -55.76 40.88 -56.23 41.21 -56.6 41.65 -56.65 40.23 -57.49 40.01 -57.91 40.12 -58.48 39.73 -58.38 39.35 -57.65 39.08 -57.02 38.42 -56.08 37.71 -55.76 37.21 -54.93 36.17 -54.88 35.63 -53.62 34.7 -52.63 33.49 -52.42 32.83 -51.22 31.74 -51.01 31.08 -50.07 30.32 -49.07 30.1 -48.19 30.15 -47.61 29.93 -46.51 29.99 -46.83 30.37 -46.57 30.75 -46.04 30.59 -45.57 30.04 -45.16 30.37 -43.95 30.26 -43.53 30.37 -42.96 29.44 -42.18 29.39 -41.55 29.49 -40.24 29.55 -39.98 30.15 -40.4 30.43 -40.66 30.81 -40.3 31.08 -39.72 30.75 -39.04 30.97 -38.26 30.32 -37.79 30.92 -37.37 30.97 -37.26 30.48 -36.43 30.32 -36.43 29.66 -36.9 29.39 -37.42 29.6 -37.47 28.89 -37.05 28.51 -36.64 27.85 -35.8 27.2 -35.8 26.76 -34.7 25.77 -34.86 25 -34.08 24.4 -32.72 24.35 -32.25 23.91 -31.62 24.4 -31.41 24.24 -31.15 23.91 -30.73 24.29 -30.84 25.06 -31.41 25.77 -31.15 26.1 -30.89 26.21 -30.84 27.03 -30.37 27.03 -30.05 26.1 -28.95 25.17 -28.75 24.84 -27.81 24.79 -27.65 24.29 -27.91 23.91 -27.34 22.38 -26.29 21.88 -25.61 22.6 -26.34 22.87 -26.6 23.86 -26.81 24.4 -26.97 25.77 -27.13 26.05 -27.18 26.65 -28.95 27.41 -29.22 28.07 -30.26 29.49 -30.84 29.6 -30.94 30.54 -32.14 31.63 -32.19 32.01 -32.87 32.62 -33.29 32.78 -33.66 33.27 -34.6 33.27 -34.81 35.19 -34.96 35.52 -35.75 36.5 -35.91 38.53 -35.75 40.5 -35.7 41.54 -35.44 42.25 -35.02 44.11 -34.91 45.1 -34.97 46.14 -34.7 46.91 -34.91 47.23 -34.44 47.13 -32.66 44.72 -32.56 44.11 -32.35 43.07 -31.67 42.85 -31.05 43.07 -30.84 42.63 -31.1 41.21 -29.69 40.01 -29.48 40.34 -29.01 40.17 -28.69 39.35 -29.06 38.8 -29.22 38.47 -28.75 37.16 -28.01 36.34 -28.01 37.16 -27.44 37.16 -27.18 36.89 -27.49 35.74 -28.01 35.46 -28.07 34.48 -27.34 33.77 -27.44 33.49 -28.17 33.16 -28.33 33.55 -28.9 32.94 -28.59 31.68 -28.17 31.47 -27.6 30.54 -27.39 29.44 -26.6 28.62 -26.08 28.67 -25.66 28.95 -25.25 28.34 -24.77 27.96 -24.2 27.41 -24.09 27.63 -24.51 28.45 -24.46 29.27 -23.89 28.84 -23.42 27.85 -21.48 26.92 -20.49 27.47 -20.23 28.02 -20.12 28.67 -19.6 28.34 -19.44 27.8 -18.71 26.92 -17.61 26.32 -17.3 25.66 -16.73 25.5 -16.1 24.68 -15.47 24.57 -14.69 23.75 -13.28 23.42 -12.86 22.7 -11.61 22.49 -10.98 22.87 -9.93 23.09 -9.88 22.6 -9.57 21.77 -9.88 21.5 -9.99 20.46 -10.4 20.08 -10.4 18.65 -10.82 18.33 -10.77 17.83 -11.13 17.67 -11.29 18.16 -11.92 17.61 -12.28 17.34 -12.96 17.18 -13.28 16.41 -12.75 16.46 -12.49 16.85 -12.28 16.63 -12.75 16.19 -12.28 15.92 -11.76 16.52 -11.5 17.07 -10.04 16.96 -9.57 16.35 -9.25 16.14 -8.42 15.1 -8.63 14.38 -9.04 13.18 -8.42 12.74 -8.16 12.85 -7.58 12.58 -7.53 13.12 -7.63 13.62 -7.69 14.49 -7.32 14.93 -6.54 14.88 -5.8 14.77 -4.97 15.1 -4.76 15.42 -4.6 16.79 -3.71 16.63 -3.14 16.96 -2.62 17.78 -1.99 18.16 -1 17.72 -1.52 17.23 -1.47 16.57 -0.73 15.97 -1.15 15.48 -0.89 15.26 -0.73 14.88 0.68 14.55 1.04 14.11 1.15 13.51 1.85 13.43 2.01 12.85 0.68 12.11"/><polyline class="cls-9" points="111.1 184.49 110.94 184.21 108.54 184.16 107.91 183.65 107.75 182.34 107.44 182.11 106.87 182.11 106.45 180.9 106.71 180.06 107.86 178.95 107.75 177.65 108.43 177.27 108.38 176.81 108.85 176.34 108.64 174.15 108.43 174.11 108.28 173.55 108.85 173.1 108.33 171.41 108.22 170.09 108.54 169.65 108.38 167.08 109.01 165.06 109.48 164.01 109.32 161.82 109.95 160.29 109.84 159.14 110.58 158.1 110.68 156.35 110.11 154.05 110.47 151.91 110.63 151.2 111.46 149.23 112.46 148.14 112.35 147.64 112.25 145.24 112.77 144.8 113.35 144.58 113.61 143.81 113.29 142.88 112.93 142.61 112.2 139.98 112.04 138.28 111.57 136.91 111.1 136.64 110.29 137.6"/><polyline class="cls-9" points="113.29 142.88 114.29 141.78 114.81 141.84 115.8 142.33 116.22 143.04 116.8 143.04 116.95 142.72 116.95 142.28 117.32 142.11 117.94 142.33 118.73 142.28 119.3 142.61 119.98 143.43 120.61 144.3 121.45 144.19 122.33 144.91 123.95 145.34 124.69 146 124.63 146.49 123.48 148.3 123.95 148.47 125.16 148.52 126.62 148.3 127.35 147.64 127.61 146.55 128.08 146.6 128.66 147.92 128.45 148.25 127.09 149.5 126.36 150.16 125.42 151.15 125.26 151.48 124.53 152.3 125.1 152.63 125.42 153.34 126.83 153.5 127.25 153.72 127.51 154.38 128.24 154.71 128.6 155.31 129.34 155.97 129.44 156.57"/><polyline class="cls-9" points="124.53 152.3 124.06 153.17 124 153.78 123.85 156.24 123.43 156.73 123.48 157.72"/><polyline class="cls-9" points="127.61 146.55 127.72 145.78 127.98 145.29 127.92 144.3 127.25 144.03 126.62 144.3 126.57 143.15 125.1 142.5 124.27 142.06 124.11 139.27 123.28 138.56 120.77 138.61 119.51 139.16 119.25 139.81 119.04 141.29 118.73 142.28"/><polyline class="cls-9" points="111.1 136.64 111.67 135.16 111.26 133.08 111.99 132.81 111.72 131.11 112.3 130.83 112.25 130.4 111.2 128.97 113.24 128.65 113.81 127.58 115.07 127.17 115.96 127.77 116.06 129.69 116.64 130.01 117.42 130.12 119.67 131.49 120.77 131.71 120.87 134.5 123.28 134.89 123.33 135.82 123.8 136.09 123.69 137.02 124.16 137.73 124.11 139.27"/><polyline class="cls-9" points="111.2 128.97 110.21 128.65 110.11 127.28 109.84 127 107.81 127.17 107.18 126.45 107.08 125.8 106.45 124.32 107.02 123.33 106.87 122.4 108.54 121.42 109.98 121.01 110.73 120.82 110.79 120.1 110.11 120.1 110.37 118.95 109.38 118.46 107.08 118.63 105.3 116.05 104.25 115.94 103.94 116.22 104.93 116.82 104.78 117.48 103.78 118.52 102.48 119.12 101.06 120.71 101.17 121.42 100.65 121.47 100.13 120.92 99.19 120.92 99.03 120.43"/><polyline class="cls-9" points="103.94 116.22 103.36 115.89 102.53 115.89 102.16 116.05 101.75 115.78 101.8 115.23 100.96 114.63"/><polyline class="cls-9" points="110.79 120.1 111.31 117.15 110.89 116.76 110.73 115.5 111.2 115.56 111.52 115.07 110.68 114.35 110.79 113.97 112.61 113.75 113.29 114.41 113.97 114.68 114.03 113.64 113.66 112.99 113.14 112.71 113.4 112 112.88 110.96 113.08 110.41 113.19 109.26 112.67 108.77 111.26 108.61 110.84 108.17 108.33 107.73 107.81 106.96 108.02 106.42 107.44 105.65 107.02 105.27 107.6 103.62 108.69 102.36 109.44 102.23"/><polyline class="cls-9" points="113.97 114.68 115.02 115.18 115.85 114.9 117.94 113.86 118.05 113.37 117.84 113.1 117.06 113.2 117.11 111.78 116.74 111.56 116.85 110.96 117.58 110.91 118.83 111.67 120.56 111.02 120.82 109.92 120.61 109.7 120.61 109.05 120.61 108.44 121.34 108.28 121.39 107.95 121.08 107.79 121.13 107.24 121.81 106.96 121.89 106.14"/><polyline class="cls-9" points="120.82 109.92 121.24 110.03 122.07 110.74 122.13 111.62 121.86 112.49 121.86 113.7 122.54 114.36 123.38 114.57 124.01 114.52 124.32 114.03 124.95 113.81 125.08 113.45 125.1 112.38 124.16 111.89 124.11 110.96 124.79 110.25 124.87 109.26"/><polyline class="cls-9" points="125.08 113.45 126.04 113.48 126.25 113.04 126.57 113.1 126.78 113.31 127.87 113.26 128.29 112.33 127.82 111.02 128.13 109.97 128.4 109.76 128.4 109.34"/><polyline class="cls-9" points="127.87 113.26 128.4 113.42 129.75 113.64 130.28 112.93 130.8 111.78 131.06 110.82"/><polyline class="cls-9" points="102.37 107.4 103 107.33 103.39 106.72"/><polyline class="cls-9" points="97.28 106.14 97.2 105.61 97.59 105.07"/><polyline class="cls-9" points="96.34 103.6 95.83 103.39 95 103.31 93.91 103.24"/><polyline class="cls-9" points="91.98 100.8 92.42 101.01 92.77 100.72 92.69 100.06 93.67 99.53 94.18 99.53 94.89 98.75 95.83 98.67 96.65 98.5"/><polyline class="cls-9" points="91.44 97.68 91.2 98.17 89.64 99.28 89.1 99.84"/><polyline class="cls-9" points="86.59 98.92 87.01 97.35 88.54 97.31 89.05 97.07 89.01 96.66 88.11 95.88 88.54 95.55 88.54 94.77 89.67 94.81 90.26 95.1 90.1 96.9 90.61 97.27"/><polyline class="cls-9" points="90.26 95.1 90.72 94.41 91.71 94.6"/><polyline class="cls-9" points="81.36 85.28 80.31 85.08 79.05 84.05 78.9 83.31 77.45 80.89 75.8 80.03 75.09 80.6 75.21 81.17 74.98 81.34 74.23 81.05 73.37 80.19 73.29 79.16 72.9 78.75 72.51 78.75 71.49 77.72 70.39 77.48 69.37 77.44 69.14 78.14 68.12 78.42 65.77 78.38 65.14 78.26 63.61 77.27 61.92 76.45 60 76.53 59.42 76.74"/><polyline class="cls-9" points="108.92 92.88 108.92 93.99 108.72 94.81"/><polyline class="cls-9" points="53.54 51.77 84.03 51.77 84.97 52.43 86.23 52.68 87.25 53.17 88.58 53.09 89.44 53.33 91.56 53.17 95 55.06 95.79 56.7 97.83 58.92 97.91 60.4 97.31 62.29 97.67 63.35 100.81 61.79 101.2 60.81 104.1 59.74 105.51 58.51 106.14 57.93 107.16 57.93 107.78 58.1 109.74 57.69 111.23 54.73 111.86 54.4 113.19 54.98 113.19 56.45 113.9 57.61 114.01 58.76"/><polyline class="cls-9" points="44.76 40.69 45.05 40.28 44.94 39.4 45.15 38.3 43.69 37.32 42.85 36.44 41.49 33.16 40.76 32.61 39.93 31.08 39.09 30.42 38.25 30.64 37.42 31.62 36.9 31.62 35.22 29 34.7 28.34 34.28 28.67 34.07 29.43 32.85 28.56 32.85 7.08"/><polyline class="cls-9" points="89.64 99.28 90.98 99.66 91.61 100.45"/><polygon class="cls-8" points="16.58 94.23 17.4 93.61 17.36 93.32 17.13 93.24 16.7 92.71 16.5 92.71 16.27 93.08 16.35 93.82 16.58 94.23"/><polygon class="cls-8" points="15.99 92.13 16.19 92.13 16.15 91.93 15.95 91.84 15.68 91.89 15.99 92.13"/><polygon class="cls-8" points="15.01 91.52 15.13 91.43 15.33 91.52 15.21 91.64 15.01 91.52"/><polygon class="cls-8" points="13.84 91.23 13.96 91.15 14.23 91.31 13.99 91.35 13.84 91.23"/><polygon class="cls-8" points="12.15 90.41 12.47 90.24 12.58 90.41 12.23 90.53 12.15 90.41"/><polygon class="cls-8" points="2.67 86.75 2.83 86.63 3.14 86.79 2.9 87.04 2.67 86.75"/><polygon class="cls-8" points="9.33 12.51 9.33 12.76 9.57 13 9.41 13.25 8.86 12.59 9.33 12.51"/><polygon class="cls-8" points="4.92 43.12 4.86 42.9 4.66 42.84 3.82 43.55 3.77 43.77 4.13 43.72 4.92 43.12"/><polygon class="cls-8" points="3.3 43.66 2.25 44.7 2.09 44.54 2.41 44.05 2.46 43.66 2.93 43.5 3.3 43.66"/><polygon class="cls-8" points="4.81 28.99 5.49 29.37 5.54 30.14 5.13 30.3 4.71 30.58 4.08 29.98 3.66 29.87 3.61 29.43 4.29 29.26 4.81 28.99"/><polygon class="cls-8" points="-1.41 21.05 -0.57 21.16 0.58 21.16 1.57 21.82 2.25 21.93 2.15 22.2 1.42 22.42 0.94 22.64 -0.26 21.87 -1.25 22.15 -1.56 21.6 -1.41 21.05"/><polygon class="cls-8" points="19.29 34.07 20.62 33.95 20.74 33.7 20.27 33.37 19.36 33.45 19.21 33.66 19.29 34.07"/><polygon class="cls-8" points="17.88 35.05 18.5 34.97 19.05 34.64 20.34 34.6 20.5 34.93 20.27 35.3 19.44 35.84 19.44 36.12 18.74 36.2 18.5 36.49 18.07 36.29 18.07 36 17.64 35.71 17.6 35.18 17.88 35.05"/><polygon class="cls-8" points="10.93 40.38 11.29 40.05 11.13 39.88 10.87 39.99 10.93 40.38"/><polygon class="cls-8" points="11.55 40.43 11.87 40.21 12.02 40.32 11.71 40.76 11.55 40.43"/><polygon class="cls-8" points="23.49 5.38 22.97 5.3 21.8 5.44 21.01 5.59 20.46 5.44 20.93 5.15 19.84 4.9 20.15 4.51 19.13 4.51 18.35 4.75 17.48 4.26 16.93 4.31 16.78 4.66 16.39 4.66 15.84 4.36 16.62 3.96 16.15 3.92 15.53 3.67 14.11 4.61 12.94 4.66 12.7 4.56 11.61 5.15 10.51 5.74 10.12 5.74 9.02 6.13 8.47 6.77 8.08 8.06 7.06 8.65 4.79 8.7 4.71 9.44 4.24 9.53 4.79 9.83 5.33 10.03 6.35 10.47 7.37 11.21 7.45 11.9 7.92 12 8.39 12.05 9.41 12.05 9.72 12 10.12 12.15 9.96 12.39 9.64 12.76 10.35 13.25 10.98 12.92 11.92 12.84 12.23 13.25 11.92 13.5 10.82 13.66 10.59 14.4 10.12 14.4 9.64 14.81 8.39 14.4 7.29 14.56 7.37 14.07 7.45 13.5 6.43 13.58 5.49 13.82 5.18 14.32 4.39 14.4 4.16 15.06 3.77 15.22 3.06 15.96 3.69 16.53 4.08 16.53 4.79 16.62 5.1 16.95 4.79 17.11 4.08 17.11 5.1 18.67 6.2 18.67 6.98 18.42 7.61 18.75 8.63 18.83 9.02 18.26 9.64 18.09 10.04 17.68 10.98 18.01 10.98 18.67 10.35 18.67 10.27 18.92 10.98 19.74 11.06 20.64 10.04 21.95 9.41 21.71 8.71 22.04 7.69 22.53 7.22 22.04 6.43 23.1 6.28 24.01 5.88 24.25 5.33 25.65 5.1 25.9 5.25 26.64 5.72 27.38 6.04 27.29 6.28 27.62 6.04 28.52 5.57 28.61 7.29 30.25 8.08 30.17 8.94 29.92 8.99 29.43 9.31 29.32 9.31 30.09 9.51 30.85 9.72 32.06 9.51 32.93 10.14 32.71 11.29 32.06 11.71 32.38 12.13 32.49 12.54 33.15 12.86 33.26 13.17 32.28 13.7 32.6 14.01 32.71 14.53 32.6 15.05 32.17 15.16 32.6 14.53 34.25 14.53 35.34 13.7 35.67 12.96 36.66 11.92 37.42 11.45 37.97 11.29 38.63 10.98 38.79 10.51 38.54 9.8 38.71 8.94 39.45 8.47 40.19 7.92 40.64 7.45 40.56 6.78 40.93 6.55 41.54 6.59 41.87 7.41 41.62 8.04 41.05 8.23 40.68 8.55 40.68 9.57 40.1 9.8 39.37 10.12 39.45 10.35 39.69 10.9 39.69 12 39.04 12.62 38.63 13.33 38.38 13.41 38.05 15.13 36.66 15.6 36.25 15.6 35.67 16.62 34.93 17.33 34.36 18.19 33.86 18.35 32.96 18.89 32.8 18.82 31.81 18.27 31.81 18.19 31.4 18.74 30.58 19.44 30.58 19.99 29.92 19.84 29.18 21.87 26.47 22.66 26.55 23.05 26.06 23.44 26.06 23.21 27.29 22.5 27.21 21.4 28.03 21.48 28.52 20.86 30.17 20.93 30.5 21.17 30.41 21.4 30.58 21.17 30.82 20.86 30.99 20.7 31.32 21.64 31.32 22.81 30.58 23.36 29.76 23.49 5.38"/><path class="cls-8" d="M0.68,12.1l-1.33-1-0.63.1-0.63-.15H-3l0.23,0.49-0.08.34,0.31,0.25-0.24.29-1-.69,0.47-.39-0.16-.69-1-.74L-5,10V9.64l-0.55-.1V9.29L-6.3,9.14l-1.57-.79V8.11l-0.55-.34H-9.12l-0.08-.3-1-.64-0.71-.1-0.78-.39h-0.55l-1.33-.44L-13.9,6l-0.47-.15-0.71,0-0.86-.1-0.47.15L-17,5.74l-2.43-.49-0.31.35,0.39,0.25-0.23.2-0.31,0-0.16.25,1.25,0.74-0.24.69-1.57,0-0.16-.54-1,0-0.47-.79-0.39-.25-0.71.54-2.27-.15-1-.44-0.55.2-0.71-.15-0.71.3-0.39,0-0.24.1-0.39,0-0.23.1-0.24-.2-0.39,0L-31.23,6l-0.16-.59L-30.91,5l-0.24-.69-1.33-.79-0.94-.1-1-.25-1.25.05-1.88.59L-39,4l-0.78-.3-0.08-.39-0.86-.54-1.18-.49-1-.2L-43,1.7l0.47,0L-42,1.85-42,1.21l-0.47,0L-43.3.77H-45l-0.55.74-0.94.44-1.18.25-0.16-.64h0.78L-46.9,1l-1.33.1L-48.55.86l0.47-.39h1l1,0.15-2-.64-1.1-.1-1.41-.2-0.86,0L-51.6-.52l-0.31-.1-0.16.25,0.24,0.25L-52.7.32l-0.63,0L-53.8.27-54,.81l1,0-0.31.3-0.08.74,0.39,0.59-1,.2L-54,2.24l-0.55-.15L-55,2.44-55.13,3l-0.55,0-0.94-.64L-58,2.24l-1.1.44-0.86,0L-60.85,2l-0.31-.39-0.63.79-0.39,1.18L-62.66,4-65,2.64l-0.16-.44,0.31-.2-0.39-.39-0.31.2L-66,1.46-66.11,1l0.78,0.25,0.47,0,0.08-.64L-65.64.47-65.95.32V0.08L-65.17.22l0.47-.39-0.63-.25V-0.81l-1.1-1.08L-67-2l-0.71.39-0.71-.49L-69-1.85l-0.55-.29,0.08-.3-1.1-.2-0.31.15-0.39-.1-0.24.2L-71.44-2l0.23,0.25v0.64l-0.55.1h-0.39l-0.39.35h-0.71l-0.94-.25-0.63,0-0.31.15-2.19-.59,0.08-.44,0.31-.1,0.63,0-0.16-.25-1-.1-1.8-.1-0.86-.15L-82-2.19l-0.08.39-0.63.1L-82.88-2l0.39-.25,0.24-.39L-82.57-3l-0.55-.15v0.54l-0.71,0-1-.2,0.08-.54-0.86.1-0.55-.1-0.63.44,0.16,0.29h0.55l0.55-.1-0.86.79-0.71,0-0.31.2H-88l-0.55.3-0.16.25-1.25.05-0.16.44-1,.44-0.71,0,0.94-.59V-1.4l0.47-.25h0.47l0.08-.54,0.55-.2h0.63L-88-3.13l1-.49,0.47,0,0.08-.39L-84.92-5h0.86L-84-5.44l1.1-.64,0.47-.63-1.1-.46-0.23-.29,0.08-.14h0.23L-83-7.28l0.86,0.21V-7.74l-0.39-.07,0.08-.64-0.39-.07-0.63.43-0.23-.07,0.23-.39-1.18-.61-0.55-.07-0.31-.18-3.21.14L-88.92-9l-1,.11-0.63-.21,0.86-.36,0.16-.5-0.78-.14-0.55.25-0.47,0V-10.2l-1.18,0v-0.18l1.33-.11,0.55-.46L-91-11.34l-0.71,0-1.18-.32-1.49.39-0.31.25-1,.5-0.08.36-0.63.29,0.24,0.36,0.39,0.14-0.31.07L-95.82-9l0.63,0,0.55,0.18,1.25-.11,0.16,0.14-1.1.18-1-.14-0.55-.07-0.71-.14-1,.11L-98.4-9l-0.24.14,0.31,0.18,1.1,0.43L-97-8l-0.16.5L-98-7.28l-0.24-.39L-97.77-8l-1.1-.39-0.55.21-0.47.32-1.18.39V-7.74l-0.55,0-0.47.25-0.31-.07,0.71-.43-1.18-.21-0.71.11-1.25,0-0.55.14,0.23,0.21,0.47,0.07,0.63,0-0.16.18-1,.11-1.57.07-0.39.25-0.63-.07-0.86.21-1.1.11-0.86.55-0.63,0-0.55,0L-112-6l0.39,0,0.55,0-0.16.25-0.47.3-0.39.39-0.71-.3-0.39.35L-113-4.61l0.55-.05,0.55,0.2-0.08.2-0.86,0L-113-4l0.55,0,0.47,0.3-0.08.34,0.39,0.35-0.08.44-0.47-.34h-1l-0.47.29h-0.78l-0.47-.1-1.18.2-1.8.25h-0.55l-0.63.69,0.39,0.34-0.08.94,0.39,0.3-0.08.44L-116.9,1V1.5l1.18,0.3,0.24,0.64-0.39.64V3.67l0.78,0.84-0.16.49-0.7.29,1.41,1,0.23,0.2-0.39.2-0.47-.1-0.39-.49-1.1-.84,0.78-.59L-116,3.87l-0.94.25L-117,3.43l-0.39-.2,0.47-.3,0.47,0,0.39-.54-0.16-.2-1.25.15-1.41-.84-1.65-.74h-1l-0.94.39V1.36h0.39l0.47-.1V1.9h-0.63l-0.63-.44-0.63.1-0.39.39,0.55,0.59L-122.07,3l0.55,0v0.3l0.47,0.34,0.55,0.1-0.08.29-0.78-.1L-122,3.47h-0.86L-124.58,3l0.39-.64-0.47-.25V1.65l0.55-.54-0.08-1-0.71-.59-0.47-.1-0.24.1,0.55,0.39L-124.9.37l0.16,0.25-0.08.64-1.72.69-0.47.94,1,0.84,0.31,0.89-0.47.49-0.55.49-0.08.59,0.31,0.64,0.16,0.59,1.18,0.25,0.7-.34,1.33,0.25L-122.7,8l0.55,0.2,0.71,0.89-0.78.49,0.08,0.39,0.55,0.44,0.47-.1,0.47,0.2-0.63.15-1-.15-0.47-.29,0.31-1.28-0.63-.69-0.23-.34-0.78,0-2,.74,0.31,0.3,0.63,1-0.24.59-0.63.35-0.71,1-1,.59-0.47.81-0.39-.33-2-.08-0.78-.64-0.78,0-0.23-.25,0.31-.15h0.78l0.55-.15,0.47,0.2,0.63,0.54,0.86-.39V11.61l0.47-.3-0.08-.29,0.94-.59,0.47-.84-0.24-.35,0.86-.64-0.78-.15-0.71-.69,0.39-.64-0.39-.3V5.35l0.71-.49-0.55-.25-0.08-1.38-0.94-.15,0.08-.54,1.25-1,0.08-.54-0.24-.1L-127.4,0l-1.1-.59-1.18.1-0.7-.25-0.86.2-0.55,2-0.86,1.18-1,.94-0.31.69,0.23,0.15-0.08,1.38-0.24.1,0.24,0.84,0.39-.2L-132.73,7l-0.16.4L-132.11,8l0.63,0-0.08.69-1,.64-0.31-.2L-133,8.65l-0.71-.44h-0.55l-0.63-.39-0.71-.15-0.63-.39-1.25-.59-3.06-.39-0.78.54,0.47,0.44-0.08.89-0.94.25,0.08,0.35-0.47.2-0.47-.25,0.08-.59-0.63-.25-0.63.39-0.63,0-0.63.39H-146l-0.08-.15h-0.63l-0.55.39,0.08,0.34h-0.63L-148,9.14l-0.63.25-0.31-.3,0.63-.39-0.24-.39,0.39-.34L-149,8l-0.63.34-0.47.15L-150,8.85l-0.47.2-0.08-.29-0.39-.1-1.1.3-0.63.54-0.71.44h-0.86v0.44l-0.31,0-0.47-.3-0.31.1,0.08,0.54-0.08.64-1,.35-1.33-.35-0.08-.35-0.63-.44,0.47-.25,0.08-.25,1.49-.3L-157,9l-1.33-.39-1.41-.2-0.47,0-0.08.3,0.7,0.39,0.39,0.3v0.94l-0.39.29v0.39l0.78,0.39-0.55,1.88-1.33-.94-1.1-.1-0.08.88-0.94.57L-164.25,15l0.86,1.81-0.31.66-1.18.08-1.57-.74-0.39-.66-0.55-.08-0.31,1,0.78,1.15,0.47,0.16,0.47,0.41-0.23.49-1.41.16-1-1.15-0.86.25-0.08-.66,0.16-1.4-0.63-.74,0.63-.9-0.16-.82-1.25-1.4-1.41-.94,0.08-.54,1.33,0.84,0.71,0,1,0.49,1.41,0.53,1.57,0.57,1.33,0.08,2.27-1.68V10.37L-163,10l-0.63-.39h-0.47l-0.39-.35L-165.11,9l-1.33-.49L-168,7.61l-1.65-.44-1.1.2-0.47-.29-0.71-.1-0.31-.29,0.78-.1V6.28l-0.86-.3-0.63,0v0.3h-0.55l-1.49.59-0.08.25-0.55.29-0.71.89V9l0.94,0.54,0.47,1-0.78.89,1.1,1.71-0.16,1.4,0.24,0.9-0.31,1.07,0.55,0.41-0.31.57,0.47,0.9v0.74l-0.39.74,0.16,0.66,0.78,0.25,0.86,1.23-2,2.46-1.18,1.72-0.26,1.18-0.1.82,0.52,0.27,0.78-.05,0.52,0.16-0.16.71-1.2-.11-0.16.27h-0.68l0.05,0.38-0.57.49-0.31,1.86,0.39,1v0.9l-0.08,1.23,0.47,0.66-0.08,1.48,0.71,0.08,0.63,0.57,0.55-.16,0.78,0.08,0.39,0.66,0.16,1.81,0.55,1.07,1.18,1.15-0.24.82h-0.47l-0.47-.33h-0.55l0.16,0.74,0.47,0.49,0.24,0.82,0.78-.41,1.49,0.16,0.47,1.89,0.78,0.16,0.08,0.66,0.47,0.57,1.8-.08,0.86,0.74h0.71l0.62,0.58,0.95,0.89-0.63.82-0.16,1.4-0.47-.08-0.78.82-0.68,1.26,1.1-.38,0.16,0.22-1,.55,0.37,0.71-0.1.33-0.57.6-0.05.28-0.68.05,0.1,0.38,0.21,0.38,0.42,0.22,0.37,0.44h0.52l1,1.2,0.58,0.44,1.46,0.38,1.65,0.25,0.55-.16,1.49,0.74,1.49,0.9H-157l0.55,0.66,1.41,0.74,0.71-.25,0-.9a1.93,1.93,0,0,1-.35-0.56c-0.72-.66-0.66-1.51-0.72-2.43a2.16,2.16,0,0,1-.81-1.58l0.35-.2a5.18,5.18,0,0,1,.53-1.21,3.07,3.07,0,0,0,1.54-1,1.58,1.58,0,0,0,.33-0.13l-0.55-.32,0.24-1.15-0.71-.9-1.49-.33L-155.7,48l0.63-.17,0.39,0.58,0.71-.08V47.09l2.35-1.64,0.55,0.66h1.1l0.47,0.41,1-.08,0.63,0.9,0.63-.08,0.47,0.49h0.39l0.63-.66h2l0.55,0.49,1.49,0.33,0.08-.66,0.31-.08,0.47,0.74,0.55-.41-0.08-.9L-141.2,46l0.08-.82,0.63-.16,0.16-.49-0.47-.41,0.16-.49,0.94-.33V43l-1,.08v-0.9l1.41-.25,1.72-.49,3-1.31,1.25-1.07,1.41-.16,1.49,0.16,0.78,0.33,0.47,1.48,0.86-.25,1.49,0.66,0.16,1,1.33-.25,0.31-.74,0.55-.66,1.41,0.17v0.82l0.39,1.23,1.65,1.07,0.55,1.39,1,1.89h4.08l1.72,2.13,2.19,0.66,0.16,0.57H-111l0.39-.66,1.88-.41,0.86-1.23,0.63-.08,0.86-.82h0.63l0.94,0.66,1-.08,1.33,1.4h0.39l0.24-.66H-101l0.08,0.58,1.41-.17,0.16-1.23-0.47-1.07,0.86-.82,0.63-.9,2.74,0.82,1.88,2.71,2.12-.82,2.9,0.9,0.24,0.66L-87,49.88l0.47,0.41,1.65-.33L-83.74,50l1.33-.9,0.55-1,0.94,0.17,1.18,1,1.29-.17,0.59,0.66,1.72-1.23-0.08-1,0.55-.33,0.47-1.64,0.78-.66,0.08-.9-0.78.08,1.1-1.89,2.51-.33,1.72,0.57,1.18,0.25,1,2.05,0.08,0.9,0.78,1.72,0.24,1.64,1,0.08,1,0.41,1.33,1.4,0.47,1.64,0.86-.08,0.55-.33,1.1-.08,1.25-.82,0.47,0.17-0.39,2.22-0.86.66-0.55,2.55-0.94.41L-62,57l-0.94.41,0.47,1.48-0.16,1.31-1.41.45,0.54,0.38,0.34,0.25h0l0.78-.22,0.16-.49,0.37-.27,0.52,0.27,0.16,0.27,0.68,0.05,0.37,0.22,0.52-.6,1.2-.44,1.15-2,0.94-1,1-1,0.16-1.31,0.58-1.1,1.1-1.2L-53.2,52l0.57-1.64V49.8l0.16-1.2-0.16-.6,0.16-1.31,0.89-1.42v-1l-0.63-.55-0.05-.38,0.47,0.27,0.05-.44-0.42-.77-0.52-.55L-53,41.1l-1.31-.27-0.26,1.09-0.47.06-0.52.27-0.1-.22,0.21-.55-0.26-.6-0.47.33-0.37.44-0.05-1.42L-57.49,40l-0.42.11-0.58-.38,0.1-.38,0.73-.27,0.63-.66,0.94-.71,0.31-.49,0.84-1,0.05-.55,1.25-.93,1-1.2,0.21-.66,1.2-1.1,0.21-.66,0.94-.77,1-.22,0.89,0.06,0.58-.22,1.1,0.05-0.31.38,0.26,0.38,0.52-.16,0.47-.55,0.42,0.33,1.2-.11,0.42,0.11,0.57-.93,0.78-.06,0.63,0.11,1.31,0.06,0.26,0.6-0.42.27-0.26.38,0.37,0.27,0.57-.33L-39,31l0.78-.66,0.47,0.6L-37.37,31l0.1-.49,0.84-.16V29.65l-0.47-.27-0.52.22-0.05-.71,0.42-.38,0.42-.66,0.84-.66V26.75l1.1-1L-34.86,25l0.21-.16,0.57-.44,1.36-.05,0.47-.44,0.63,0.49,0.21-.16,0.26-.33,0.42,0.38-0.07.55h2.06l0.94-.06,0.16-.49-0.26-.38,0.57-1.53,1-.49,0.68,0.71-0.73.27-0.26,1-0.21.55-0.05.44h10.64l0.13-.17,0.63-.11,0.78-.82,1.41-.33,0.42-.71,1.25-.22L-11,22.86l1,0.22,0.05-.49,0.31-.82-0.31-.27-0.1-1-0.42-.38V18.65l-0.42-.33,0.05-.49-0.37-.17-0.16.49-0.63-.55-0.37-.28L-13,17.17l-0.31-.77,0.52,0.06,0.26,0.38,0.21-.22-0.47-.44,0.47-.27,0.52,0.6,0.26,0.55L-10,17l0.47-.6,0.31-.22,0.84-1-0.21-.71L-9,13.17l0.63-.44,0.26,0.11,0.57-.27,0.05,0.55-0.1.49-0.05.88,0.37,0.44,0.78-.05,0.73-.11L-5,15.09l0.21,0.33,0.16,1.37,0.89-.17L-3.14,17l0.52,0.82L-2,18.16l1-.44-0.52-.49,0.05-.66,0.73-.6-0.42-.49,0.26-.22,0.16-.38,1.41-.33L1,14.1l0.1-.6,0.71-.08L2,12.84ZM-140.9,22.49l-0.36,1.62Zm-0.66,3v0Z"/><g class="cls-10"><path class="cls-11" d="M-193.63,45.75c24.36,24.64,38.83,50.88,51.72,65.95s26.95,29,45.86,36.82,51.22,9.37,76.16-9.71,30.8-32,54.73-63.6S73.78,26.83,88.47,18.55,121.71,4.91,133.59,4.74c5.31-.07,12-0.08,18.35-0.07V-9.78H143.5c-34.61.43-61,4.54-82.33,25.15s-37.4,55.46-41.7,61.91-30.74,61.69-81,65.56-78-43.64-94.15-68.57-33.53-55.46-43.64-64.64S-216.83-4.69-224.74-6.75c-2.44-.4-4.8-0.73-7-1V25.49C-225.66,25.38-211.62,27.55-193.63,45.75Z"/></g><path class="cls-12" d="M-112.06,113.83c35.52,29.34,67.44,17.5,88.55,1.54S5,74.32,15.18,47.87,27.71,8.18,44.7-11.71a66.5,66.5,0,0,1,6.66-6.76H2.7C4.08-8.65,6.38,9.94,6.27,24,6.14,41.75.66,62.33-7.32,77.66s-25.39,41.44-57.27,42.61c-22.14.81-33.66-7.3-47-20.6-14.88-14.88-19.82-29-26.08-51.8-5.08-18.5-4.14-53.74-3.61-66.35h-38.24C-167,17.17-144.21,87.28-112.06,113.83Z"/><path class="cls-12" d="M-199.36,9.63c10.11,9.18,27.52,39.7,43.64,64.64s43.85,72.44,94.15,68.57,76.74-59.11,81-65.56S39.89,36,61.17,15.37,108.9-9.35,143.5-9.78h8.35v-8.69H51.36a66.5,66.5,0,0,0-6.66,6.76c-17,19.89-19.3,33.13-29.52,59.58S-2.41,99.42-23.51,115.38s-53,27.8-88.55-1.54c-32.14-26.55-55-96.67-67.41-132.31h-52.3V-7.75c2.23,0.27,4.59.6,7,1C-216.83-4.69-209.47.45-199.36,9.63Z"/><path class="cls-12" d="M120.82,29.52C108.25,31.7,94.66,36.17,83.07,45c-3.7,2.82-7.17,5.63-10.49,8.47C53.13,70.13,39,88,17.67,115.94c-25,32.7-57.72,57.89-101.95,49.14S-149,117.73-176.56,84c-9.8-12-17.88-20.6-25.15-26.76-10.61-9-19.5-12.84-29.5-14.71V57.56l0.24,0c14.59,2.35,35,14.8,73.53,67.64,59.32,81.3,128.9,63.25,172.29,10.19,34.3-42,55.12-71.71,87.66-82.35a91.6,91.6,0,0,1,28.81-4.31c8.68,0,15.85.09,21.77,0.25V27.82A148.25,148.25,0,0,0,120.82,29.52Z"/><path class="cls-12" d="M147.8,4.67h-0.36c-4.93,0-9.92,0-13.85.07-11.88.17-30.43,5.54-45.12,13.81A84.15,84.15,0,0,0,72,31.14,244.08,244.08,0,0,0,51.59,53.76C46.49,60,41,67.12,34.84,75.2,10.9,106.84,5,119.73-19.89,138.81S-77.13,156.38-96,148.51s-33-21.76-45.86-36.82c-10.95-12.79-23-33.66-41.36-54.75-3.25-3.74-6.69-7.49-10.36-11.2-2.05-2.07-4-3.93-6-5.61-14.6-12.62-26-14.62-31.6-14.65v17c10,1.88,18.89,5.72,29.5,14.71,7.27,6.16,15.35,14.73,25.15,26.76,27.52,33.77,48.05,72.37,92.28,81.12s76.93-16.44,101.95-49.14C39,88,53.13,70.13,72.58,53.47c3.32-2.84,6.79-5.65,10.49-8.47,11.59-8.83,25.18-13.3,37.75-15.48a139.42,139.42,0,0,1,31.11-1.79V4.57S149.4,4.67,147.8,4.67Z"/><path class="cls-12" d="M-137.63,47.87c6.26,22.79,11.2,36.92,26.08,51.8,13.3,13.3,24.82,21.41,47,20.6C-32.71,119.11-15.3,93-7.32,77.66S6.14,41.75,6.27,24C6.38,9.94,4.08-8.65,2.7-18.48H-141.24C-141.77-5.87-142.71,29.37-137.63,47.87ZM-117,23.31c10.12-15.62,26.6-22.48,51.09-23S-23.34,12.5-18.37,20.91s11.15,26.27,0,51.83-29,37.88-47.88,37.24c-25.4-.86-37.39-15.1-46.68-30S-127.16,38.93-117,23.31Z"/><path class="cls-13" d="M-226.08-18.36C-223-17.47-210-14.18-197.34-.53S-181,22.31-168.61,44.24s40.43,69.63,62.31,83.35a72.44,72.44,0,0,0,76.18,1C-4.39,113.53,3.17,97.25,22.53,61.2S41.89,18.63,65.61.22,108-20.54,108-20.54"/><path class="cls-14" d="M-244.57,52.61s17.45-3.18,35,9.76,24.72,23,38.89,40.52,24.87,32.63,38.11,45.87,41.12,30,67,27.78,48-8.75,86.39-53.55S68.37,62.51,94.43,50.63s69.78-8.07,69.78-8.07"/><path class="cls-15" d="M-179.47-18.48C-167,17.17-144.21,87.28-112.06,113.83c35.52,29.34,67.44,17.5,88.55,1.54S5,74.32,15.18,47.87,27.71,8.18,44.7-11.71a66.5,66.5,0,0,1,6.66-6.76"/><path class="cls-15" d="M153.09,28.45V27.82a148.25,148.25,0,0,0-32.26,1.7C108.25,31.7,94.66,36.17,83.07,45c-3.7,2.82-7.17,5.63-10.49,8.47C53.13,70.13,39,88,17.67,115.94c-25,32.7-57.72,57.89-101.95,49.14S-149,117.73-176.56,84c-9.8-12-17.88-20.6-25.15-26.76-10.61-9-19.5-12.84-29.5-14.71"/><path class="cls-4" d="M-231.21,57.56l0.24,0c14.59,2.35,35,14.8,73.53,67.64,59.32,81.3,128.9,63.25,172.29,10.19,34.3-42,55.12-71.71,87.66-82.35a91.6,91.6,0,0,1,28.81-4.31c8.68,0,15.85.09,21.77,0.25"/><path class="cls-4" d="M153.09,4.67h-5.64c-4.93,0-9.92,0-13.85.07-11.88.17-30.43,5.54-45.12,13.81A84.15,84.15,0,0,0,72,31.14,244.08,244.08,0,0,0,51.59,53.76C46.49,60,41,67.12,34.84,75.2,10.9,106.84,5,119.73-19.89,138.81S-77.13,156.38-96,148.51s-33-21.76-45.86-36.82c-10.95-12.79-23-33.66-41.36-54.75-3.25-3.74-6.69-7.49-10.36-11.2-2.05-2.07-4-3.93-6-5.61-14.6-12.62-26-14.62-31.6-14.65"/><path class="cls-16" d="M7.31,200.53c53.43-58.62,62.25-100,103.75-108.37a95.61,95.61,0,0,1,40.91.37V49c-5.7-.14-12.5-0.22-20.65-0.22a91.6,91.6,0,0,0-28.81,4.31C70,63.71,49.14,93.47,14.85,135.42c-43.39,53.07-113,71.12-172.29-10.19-38.26-52.43-58.62-65.1-73.18-67.58V96.71c4.72,3.3,24.47,18,44.81,45.81,24.8,33.92,43.46,61.57,64.9,78.48H-13.5A230.3,230.3,0,0,0,7.31,200.53Z"/><path class="cls-4" d="M-231.69,96s22.56,14.65,45.88,46.54c36.39,49.78,59.58,86.08,97.71,94.71s58.72,3.55,95.42-36.71c53.43-58.62,62.25-100,103.75-108.37S178.81,104,178.81,104"/></g><path class="cls-15" d="M-230.63-7.86c2.23,0.27,3.45.71,5.89,1.11,7.91,2.07,15.27,7.21,25.37,16.38s27.52,39.7,43.64,64.64,43.85,72.44,94.15,68.57,76.74-59.11,81-65.56S39.89,36,61.17,15.37,108.9-9.35,143.5-9.78H152"/></g><circle class="cls-17" cx="73.32" cy="115.52" r="2.56"/></svg>